<svg width="133" height="133" viewBox="0 0 133 133" fill="none" xmlns="http://www.w3.org/2000/svg">
<path fill-rule="evenodd" clip-rule="evenodd" d="M93.9522 126.757C116.84 116.286 132.741 93.1852 132.741 66.3707C132.741 29.7152 103.026 0 66.3707 0C29.7152 0 0 29.7152 0 66.3707C0 99.361 24.0698 126.729 55.606 131.873C55.1552 130.493 54.6955 129.117 54.2226 127.755L54.1919 127.648C54.0387 127.755 53.8549 127.801 53.6404 127.694C50.2701 126.077 47.5432 123.393 45.6742 120.19C44.035 117.353 43.1004 114.135 43.0851 110.855C43.0851 109.376 43.1464 107.576 44.1882 106.417C44.6784 105.883 45.3525 105.578 46.0878 105.654C47.0223 105.746 47.7577 106.386 48.4011 107.012C50.9288 109.467 52.8438 112.503 54.0234 115.812C55.1571 118.97 55.7086 122.6 55.0958 125.94C55.249 126.352 55.4022 126.779 55.5401 127.191C56.0955 128.815 56.6247 130.457 57.1277 132.103C58.2511 132.259 59.3835 132.388 60.5241 132.487C60.8846 126.572 61.1367 120.65 61.2543 114.729C61.3922 108.278 61.3769 101.826 61.1931 95.3742L61.193 95.374C61.1164 95.1606 61.0399 94.9471 60.9786 94.7336C59.6917 93.8185 58.2517 93.0863 56.7657 92.5525C56.7198 92.5221 56.6586 92.5068 56.5974 92.4916L56.5971 92.4915C54.9273 93.8185 52.8591 94.6879 50.7297 94.8556C49.3815 94.9624 46.9151 94.8557 46.9457 92.9644C46.9764 90.8595 49.8105 90.6765 51.3425 90.646C53.0276 90.6155 54.6822 90.8595 56.2448 91.3628C56.4593 91.2713 56.6891 91.3628 56.8269 91.5459C58.1904 92.0492 59.4773 92.7661 60.6416 93.6812L60.5496 93.3609C60.2432 92.4305 59.9215 91.5001 59.5692 90.5697C58.8951 88.7852 58.1444 87.0312 57.3172 85.3076C56.6891 84.0112 56.0303 82.73 55.295 81.4793C55.2796 81.4844 55.2643 81.4912 55.249 81.498C55.2184 81.5115 55.1877 81.5251 55.1571 81.5251C51.1433 81.9827 46.5627 82.2877 43.5141 79.1305C42.4417 78.017 41.783 76.5528 41.8442 75.0123C41.9055 73.4718 42.7941 72.0076 44.3107 71.5348C45.9346 71.0315 47.6657 71.6721 49.0445 72.5262C50.5152 73.4261 51.8021 74.6616 52.9357 75.958C55.295 78.6729 56.9801 81.9216 58.4355 85.1704C59.2322 86.9549 59.9369 88.7547 60.565 90.6002C60.6492 90.8671 60.7296 91.134 60.8101 91.4009C60.8905 91.6679 60.9709 91.9348 61.0552 92.2017C60.8254 86.2838 60.473 80.3659 59.9215 74.4785C59.6611 71.6416 59.3394 68.8199 59.0023 66.0134C58.7336 65.4784 58.4853 64.923 58.2363 64.3662C58.0027 63.8437 57.7685 63.3199 57.5163 62.8104C57.0874 61.9258 56.5972 61.0869 56.0763 60.2633C56.015 60.2938 55.9538 60.2938 55.8773 60.2938H55.8771C51.9093 60.004 48.0794 58.494 44.9388 56.0841C42.1353 53.9488 39.8527 51.1271 38.4892 47.8936C37.8151 46.3074 37.4168 44.1721 39.2552 43.1959C40.7872 42.3876 42.9932 42.8604 44.5865 43.2417C48.3092 44.1568 51.7255 46.2769 54.0541 49.3121C56.398 52.3779 57.7614 56.2977 57.3478 60.1565V60.1718C57.7614 60.8734 58.1598 61.6055 58.5121 62.3529C58.1904 60.0193 57.8534 57.6704 57.4857 55.3368C57.3938 55.2758 57.3325 55.1843 57.3631 55.0623L57.4091 54.8792C56.6584 50.1205 55.8005 45.3618 54.8507 40.6336C50.8216 39.1541 47.8189 35.6308 46.241 31.7262C44.5099 27.4098 44.2954 22.6053 44.5405 18.0143C44.6324 16.4433 45.0767 14.43 46.8691 14.0029C47.9568 13.7436 49.0752 14.2165 50.0097 14.735C50.8216 15.1774 51.5876 15.7112 52.277 16.3213C55.1724 18.8837 56.8882 22.6053 57.4551 26.3726C57.8227 28.8282 57.7615 31.3296 57.501 33.7852C57.2253 36.2561 56.781 38.727 56.0456 41.1064C55.9997 41.2589 55.8158 41.2436 55.7239 41.1521C56.6125 44.9195 57.4091 48.7173 58.0985 52.5304C58.8338 50.1357 59.7071 47.7869 60.7182 45.4685C61.1471 44.4771 61.6067 43.4705 62.0816 42.4791C61.8978 39.9167 62.2808 37.2475 62.8323 34.7614C63.3685 32.3058 64.1804 29.8806 65.406 27.6691C67.3516 24.1458 70.1551 21.0953 73.694 19.143C74.6438 18.6244 75.7162 18.1821 76.8192 18.3498C77.7078 18.4871 78.4891 18.9752 79.1019 19.6006C80.5726 21.1105 81.0628 23.3679 80.9555 25.4117C80.7258 29.8349 77.6618 33.5717 74.5059 36.4239C71.3501 39.2761 67.5661 41.4419 63.491 42.7231C63.4145 42.7536 63.3379 42.7536 63.2613 42.7536H63.2612C62.725 43.7908 62.2042 44.8279 61.7139 45.8956C60.5037 48.58 59.4007 51.3102 58.3589 54.0709C58.8338 56.7705 59.2475 59.4702 59.6458 62.1699C59.8065 61.6259 59.9822 61.0893 60.1571 60.555C60.2323 60.3253 60.3074 60.096 60.3811 59.8667C60.856 58.4178 61.3463 56.9688 61.8825 55.5351C62.6178 53.5675 63.4451 51.6457 64.4255 49.785C64.5328 49.4037 64.7319 49.0376 64.9464 48.702C65.0215 48.5846 65.104 48.4746 65.1889 48.3617C65.2252 48.3133 65.262 48.2643 65.2988 48.214C65.3096 48.1924 65.3185 48.1727 65.3269 48.1542C65.3422 48.1205 65.3556 48.091 65.3754 48.0614C65.4192 47.988 65.4631 47.914 65.5072 47.8396C66.0954 46.8478 66.7228 45.7899 67.7346 45.194C68.6538 44.6602 69.8947 44.5839 70.722 45.3313C72.4224 46.8717 71.0896 49.6324 69.7721 50.8984C68.1942 52.4083 66.0035 53.1557 63.9353 53.72C63.7821 53.7658 63.6595 53.7505 63.5523 53.7048C62.9548 55.0622 62.388 56.4197 61.8825 57.8077C61.5778 58.6386 61.2988 59.4838 61.0197 60.3298C60.6532 61.4402 60.2864 62.5519 59.8603 63.6341C60.4118 67.5997 60.8867 71.5806 61.2697 75.5614C61.7446 74.509 62.2655 73.4718 62.817 72.4499C64.3949 69.491 66.2639 66.6693 68.3014 63.9849C68.2248 63.8781 68.1942 63.7561 68.2248 63.6036C69.0521 59.0889 70.9211 54.6657 74.0923 51.2797C76.7579 48.4275 80.2355 46.3532 84.0961 45.6211C85.6587 45.3313 87.635 45.1635 88.9065 46.3074C90.4232 47.6801 89.795 49.8917 89.1363 51.5237C87.7115 55.0622 84.9234 57.945 81.7675 60.0193C79.9291 61.2242 77.9529 62.1851 75.9154 63.0087C73.8778 63.8324 71.7637 64.5797 69.6036 65.0373C69.4198 65.0678 69.3125 64.961 69.2666 64.8238C68.1329 66.288 67.0452 67.798 66.0188 69.3537C64.8845 71.0895 63.8582 72.8755 62.8313 74.6625C62.3603 75.4821 61.8892 76.3019 61.4075 77.1171C61.4841 77.895 61.5607 78.6882 61.622 79.4813C62.3574 88.3124 62.725 97.174 62.771 106.036C62.9242 105.776 63.0774 105.517 63.2459 105.273C63.7974 104.434 64.3796 103.656 65.0077 102.878C66.0494 101.582 67.2137 100.392 68.4087 99.2483C68.5465 99.05 68.7151 98.867 68.9296 98.745C69.001 98.6738 69.0861 98.6027 69.1712 98.5315C69.2138 98.4959 69.2563 98.4603 69.2972 98.4247C69.4811 98.1806 69.7415 97.9976 70.0326 97.8908C70.8598 97.3875 71.779 97.174 72.4837 98.0739C73.4489 99.3093 72.2846 101.124 71.2735 101.917C70.0019 102.909 68.2555 103.061 66.8154 102.375C66.3405 102.894 65.8656 103.412 65.406 103.946C64.8392 104.602 64.2877 105.288 63.7515 105.975L63.7505 105.976C63.5057 106.296 63.2609 106.616 63.0008 106.936L62.771 107.21C62.7863 111.313 62.7404 115.401 62.6178 119.503C62.4901 123.877 62.2879 128.24 62.0289 132.602C62.3634 132.623 62.6987 132.642 63.0346 132.659C63.2544 132.197 63.478 131.737 63.7055 131.278C66.7082 125.254 70.339 119.519 74.4753 114.211C75.563 112.823 76.6967 111.465 77.8456 110.123C77.8128 109.77 77.7715 109.417 77.7303 109.064C77.6752 108.594 77.6202 108.123 77.5852 107.652C77.5443 107.042 77.5171 106.432 77.4899 105.822C77.4763 105.517 77.4626 105.212 77.4473 104.907C77.3963 103.921 77.3588 102.934 77.3214 101.948C77.3026 101.455 77.2839 100.962 77.2635 100.468C75.563 99.3398 74.7204 97.4028 74.1076 95.5267C73.3263 93.1016 72.6676 90.6002 72.3918 88.0531C71.9475 83.996 72.545 79.7101 74.8889 76.2783C75.7928 74.9513 77.6618 72.816 79.2704 74.5243C79.7882 75.0795 80.1564 75.8409 80.4947 76.5404C80.5468 76.648 80.5981 76.7542 80.6492 76.8579C81.0781 77.7425 81.4305 78.6424 81.7369 79.5575C84.0348 86.5889 83.1003 94.7794 78.5503 100.728C78.5963 102.162 78.6269 103.61 78.6576 105.059L78.6584 105.103C78.6734 105.957 78.6882 106.797 78.6882 107.637C78.6882 108.172 78.6592 108.692 78.6293 109.227L78.627 109.269C78.754 109.126 78.8811 108.982 79.0083 108.838C79.6785 108.078 80.3521 107.315 81.0475 106.585C81.5837 106.02 82.1505 105.456 82.7173 104.907C82.725 104.892 82.7326 104.873 82.7403 104.854C82.748 104.834 82.7556 104.815 82.7633 104.8C82.8399 104.693 82.8092 104.724 82.8092 104.724L82.8552 104.632V104.556C82.8705 104.51 82.8858 104.465 82.8858 104.419C82.8961 104.357 82.9064 104.303 82.9167 104.251C82.9217 104.225 82.9268 104.2 82.9318 104.175C82.8092 104.099 82.7173 103.977 82.7173 103.824C82.6407 102.558 83.0084 101.292 83.3914 100.102C83.7744 98.9433 84.2646 97.8298 84.8621 96.7622C86.0877 94.5658 87.6809 92.6136 89.5959 90.9663C93.0888 87.9616 97.6234 85.994 102.204 85.3382C103.322 85.1704 104.548 85.1551 105.574 85.7042C106.509 86.1923 107.183 87.0617 107.26 88.1293L107.244 88.1141C107.321 89.2885 106.785 90.4019 106.279 91.4239C105.835 92.3237 105.329 93.1931 104.762 94.032C102.495 97.4028 99.3392 100.148 95.7697 102.085C92.476 103.87 88.5848 105.029 84.7855 104.861C83.5446 106.066 82.3496 107.286 81.1853 108.552C78.2133 111.755 75.4711 115.157 72.928 118.71C73.7491 118.862 74.5667 119.045 75.3841 119.228C76.2902 119.43 77.196 119.633 78.1061 119.793C79.8985 120.098 81.7062 120.327 83.5139 120.48C83.7897 119.641 84.4025 118.954 85 118.329C85.6281 117.673 86.3175 117.078 87.0528 116.544C88.5082 115.523 90.1321 114.76 91.8479 114.302C93.3799 113.875 94.9731 113.723 96.5664 113.83C98.1137 113.936 99.7988 114.257 101.116 115.126C102.526 116.072 103.077 117.826 101.898 119.198C100.806 120.487 98.8713 120.76 97.2117 120.994C96.9854 121.026 96.7643 121.057 96.551 121.09C92.4147 121.73 88.2018 121.898 84.0348 121.578H84.0042C84.8774 121.791 85.72 122.035 86.5626 122.34C88.2937 122.981 89.9636 123.835 91.4955 124.872C92.2918 125.409 93.1481 126.04 93.9522 126.757ZM92.6176 127.35C91.5646 126.467 90.4441 125.679 89.2435 125.025C87.9567 124.323 86.6085 123.744 85.2144 123.301C84.4322 123.054 83.6299 122.897 82.8318 122.741C82.6452 122.704 82.4589 122.668 82.273 122.63C82.5662 122.922 82.8378 123.235 83.1027 123.541C83.2254 123.682 83.3467 123.822 83.468 123.957L85.1225 125.787C85.6281 126.352 86.1183 126.931 86.5473 127.572V127.587C86.5797 127.636 86.6162 127.688 86.6552 127.745C86.9663 128.195 87.4372 128.876 87.261 129.387C89.0828 128.783 90.8696 128.103 92.6176 127.35ZM86.8367 129.526C86.0417 129.783 85.2402 130.026 84.4323 130.254C83.425 128.097 82.7348 125.819 82.1045 123.53C82.1784 123.613 82.2522 123.695 82.3256 123.776C82.4805 123.948 82.6331 124.117 82.7786 124.293L82.7787 124.293C83.3302 124.918 83.8817 125.543 84.4178 126.169C84.8927 126.718 85.3523 127.282 85.7506 127.877C85.9651 128.182 86.1489 128.502 86.3328 128.838C86.3499 128.87 86.3668 128.903 86.3838 128.936C86.499 129.161 86.6191 129.394 86.8367 129.526ZM83.3718 130.544C77.9458 131.978 72.2474 132.741 66.3707 132.741C65.7201 132.741 65.0717 132.732 64.4256 132.713C65.8817 129.843 67.4549 127.032 69.1593 124.308C69.956 123.027 70.7986 121.776 71.6565 120.541C71.7331 120.586 71.8097 120.617 71.9016 120.632C73.6327 120.815 75.3332 121.074 77.049 121.379C77.8763 121.532 78.6882 121.684 79.5002 121.868C79.6101 121.893 79.7213 121.919 79.8333 121.946C80.1269 122.016 80.4263 122.087 80.7257 122.142C80.787 122.203 80.8483 122.264 80.9402 122.295C80.9709 122.295 81.0168 122.31 81.0475 122.325C81.216 123.896 81.5837 125.452 82.0433 126.962C82.413 128.174 82.8522 129.379 83.3718 130.544ZM72.2897 59.1466C73.2045 58.0977 74.1498 57.0138 75.2566 56.2215L75.226 56.2062C75.7775 55.8096 76.4822 56.4807 76.0685 57.0298C75.6735 57.5577 75.2008 58.0294 74.7272 58.5021C74.5029 58.7259 74.2783 58.95 74.0617 59.1804C73.4029 59.8668 72.7595 60.5683 72.1314 61.2852C71.2581 62.2766 70.4309 63.2833 69.6189 64.3204C70.6415 63.8885 71.6875 63.5112 72.7353 63.1333C73.7596 62.7639 74.7856 62.3938 75.7928 61.9716C77.861 61.1022 79.8678 60.0956 81.7062 58.7991C84.5557 56.801 87.0222 54.1319 88.2631 50.8526C88.5695 50.0137 88.8912 49.0833 88.7686 48.1834C88.6461 47.3141 88.0179 46.765 87.1754 46.5514C85.5974 46.1549 83.7591 46.6582 82.2577 47.1616C75.563 49.4494 71.3041 55.5351 69.7109 62.1699C70.339 61.392 70.9824 60.6141 71.6565 59.8667C71.867 59.6313 72.0775 59.3899 72.2897 59.1466ZM65.3754 30.0789C64.4868 32.016 63.8434 34.0598 63.4144 36.1494H63.3991C63.1051 37.5864 62.9626 39.0235 62.8192 40.4706C62.7982 40.6823 62.7772 40.8942 62.7557 41.1064C63.5676 39.4896 64.4409 37.8881 65.406 36.3629C65.7737 35.7985 66.7848 36.3629 66.4477 36.9577C65.6664 38.3304 64.9005 39.7184 64.1498 41.1064C67.8725 39.7489 71.3041 37.6746 74.1842 34.9597C77.0337 32.2905 79.7759 28.752 79.7147 24.6643C79.684 22.9256 79.1019 20.7445 77.4933 19.7988C75.8051 18.8084 73.7166 20.328 72.3511 21.3214L72.2846 21.3698C69.2359 23.5814 66.938 26.6776 65.3754 30.0789ZM54.7894 37.3085C54.9886 38.0406 55.1724 38.7727 55.3563 39.5048C55.4022 39.5201 55.4482 39.5392 55.4942 39.5582C55.5401 39.5773 55.5861 39.5964 55.632 39.6116C55.7086 39.6421 55.7699 39.6726 55.8158 39.7184C55.911 38.8274 56.0326 37.9363 56.1542 37.0442C56.3262 35.7831 56.4984 34.5199 56.5971 33.2514C56.7963 30.7958 56.7503 28.3097 56.2601 25.8998C55.5707 22.5138 53.9468 19.1582 51.2199 16.9467C50.5305 16.3976 49.7952 15.9095 48.9986 15.5434C48.2019 15.1774 47.1449 14.8418 46.4708 15.6197C45.9806 16.1688 45.858 16.9771 45.7967 17.6787C45.6895 18.6854 45.6895 19.7073 45.6895 20.714C45.6742 24.8321 46.1644 29.0875 48.0794 32.7938C49.5041 35.5545 51.7408 37.9186 54.5749 39.1998C54.4856 38.774 54.3978 38.3496 54.31 37.9257C54.1118 36.9681 53.9141 36.0133 53.7017 35.0512C53.6404 34.7766 54.0847 34.6546 54.1766 34.9139C54.1919 34.9292 54.1919 34.9749 54.1919 34.9749C54.3636 35.5089 54.4977 36.0504 54.631 36.5889C54.6881 36.8194 54.745 37.0494 54.8047 37.278C54.8047 37.3085 54.7894 37.3085 54.7894 37.3085ZM53.8702 55.3673C54.8201 56.4197 55.6933 57.5484 56.4746 58.7381H56.4899C56.6125 58.9211 56.7197 59.1041 56.8269 59.2871C56.398 55.5961 55.0958 52.0423 52.5681 49.2664C50.2548 46.7192 47.0989 44.95 43.7132 44.2941C43.6617 44.284 43.6073 44.2731 43.5503 44.2618C42.3207 44.0166 39.9001 43.534 39.2705 44.9042C38.9182 45.6668 39.2858 46.6124 39.5769 47.314C39.8833 48.0614 40.251 48.7936 40.6493 49.4952C43.652 54.7115 49.213 58.311 55.2031 58.9669C54.5137 57.9907 53.763 57.0603 52.9664 56.1909C52.5068 55.7028 52.0319 55.2148 51.5416 54.7572C51.4395 54.6623 51.3283 54.5674 51.2147 54.4705C50.8172 54.1313 50.3909 53.7675 50.2241 53.293C50.1016 52.9879 50.3314 52.6066 50.6837 52.6676C51.2977 52.7763 51.7659 53.2358 52.2072 53.6691C52.2615 53.7223 52.3153 53.7751 52.3689 53.8268C52.8898 54.3149 53.3953 54.8335 53.8702 55.3673ZM54.1873 123.454C54.2502 123.635 54.3123 123.814 54.3758 123.988L54.3605 123.972C54.3758 124.01 54.3873 124.049 54.3988 124.087C54.4103 124.125 54.4217 124.163 54.4371 124.201C54.4217 123.042 54.3605 121.883 54.1919 120.724C53.9315 118.97 53.4566 117.246 52.7979 115.584C51.6336 112.625 49.8411 109.879 47.5279 107.698C46.9763 107.18 46.1491 106.417 45.3371 106.844C44.7856 107.134 44.5099 107.851 44.372 108.415C44.035 109.803 44.1115 111.359 44.2801 112.762C44.9695 118.497 48.5543 123.744 53.717 126.397C53.5026 125.772 53.2881 125.147 53.0583 124.537C52.9782 124.318 52.8895 124.093 52.7993 123.866C52.4752 123.047 52.1324 122.181 52.1085 121.334C52.1085 120.861 52.6446 120.571 52.9817 120.968C53.5647 121.662 53.8856 122.585 54.1873 123.454ZM87.16 118.054C86.6085 118.497 86.103 118.97 85.6434 119.503L85.6587 119.488C85.5526 119.604 85.4538 119.728 85.3572 119.849C85.3144 119.902 85.2721 119.955 85.2298 120.007C85.5668 119.763 85.9038 119.549 86.2562 119.336C86.9456 118.939 87.6503 118.573 88.3856 118.268C89.1363 117.948 89.9329 117.719 90.7295 117.521C91.1432 117.414 91.5721 117.338 92.0011 117.292L92.037 117.287C92.3661 117.242 92.7478 117.19 93.0582 117.322C93.196 117.399 93.242 117.612 93.1041 117.704C92.8673 117.877 92.5798 117.92 92.2911 117.963C92.2249 117.972 92.1587 117.982 92.093 117.993L92.0894 117.994C91.6923 118.07 91.2952 118.146 90.8981 118.237C90.1321 118.42 89.3814 118.649 88.6461 118.924C87.8954 119.198 87.1754 119.519 86.486 119.9C86.103 120.098 85.7353 120.312 85.3676 120.541C85.3523 120.556 85.3332 120.567 85.314 120.579C85.2949 120.59 85.2757 120.602 85.2604 120.617C88.7839 120.785 92.3075 120.617 95.8004 120.098C96.7655 119.961 97.7 119.793 98.6499 119.595C99.4771 119.427 100.412 119.214 101.009 118.543C102.265 117.124 100.442 115.95 99.2167 115.553C96.5204 114.684 93.4871 114.912 90.8674 115.919C89.5346 116.438 88.2784 117.155 87.16 118.054ZM78.4006 95.8168C78.4448 97.0369 78.4891 98.257 78.5197 99.4771L78.5044 99.4924V99.9194C80.2815 96.8079 81.3692 93.3456 81.7369 89.7918C82.0892 86.4058 81.7215 82.913 80.5879 79.6948C80.3274 78.9169 80.0057 78.1543 79.6534 77.4069C79.6049 77.3036 79.5558 77.1957 79.5054 77.0852C79.2214 76.4618 78.8986 75.7533 78.4431 75.2869C77.1869 74.0057 75.18 77.8035 74.7817 78.6576C73.1118 82.1809 73.0659 86.1466 73.7553 89.9139C74.1229 91.8967 74.6591 93.8642 75.3332 95.7555C75.7622 96.9299 76.3137 98.1044 77.2022 98.9738C77.1716 98.1197 77.1448 97.2655 77.118 96.4114C77.0911 95.5572 77.0643 94.7031 77.0337 93.849L76.9418 91.2104C76.9403 91.166 76.9388 91.1217 76.9372 91.0775C76.9074 90.2095 76.8785 89.3684 77.1409 88.5412C77.2482 88.2209 77.7384 88.2514 77.861 88.5412C78.1837 89.3736 78.2114 90.234 78.2401 91.1223C78.2414 91.1618 78.2427 91.2013 78.244 91.2408L78.3359 93.9862C78.3563 94.5964 78.3784 95.2066 78.4006 95.8168ZM103.935 93.1169C104.441 92.339 104.9 91.5306 105.299 90.6917V90.7223C105.322 90.6739 105.345 90.6244 105.37 90.5738C105.782 89.7147 106.341 88.5487 105.835 87.6413C105.329 86.7414 104.15 86.5584 103.2 86.6194C102.127 86.6956 101.04 86.9397 99.998 87.199C95.9383 88.2209 92.0317 90.2799 89.1057 93.3151C87.6962 94.7794 86.5013 96.4419 85.6128 98.2721C85.1685 99.1873 84.8008 100.133 84.5097 101.094C84.387 101.525 84.2915 101.96 84.1959 102.395C84.0887 102.883 83.9814 103.371 83.8357 103.855C83.9736 103.717 84.1077 103.58 84.2417 103.443C84.3757 103.305 84.5098 103.168 84.6476 103.031C84.7053 102.976 84.7629 102.92 84.8205 102.865C85.9849 101.748 87.1221 100.657 88.5235 99.8431C88.9678 99.5686 89.412 100.24 89.121 100.606C88.3175 101.636 87.3591 102.522 86.3998 103.409C86.152 103.638 85.904 103.867 85.6587 104.099C89.2895 103.595 92.7824 102.589 95.9842 100.682C99.1707 98.806 101.913 96.1979 103.935 93.1169Z" fill="#BC8383"/>
</svg>
