<svg width="86" height="85" viewBox="0 0 86 85" fill="none" xmlns="http://www.w3.org/2000/svg">
<circle cx="43.0972" cy="42.5" r="42.5" fill="#BC8383"/>
<path d="M62.3852 41.8264V43.4718C62.383 47.3284 61.1342 51.0811 58.825 54.17C56.5158 57.259 53.2699 59.5187 49.5715 60.6122C45.8731 61.7057 41.9203 61.5744 38.3026 60.2378C34.6849 58.9013 31.5962 56.4311 29.4971 53.1957C27.398 49.9603 26.401 46.1331 26.6547 42.2848C26.9085 38.4365 28.3994 34.7733 30.9052 31.8415C33.411 28.9098 36.7973 26.8666 40.5591 26.0166C44.321 25.1667 48.2568 25.5556 51.7796 27.1252" stroke="#F0DDDD" stroke-width="2" stroke-linecap="round" stroke-linejoin="round"/>
<path d="M62.385 29.1538L44.5004 47.0384L39.135 41.6784" stroke="#F0DDDD" stroke-width="2" stroke-linecap="round" stroke-linejoin="round"/>
</svg>
