<svg width="86" height="85" viewBox="0 0 86 85" fill="none" xmlns="http://www.w3.org/2000/svg">
<circle cx="43.2314" cy="42.5" r="42.5" fill="#BC8383"/>
<path d="M41.6589 29.8066H28.5339C27.5394 29.8066 26.5855 30.1835 25.8823 30.8543C25.179 31.5251 24.7839 32.4349 24.7839 33.3836V58.422C24.7839 59.3707 25.179 60.2805 25.8823 60.9513C26.5855 61.6221 27.5394 61.999 28.5339 61.999H54.7839C55.7785 61.999 56.7323 61.6221 57.4356 60.9513C58.1389 60.2805 58.5339 59.3707 58.5339 58.422V45.9028" stroke="#F0DDDD" stroke-width="2" stroke-linecap="round" stroke-linejoin="round"/>
<path d="M55.7214 27.1239C56.4674 26.4124 57.479 26.0127 58.5339 26.0127C59.5888 26.0127 60.6005 26.4124 61.3464 27.1239C62.0924 27.8354 62.5114 28.8004 62.5114 29.8066C62.5114 30.8128 62.0924 31.7778 61.3464 32.4893L43.5339 49.4797L36.0339 51.2681L37.9089 44.1143L55.7214 27.1239Z" stroke="#F0DDDD" stroke-width="2" stroke-linecap="round" stroke-linejoin="round"/>
</svg>
