<svg width="150" height="150" viewBox="0 0 150 150" fill="none" xmlns="http://www.w3.org/2000/svg">
<path fill-rule="evenodd" clip-rule="evenodd" d="M117.545 78.3809C118.598 78.9324 119.358 79.9148 119.445 81.1213L119.428 81.1041C119.514 82.4312 118.909 83.6894 118.339 84.8442C117.838 85.8611 117.268 86.8435 116.629 87.7914C114.072 91.6004 110.513 94.7028 106.488 96.8917C102.774 98.9082 98.3859 100.218 94.1016 100.029C92.7023 101.39 91.3548 102.769 90.0418 104.2C86.6904 107.819 83.598 111.662 80.7303 115.678C81.6562 115.85 82.5782 116.057 83.4999 116.263C84.5217 116.492 85.5432 116.721 86.5694 116.902C88.5907 117.247 90.6292 117.505 92.6677 117.678C92.9787 116.73 93.6697 115.954 94.3434 115.247C95.0517 114.506 95.8291 113.834 96.6584 113.231C98.2996 112.076 100.131 111.214 102.066 110.697C103.793 110.215 105.59 110.042 107.387 110.163C109.131 110.284 111.032 110.646 112.517 111.628C114.107 112.697 114.729 114.679 113.398 116.23C112.167 117.686 109.986 117.994 108.114 118.259C107.859 118.295 107.61 118.33 107.369 118.367C102.705 119.091 97.954 119.281 93.2551 118.919H93.2205C94.2052 119.16 95.1554 119.436 96.1056 119.78C98.0577 120.504 99.9407 121.469 101.668 122.641C104.501 124.555 108.008 127.536 108.216 131.225C108.423 134.792 105.072 137.326 101.686 137.136C97.7986 136.93 94.9654 133.844 93.2723 130.639C92.3395 128.846 91.5966 126.933 91.0092 125.003C90.491 123.296 90.0764 121.538 89.8863 119.763C89.8518 119.746 89.8 119.729 89.7654 119.729C89.6618 119.694 89.5927 119.625 89.5236 119.556C89.1858 119.494 88.8481 119.413 88.5169 119.335C88.3907 119.304 88.2655 119.275 88.1415 119.246C87.2259 119.039 86.3103 118.867 85.3774 118.695C83.4425 118.35 81.5249 118.057 79.5728 117.85C79.4692 117.833 79.3828 117.798 79.2964 117.747C78.329 119.143 77.3788 120.556 76.4805 122.004C74.5111 125.158 72.6971 128.415 71.0214 131.742C70.4051 132.959 69.8162 134.194 69.2282 135.428C69.0086 135.889 68.7891 136.35 68.5683 136.809C68.4733 137.007 68.3826 137.205 68.2919 137.404C68.2012 137.602 68.1105 137.8 68.0154 137.998C67.739 141.867 67.4243 145.729 67.0732 149.586C69.2313 149.813 71.4168 149.948 73.6255 149.988C73.9655 148.984 74.2751 147.969 74.5629 146.943C74.321 147.167 73.9928 146.943 73.9237 146.668V146.633C73.9064 146.599 73.8719 146.599 73.8719 146.599C72.4207 144.892 70.8832 142.841 71.5742 140.48C72.0407 138.912 73.82 137.86 75.4094 138.515C77.2988 139.305 76.773 141.585 76.4 143.202C76.374 143.315 76.3487 143.425 76.325 143.531C75.8192 145.734 75.1901 147.889 74.4413 149.998C74.6274 149.999 74.8136 150 75 150C75.572 150 76.1425 149.994 76.7114 149.981C78.2361 148.469 79.8234 147.024 81.4731 145.651L81.525 145.616C81.5336 145.599 81.5466 145.582 81.5595 145.565C81.5725 145.547 81.5854 145.53 81.5941 145.513C81.6804 145.392 81.8186 145.323 81.9396 145.289C83.5635 143.944 85.2565 142.652 87.0013 141.462C88.798 140.239 91.3893 138.981 93.2033 140.894C94.6026 142.359 94.4644 144.686 93.877 146.461C93.7291 146.903 93.5443 147.332 93.3279 147.744C125.89 139.566 150 110.099 150 75C150 33.5786 116.421 0 75 0C69.5445 0 64.225 0.582493 59.1003 1.68868C61.372 4.4119 62.7596 7.85625 63.2819 11.3351C63.6966 14.11 63.6274 16.9366 63.3338 19.7115C63.0228 22.5037 62.5218 25.2958 61.6926 27.9846C61.6408 28.1569 61.4334 28.1397 61.3298 28.0363C62.3318 32.2934 63.2301 36.585 64.0075 40.8939C64.8367 38.1879 65.8214 35.5336 66.9616 32.9139C67.4454 31.7936 67.9636 30.656 68.4992 29.5357C68.2919 26.6402 68.7237 23.624 69.3457 20.8146C69.9503 18.0397 70.8659 15.2993 72.248 12.8002C74.442 8.81878 77.6034 5.37171 81.5941 3.16557C82.6651 2.57957 83.8744 2.07971 85.1183 2.2693C86.1203 2.42442 87.0013 2.97596 87.6923 3.68261C89.3508 5.38892 89.9036 7.93976 89.7827 10.2493C89.5236 15.2476 86.0684 19.4703 82.5097 22.6933C78.9509 25.9163 74.6838 28.3637 70.0885 29.8115C70.0022 29.846 69.9158 29.846 69.8295 29.846H69.8294C69.2247 31.018 68.6374 32.19 68.0845 33.3964C66.7198 36.4299 65.4759 39.515 64.3012 42.6347C64.8367 45.6853 65.3032 48.736 65.7523 51.7867C65.9336 51.1719 66.1317 50.5656 66.329 49.9618C66.4138 49.7023 66.4985 49.4432 66.5816 49.1841C67.1171 47.5467 67.6699 45.9094 68.2746 44.2892C69.1038 42.0659 70.0367 39.8942 71.1423 37.7915C71.2633 37.3606 71.4878 36.9469 71.7297 36.5678C71.8144 36.435 71.9075 36.3108 72.0031 36.1831C72.0441 36.1284 72.0856 36.0731 72.127 36.0163C72.1393 35.9918 72.1493 35.9696 72.1588 35.9487C72.176 35.9107 72.1911 35.8773 72.2134 35.8439C72.2628 35.761 72.3123 35.6773 72.362 35.5933C73.0254 34.4725 73.7328 33.277 74.8739 32.6036C75.9104 32.0004 77.3097 31.9142 78.2426 32.7587C80.1602 34.4995 78.6572 37.6191 77.1715 39.0497C75.3921 40.756 72.9217 41.6005 70.5895 42.2382C70.4167 42.2899 70.2785 42.2727 70.1576 42.221C69.4839 43.7549 68.8447 45.2889 68.2746 46.8573C67.931 47.7963 67.6164 48.7514 67.3016 49.7073C66.8884 50.9622 66.4747 52.2184 65.9942 53.4412C66.6161 57.9225 67.1517 62.4209 67.5836 66.9193C68.1191 65.7301 68.7065 64.5581 69.3284 63.4033C71.1078 60.0596 73.2154 56.8711 75.513 53.8377C75.4267 53.717 75.3921 53.5791 75.4267 53.4068C76.3596 48.3051 78.4672 43.3068 82.0432 39.4805C85.0492 36.2575 88.9707 33.9135 93.3242 33.0862C95.0863 32.7588 97.3148 32.5692 98.7487 33.8618C100.459 35.413 99.7507 37.9121 99.0078 39.7563C97.4012 43.7549 94.2571 47.0124 90.6983 49.3565C88.6252 50.7181 86.3967 51.8039 84.099 52.7346C81.8014 53.6653 79.4173 54.5099 76.9815 55.0269C76.7742 55.0614 76.6532 54.9407 76.6014 54.7856C75.323 56.4402 74.0965 58.1465 72.939 59.9045C71.6599 61.866 70.5026 63.8842 69.3446 65.9035C68.8135 66.8296 68.2822 67.7561 67.739 68.6773C67.8254 69.5564 67.9118 70.4526 67.9809 71.3489C68.8101 81.3282 69.2247 91.3419 69.2766 101.356C69.4493 101.063 69.6221 100.77 69.8121 100.494C70.434 99.546 71.0905 98.667 71.7988 97.788C72.9735 96.323 74.2865 94.9786 75.634 93.6859C75.7895 93.4619 75.9795 93.255 76.2214 93.1171C76.302 93.0367 76.3979 92.9563 76.4939 92.8759C76.5419 92.8357 76.5899 92.7954 76.636 92.7552C76.8433 92.4795 77.137 92.2726 77.4652 92.152C78.3981 91.5832 79.4346 91.3419 80.2293 92.3588C81.3176 93.7549 80.0047 95.8059 78.8645 96.7021C77.4306 97.8224 75.4612 97.9948 73.8373 97.2192C73.3018 97.8052 72.7662 98.3912 72.248 98.9944C71.6088 99.7356 70.9868 100.511 70.3822 101.287L70.3813 101.288C70.1052 101.65 69.829 102.011 69.5357 102.373L69.2766 102.683C69.2938 107.319 69.242 111.938 69.1038 116.575C68.931 122.504 68.6374 128.415 68.2573 134.327C68.9138 132.828 69.6048 131.345 70.3304 129.88C73.7164 123.072 77.8107 116.592 82.4751 110.594C83.7017 109.025 84.9801 107.492 86.2757 105.975C86.2387 105.576 86.1922 105.177 86.1457 104.778C86.0836 104.246 86.0216 103.715 85.9821 103.183C85.936 102.493 85.9053 101.804 85.8746 101.114C85.8592 100.77 85.8438 100.425 85.8266 100.08C85.769 98.9655 85.7267 97.8508 85.6845 96.7361C85.6634 96.179 85.6423 95.6219 85.6193 95.0648C83.7017 93.7893 82.7515 91.6005 82.0605 89.4805C81.1794 86.7401 80.4366 83.9135 80.1256 81.0352C79.6246 76.4505 80.2984 71.6074 82.9416 67.7294C83.9608 66.2299 86.0684 63.817 87.8824 65.7474C88.4663 66.3747 88.8815 67.2351 89.263 68.0256C89.3217 68.1472 89.3796 68.2672 89.4372 68.3844C89.9209 69.384 90.3182 70.4009 90.6637 71.435C93.2551 79.3805 92.2013 88.636 87.0704 95.3578C87.1222 96.9779 87.1568 98.6153 87.1913 100.253L87.1922 100.301C87.2092 101.267 87.2259 102.216 87.2259 103.165C87.2259 103.77 87.1931 104.358 87.1595 104.961L87.1568 105.01C87.3001 104.847 87.4434 104.685 87.5868 104.522C88.3426 103.664 89.1022 102.802 89.8863 101.976C90.491 101.338 91.1302 100.701 91.7694 100.08C91.778 100.063 91.7867 100.041 91.7953 100.02C91.8039 99.9984 91.8126 99.9768 91.8212 99.9596C91.9076 99.839 91.873 99.8735 91.873 99.8735L91.9249 99.77V99.6839C91.9421 99.6322 91.9594 99.5804 91.9594 99.5287C91.9766 99.4258 91.9938 99.3399 92.011 99.2542L92.0112 99.253C91.873 99.1668 91.7694 99.0289 91.7694 98.8566C91.683 97.426 92.0976 95.9955 92.5295 94.6511C92.9614 93.3412 93.5142 92.083 94.188 90.8766C95.57 88.3947 97.3667 86.1886 99.5261 84.3271C103.465 80.9318 108.579 78.7084 113.744 77.9673C115.005 77.7777 116.387 77.7604 117.545 78.3809ZM50.0152 4.26226C52.5075 3.38199 55.0601 2.6297 57.6654 2.01328C59.8986 4.42856 61.2846 7.60266 61.9344 10.8008C62.4873 13.524 62.5391 16.3334 62.3145 19.1083C62.2032 20.5417 62.0089 21.9692 61.815 23.3942C61.6778 24.4023 61.5408 25.4092 61.4334 26.4161C61.3816 26.3644 61.3125 26.3299 61.2261 26.2955C61.1743 26.2782 61.1225 26.2567 61.0707 26.2351C61.0188 26.2136 60.967 26.192 60.9152 26.1748C60.7079 25.3475 60.5006 24.5202 60.276 23.6929C60.276 23.6929 60.2933 23.6929 60.2933 23.6585C60.2259 23.4001 60.1617 23.1402 60.0973 22.8796C59.947 22.2711 59.7958 21.6593 59.6022 21.0559C59.6022 21.0559 59.6022 21.0042 59.585 20.987C59.4813 20.694 58.9803 20.8319 59.0494 21.1421C59.2889 22.2294 59.5119 23.3084 59.7354 24.3906C59.8344 24.8695 59.9334 25.349 60.0341 25.8301C56.8381 24.3824 54.3159 21.7108 52.7093 18.5912C50.5498 14.403 49.997 9.59438 50.0143 4.94082C50.0143 4.71522 50.0143 4.48895 50.0152 4.26226ZM48.6261 4.76846C48.5888 9.05391 49.0426 13.4031 50.6362 17.3848C52.4156 21.7971 55.8016 25.7784 60.3451 27.4503C61.4162 32.7932 62.3836 38.1707 63.2301 43.5481L63.1783 43.7549C63.1437 43.8928 63.2128 43.9962 63.3165 44.0652C63.7311 46.7022 64.1112 49.3565 64.4739 51.9935C64.0766 51.1489 63.6274 50.3217 63.161 49.5288V49.5116C63.6274 45.151 62.0899 40.7215 59.4468 37.2572C56.8209 33.8274 52.9684 31.4316 48.7704 30.3975C46.9738 29.9666 44.4861 29.4323 42.7585 30.3458C40.6855 31.4489 41.1346 33.8618 41.8948 35.6543C43.4323 39.3082 46.0063 42.4967 49.1678 44.9097C52.7093 47.6329 57.0282 49.3392 61.5025 49.6667H61.5027C61.589 49.6667 61.6581 49.6667 61.7271 49.6322C62.3145 50.5629 62.8673 51.5109 63.351 52.5105C63.6354 53.0862 63.8995 53.6781 64.1629 54.2685C64.4437 54.8977 64.7237 55.5253 65.0268 56.13C65.4068 59.3013 65.7696 62.4899 66.0633 65.6957C66.6852 72.3485 67.0826 79.0359 67.3417 85.7232C67.2467 85.4216 67.156 85.1201 67.0654 84.8185C66.9746 84.5168 66.8839 84.2151 66.7889 83.9134C66.0806 81.828 65.2859 79.7942 64.3876 77.7776C62.7464 74.1065 60.8461 70.4354 58.1856 67.3675C56.9072 65.9025 55.4561 64.5064 53.7976 63.4895C52.2428 62.5243 50.2907 61.8004 48.4595 62.3692C46.7492 62.9035 45.7472 64.5581 45.6781 66.2989C45.609 68.0396 46.3519 69.6943 47.5611 70.9524C50.999 74.5202 56.1644 74.1755 60.6906 73.6584C60.7252 73.6584 60.7597 73.6431 60.7943 73.6278C60.8115 73.6201 60.8288 73.6124 60.8461 73.6067C61.6753 75.02 62.4182 76.4677 63.1265 77.9328C64.0593 79.8804 64.9058 81.8624 65.666 83.879C66.0633 84.9304 66.4261 85.9817 66.7716 87.0331L66.8753 87.395C65.5623 86.3609 64.1112 85.5508 62.5736 84.982C62.4182 84.7752 62.159 84.6718 61.9172 84.7752C60.1551 84.2064 58.2893 83.9307 56.389 83.9651C54.6614 83.9996 51.4654 84.2065 51.4309 86.585C51.3963 88.7222 54.1777 88.8428 55.6979 88.7221C58.0993 88.5325 60.4315 87.5502 62.3145 86.0507L62.3149 86.0508C62.3838 86.068 62.4528 86.0852 62.5045 86.1196C64.1803 86.7228 65.8042 87.5502 67.2553 88.5843C67.3244 88.8254 67.4107 89.0665 67.497 89.3077L67.4972 89.3081C67.7045 96.5987 67.7218 103.889 67.5663 111.18C67.3762 120.763 66.8753 130.346 66.1497 139.911C66.0417 140.235 65.9504 140.566 65.8583 140.9C65.8179 141.047 65.7773 141.194 65.7351 141.342C65.0613 138.412 64.3012 135.516 63.4547 132.621C62.7291 130.156 61.9517 127.691 61.1225 125.261C60.967 124.796 60.7943 124.313 60.6215 123.848C61.3125 120.073 60.6906 115.971 59.4122 112.404C58.082 108.663 55.9225 105.234 53.0721 102.459C52.3465 101.752 51.5173 101.028 50.4634 100.925C49.6342 100.839 48.8741 101.183 48.3213 101.787C47.1465 103.096 47.0774 105.13 47.0774 106.802C47.0947 110.508 48.1485 114.144 49.997 117.35C52.1046 120.97 55.1797 124.003 58.9803 125.83C59.2222 125.951 59.4295 125.899 59.6022 125.778L59.6368 125.899C60.4487 128.243 61.2261 130.621 61.9863 133C63.2819 137.119 64.4912 141.29 65.666 145.461C65.5537 146.768 65.4364 148.074 65.3168 149.381C28.4694 144.631 0 113.14 0 75C0 42.8602 20.2162 15.4422 48.6261 4.76846ZM80.0105 48.3703C81.0422 47.185 82.1081 45.9603 83.3562 45.0649L83.3216 45.0476C83.9435 44.5995 84.7382 45.3579 84.2718 45.9783C83.8263 46.5748 83.2933 47.1078 82.7592 47.642C82.5062 47.8949 82.253 48.1482 82.0087 48.4085C81.2658 49.1841 80.5402 49.9769 79.8319 50.787C78.8472 51.9073 77.9144 53.0448 76.9987 54.2169C78.1519 53.7288 79.3315 53.3024 80.513 52.8754C81.6681 52.4579 82.825 52.0397 83.9608 51.5626C86.293 50.5802 88.5561 49.4427 90.6292 47.9776C93.8424 45.7198 96.6238 42.7036 98.0231 38.998C98.3686 38.05 98.7314 36.9986 98.5932 35.9818C98.455 34.9993 97.7467 34.3789 96.7966 34.1376C95.0172 33.6894 92.9441 34.2582 91.2511 34.827C83.7017 37.4123 78.8991 44.2893 77.1024 51.7867C77.8107 50.9076 78.5363 50.0286 79.2964 49.1841C79.5338 48.918 79.7712 48.6452 80.0105 48.3703ZM72.2134 15.5233C71.2114 17.7122 70.4859 20.0218 70.0021 22.383H69.9849C69.6533 24.0069 69.4927 25.6308 69.3309 27.2661C69.3072 27.5053 69.2835 27.7448 69.2593 27.9846C70.1749 26.1576 71.1596 24.3479 72.248 22.6243C72.6626 21.9866 73.8028 22.6243 73.4227 23.2965C72.5416 24.8477 71.6779 26.4161 70.8314 27.9846C75.0293 26.4506 78.8991 24.1066 82.1469 21.0387C85.3601 18.0225 88.4525 14.0239 88.3834 9.40478C88.3488 7.43995 87.6923 4.97528 85.8784 3.90668C83.9747 2.78747 81.6195 4.50464 80.0797 5.62729L80.0047 5.68193C76.5669 8.18106 73.9755 11.6798 72.2134 15.5233ZM59.2394 44.0997C60.3105 45.2889 61.2952 46.5643 62.1763 47.9087H62.1936C62.3318 48.1155 62.4527 48.3223 62.5736 48.5291C62.0899 44.3582 60.6215 40.3424 57.771 37.2055C55.1624 34.3272 51.6036 32.3279 47.7857 31.5868C47.7276 31.5753 47.6662 31.563 47.602 31.5502C46.2155 31.2732 43.4858 30.7278 42.7758 32.2762C42.3785 33.1379 42.7931 34.2065 43.1213 34.9993C43.4668 35.8439 43.8815 36.6712 44.3306 37.464C47.7166 43.3585 53.9877 47.4261 60.7424 48.1672C59.965 47.0641 59.1185 46.0128 58.2202 45.0303C57.7019 44.4788 57.1664 43.9273 56.6136 43.4102C56.4984 43.303 56.373 43.1957 56.2449 43.0862C55.7967 42.7029 55.316 42.2918 55.1279 41.7556C54.9897 41.4109 55.2488 40.98 55.6461 41.049C56.3385 41.1718 56.8664 41.691 57.3641 42.1806C57.4253 42.2408 57.486 42.3004 57.5464 42.3589C58.1338 42.9104 58.7039 43.4964 59.2394 44.0997ZM59.597 121.039C59.6679 121.243 59.738 121.445 59.8095 121.642L59.7923 121.625C59.8095 121.668 59.8225 121.711 59.8355 121.754C59.8484 121.797 59.8614 121.84 59.8786 121.883C59.8614 120.573 59.7923 119.263 59.6022 117.953C59.3085 115.971 58.773 114.024 58.0302 112.145C56.7172 108.801 54.696 105.699 52.0874 103.234C51.4654 102.648 50.5326 101.787 49.6169 102.269C48.995 102.597 48.6841 103.407 48.5286 104.044C48.1485 105.613 48.2349 107.371 48.4249 108.956C49.2023 115.437 53.2448 121.366 59.0667 124.365L59.0665 124.364C58.8247 123.658 58.5829 122.951 58.3238 122.262C58.2336 122.015 58.1335 121.761 58.0318 121.504C57.6663 120.579 57.2798 119.6 57.2528 118.643C57.2528 118.109 57.8574 117.781 58.2375 118.229C58.8949 119.013 59.2568 120.057 59.597 121.039ZM96.7793 114.937C96.1574 115.437 95.5873 115.971 95.069 116.575L95.0863 116.557C94.9666 116.689 94.8552 116.828 94.7463 116.965C94.6981 117.025 94.6503 117.085 94.6026 117.143C94.9826 116.868 95.3627 116.626 95.76 116.385C96.5374 115.937 97.3321 115.523 98.1613 115.179C99.0078 114.817 99.9062 114.558 100.805 114.334C101.271 114.213 101.755 114.127 102.238 114.075L102.279 114.07C102.65 114.019 103.08 113.96 103.43 114.11C103.586 114.196 103.638 114.437 103.482 114.541C103.215 114.737 102.891 114.785 102.565 114.833C102.491 114.844 102.416 114.855 102.342 114.868L102.339 114.869C101.891 114.955 101.443 115.041 100.995 115.144C100.131 115.351 99.2843 115.609 98.455 115.92C97.6085 116.23 96.7966 116.592 96.0192 117.023C95.5873 117.247 95.1727 117.488 94.758 117.747C94.7408 117.764 94.7192 117.777 94.6976 117.79C94.676 117.803 94.6544 117.816 94.6371 117.833C98.6105 118.022 102.584 117.833 106.523 117.247C107.611 117.092 108.665 116.902 109.736 116.678C110.669 116.488 111.723 116.247 112.396 115.489C113.813 113.886 111.757 112.559 110.375 112.111C107.335 111.128 103.914 111.387 100.96 112.524C99.457 113.11 98.0404 113.92 96.7793 114.937ZM94.4816 123.676C95.0517 124.313 95.6046 124.968 96.0883 125.692V125.709C96.1248 125.764 96.166 125.824 96.2101 125.888C96.5822 126.427 97.1574 127.261 96.8484 127.847C96.7793 127.967 96.6756 128.002 96.5547 127.967C96.2171 127.845 96.0567 127.532 95.904 127.234C95.8848 127.196 95.8657 127.159 95.8464 127.123C95.6391 126.743 95.4318 126.382 95.1899 126.037C94.7408 125.365 94.2225 124.727 93.687 124.106C93.0823 123.4 92.4604 122.693 91.8385 121.986C91.6744 121.788 91.5023 121.597 91.3276 121.403C91.2449 121.311 91.1616 121.219 91.0784 121.125C91.9594 124.33 92.9441 127.519 94.5853 130.449C96.1747 133.276 98.9733 136.137 102.498 135.861C103.931 135.758 105.313 135.051 106.16 133.896C107.127 132.586 107.058 130.949 106.402 129.518C105.676 127.984 104.45 126.743 103.189 125.658C101.927 124.572 100.58 123.607 99.1288 122.814C97.6776 122.021 96.1574 121.366 94.5853 120.866C93.7032 120.587 92.7984 120.409 91.8985 120.233C91.6881 120.191 91.4779 120.15 91.2684 120.108C91.5989 120.438 91.9053 120.791 92.2039 121.137C92.3423 121.296 92.4791 121.454 92.6159 121.607L94.4816 123.676ZM86.9015 89.8077C86.9514 91.1866 87.0013 92.5655 87.0359 93.9445L87.0186 93.9617V94.4443C89.0226 90.9283 90.2491 87.0158 90.6637 83C91.0611 79.1737 90.6465 75.2268 89.3681 71.5901C89.0744 70.7111 88.7116 69.8494 88.3143 69.0048C88.2596 68.888 88.2042 68.7662 88.1474 68.6413C87.8271 67.9368 87.4631 67.1362 86.9495 66.6091C85.5329 65.1614 83.2698 69.453 82.8206 70.4181C80.9376 74.3995 80.8858 78.8807 81.6632 83.1379C82.0778 85.3785 82.6824 87.6018 83.4426 89.739C83.9263 91.0661 84.5482 92.3933 85.5502 93.3757C85.5156 92.4108 85.4854 91.4458 85.4552 90.4808C85.4249 89.5154 85.3947 88.55 85.3601 87.5846L85.2565 84.6029C85.2548 84.5528 85.2531 84.5028 85.2514 84.4528C85.2178 83.4719 85.1852 82.5215 85.4811 81.5867C85.602 81.2248 86.1548 81.2592 86.293 81.5867C86.6569 82.5273 86.6882 83.4995 86.7206 84.5033C86.722 84.548 86.7234 84.5926 86.7249 84.6374L86.8286 87.7397C86.8516 88.429 86.8765 89.1183 86.9015 89.8077ZM115.696 86.7573C116.266 85.8783 116.784 84.9648 117.234 84.0169V84.0514C117.26 83.9967 117.286 83.9408 117.314 83.8836C117.778 82.9128 118.409 81.5952 117.838 80.5698C117.268 79.5529 115.938 79.3461 114.867 79.415C113.658 79.5012 112.431 79.777 111.256 80.07C106.678 81.2248 102.273 83.5515 98.9733 86.9813C97.3839 88.6359 96.0364 90.5146 95.0345 92.5829C94.5335 93.617 94.1189 94.6856 93.7906 95.7714C93.6522 96.2588 93.5445 96.75 93.4367 97.2415C93.3158 97.7928 93.1949 98.3443 93.0305 98.891C93.186 98.7359 93.3372 98.5807 93.4884 98.4256C93.6395 98.2705 93.7907 98.1154 93.9461 97.9604C94.0112 97.8978 94.0762 97.8353 94.1412 97.7729C95.4542 96.5106 96.7365 95.2778 98.3168 94.3581C98.8178 94.0479 99.3188 94.8062 98.9906 95.2199C98.0845 96.3841 97.0038 97.385 95.922 98.3871C95.6425 98.646 95.363 98.9049 95.0863 99.1668C99.1806 98.598 103.119 97.4605 106.73 95.3061C110.323 93.1861 113.416 90.2389 115.696 86.7573Z" fill="#BC8383"/>
</svg>
