<svg width="82" height="59" viewBox="0 0 82 59" fill="none" xmlns="http://www.w3.org/2000/svg">
<path d="M17.3223 38.184C15.7829 46.6634 13.2307 52.7491 11.1849 56.5019C10.3949 57.9828 12.0153 59.6056 13.4535 58.7739C30.529 48.8137 38.0236 34.2689 38.9351 22.625C39.7453 12.5633 32.8989 2.19734 22.528 0.310772C12.1369 -1.57579 2.19138 5.32132 0.307605 15.7278C-1.65719 26.6212 5.99943 37.0886 17.3021 38.184L17.3223 38.184Z" fill="#E0BABA"/>
<path d="M59.8223 38.1769C58.2829 46.6592 55.7307 52.747 53.6849 56.5011C52.8949 57.9824 54.5153 59.6058 55.9535 58.7738C73.029 48.8102 80.5236 34.2604 81.4351 22.6124C82.2453 12.5473 75.3989 2.19809 65.0078 0.310879C54.6369 -1.57633 44.6914 5.32315 42.8076 15.7332C40.8428 26.6304 48.4994 37.1014 59.8021 38.1972L59.8223 38.1769Z" fill="#E0BABA"/>
</svg>
