<svg width="82" height="59" viewBox="0 0 82 59" fill="none" xmlns="http://www.w3.org/2000/svg">
<path d="M64.1777 20.816C65.7171 12.3366 68.2693 6.2509 70.3151 2.49806C71.1051 1.01721 69.4846 -0.605638 68.0465 0.226072C50.971 10.1863 43.4764 24.7311 42.5649 36.375C41.7547 46.4367 48.6011 56.8027 58.972 58.6892C69.3631 60.5758 79.3086 53.6787 81.1924 43.2722C83.1572 32.3788 75.5006 21.9114 64.1979 20.816L64.1777 20.816Z" fill="#B57A73"/>
<path d="M21.6777 20.8231C23.2171 12.3408 25.7693 6.25305 27.8151 2.49892C28.6051 1.01756 26.9846 -0.605843 25.5465 0.226153C8.47101 10.1898 0.976429 24.7396 0.0649248 36.3876C-0.745301 46.4527 6.1011 56.8019 16.4922 58.6891C26.8631 60.5763 36.8086 53.6769 38.6924 43.2668C40.6572 32.3696 33.0006 21.8986 21.6979 20.8028L21.6777 20.8231Z" fill="#B57A73"/>
</svg>
