<svg width="243" height="287" viewBox="0 0 243 287" fill="none" xmlns="http://www.w3.org/2000/svg">
<path d="M145.256 83.8642C147.429 81.5325 149.489 79.0891 151.794 76.897C154.162 74.6421 156.747 72.6036 159.261 70.5093C159.785 70.0695 160.407 69.7274 161.028 69.4342C162.048 68.9664 163.04 69.5878 162.942 70.7188C162.837 71.9125 162.586 73.1132 162.23 74.2512C161.559 76.4014 160.525 78.405 159.317 80.3038C157.026 83.9061 154.204 87.0196 150.712 89.5049C148.036 91.4038 145.396 93.3655 142.686 95.2085C140.968 96.3813 139.787 97.8054 139.312 99.8858C138.809 102.071 138.083 104.207 137.468 106.364C137.356 106.762 137.328 107.181 137.252 107.649C137.552 107.572 137.762 107.586 137.852 107.481C141.38 103.6 145.745 100.807 150.069 97.959C150.355 97.7705 150.656 97.5891 150.956 97.4285C151.438 97.1772 152.011 97.0445 152.381 97.4634C152.612 97.7217 152.681 98.2732 152.598 98.6432C152.472 99.2157 152.248 99.83 151.892 100.284C149.72 103.069 147.666 105.945 145.159 108.473C142.812 110.832 140.039 112.557 137.224 114.246C136.637 114.595 136.064 114.979 135.422 115.398C134.409 121.269 134.087 127.196 134.807 133.158C134.898 133.912 135.163 134.666 135.464 135.371C136.944 138.868 138.453 142.359 139.969 145.843C144.348 155.916 147.904 166.283 150.698 176.902C152.521 183.827 154.148 190.808 155.776 197.782C156.104 199.199 156.684 200.288 157.766 201.28C163.319 206.348 168.649 211.64 173.622 217.28C175.62 219.549 177.534 221.888 179.51 224.185C179.874 224.611 180.321 224.96 180.97 225.574C181.012 224.806 181.089 224.387 181.054 223.982C180.523 216.659 179.643 209.371 178.407 202.131C178.19 200.847 177.89 199.625 177.191 198.487C176.612 197.531 176.353 196.386 175.739 195.457C174.789 194.026 173.755 192.616 172.581 191.359C168.802 187.303 165.324 183.01 162.244 178.41C155.936 168.985 151.019 158.967 149.51 147.553C149.378 146.527 149.245 145.494 149.224 144.467C149.21 143.574 149.72 142.98 150.509 142.722C151.277 142.471 151.962 142.687 152.535 143.448C152.947 144 153.303 144.6 153.687 145.172C156.069 148.782 158.465 152.377 160.826 155.993C164.465 161.571 167.79 167.33 170.563 173.39C171.96 176.441 173.294 179.519 174.824 182.968C174.782 182.061 174.824 181.516 174.733 180.992C174.139 177.502 173.42 174.032 172.938 170.528C172.414 166.681 172.03 162.814 171.736 158.939C171.61 157.354 171.317 155.867 170.612 154.464C169.061 151.379 167.496 148.293 165.939 145.214C162.523 138.47 159.939 131.447 158.688 123.971C158.018 119.964 157.731 115.907 157.627 111.851C157.613 111.335 157.627 110.811 157.711 110.309C157.815 109.645 158.29 109.255 158.954 109.192C159.534 109.136 159.967 109.38 160.218 109.897C160.518 110.518 160.805 111.146 161.077 111.782C162.914 116.159 164.667 120.571 166.609 124.906C168.733 129.646 170.388 134.547 171.806 139.532C171.988 140.167 172.002 140.879 172.679 141.584C173.049 139.469 173.378 137.528 173.545 135.566C173.587 135.085 173.308 134.575 173.175 134.079C172.581 131.915 171.904 129.772 171.401 127.587C169.794 120.62 169.948 113.687 172.204 106.874C174.439 100.095 177.652 93.8193 182.032 88.1576C182.933 86.9917 183.904 85.8957 185.217 85.1627C185.846 84.8136 186.474 84.5833 187.187 84.9253C187.857 85.5955 187.962 86.4681 187.829 87.3338C187.55 89.2117 187.32 91.1106 186.824 92.9326C184.658 100.849 182.5 108.773 180.153 116.634C178.463 122.288 177.338 128.034 176.689 133.884C175.892 141.019 175.326 148.16 175.18 155.337C175.082 160.356 175.431 165.348 176.29 170.297C176.36 170.695 176.465 171.086 176.891 171.484C176.996 170.779 177.129 170.081 177.198 169.376C177.604 165.411 178.344 161.508 179.601 157.717C180.803 154.087 182.556 150.715 184.616 147.511C187.746 142.652 190.931 137.828 194.088 132.983C194.605 132.187 195.08 131.364 195.981 130.91C197.029 130.379 197.909 130.791 198.069 131.95C198.139 132.46 198.146 132.983 198.111 133.493C198.02 134.701 197.958 135.915 197.762 137.102C196.002 147.825 193.159 158.192 187.99 167.84C186.111 171.338 184.386 174.919 182.577 178.458C181.55 180.469 180.719 182.521 180.307 184.769C180.076 186.026 179.762 187.255 179.629 188.546C179.455 190.208 179.622 191.799 179.874 193.419C180.607 198.11 181.285 202.808 181.99 207.5C182.025 207.737 182.151 207.96 182.29 208.351C182.535 208.149 182.779 208.044 182.835 207.877C185.057 201.74 188.535 196.267 191.909 190.738C194.605 186.319 197.357 181.935 200.032 177.502C202.225 173.872 204.027 170.046 205.571 166.095C206.891 162.716 208.197 159.33 209.504 155.944C209.818 155.127 209.923 154.36 209.643 153.445C206.584 143.511 206.577 133.542 209.448 123.566C210.139 121.157 210.845 118.756 211.585 116.361C211.788 115.712 212.088 115.077 212.423 114.483C212.738 113.918 213.317 113.611 213.946 113.681C214.316 113.722 214.833 113.967 214.966 114.267C215.238 114.881 215.357 115.586 215.427 116.271C215.811 120.138 216.237 124.006 216.489 127.88C216.628 130.03 216.6 132.208 216.384 134.352C215.385 144.53 213.457 154.52 210.104 164.21C208.288 169.46 205.878 174.416 203.008 179.163C202.575 179.882 202.162 180.615 201.757 181.314C202.176 181.837 202.449 181.481 202.693 181.321C206.13 179.128 209.175 176.441 212.2 173.739C214.002 172.133 215.685 170.395 217.494 168.796C218.221 168.154 218.472 167.463 218.514 166.549C218.682 163.163 219.415 159.882 220.463 156.656C222.104 151.602 225.094 147.448 228.852 143.769C232.177 140.509 235.425 137.172 238.742 133.905C239.413 133.249 240.195 132.683 240.999 132.194C241.935 131.629 242.808 132.076 242.815 133.123C242.822 134.233 242.822 135.406 242.521 136.46C240.258 144.3 236.479 151.309 230.717 157.159C228.656 159.246 226.673 161.369 224.968 163.784C221.727 168.371 217.997 172.573 213.841 176.357C211.096 178.856 208.051 181.006 204.747 182.759C202.994 183.694 201.24 184.637 199.536 185.656C198.887 186.04 198.237 186.556 197.811 187.171C194.151 192.4 190.379 197.552 187.124 203.06C185.357 206.048 183.841 209.147 183.066 212.554C182.835 213.552 182.709 214.6 182.695 215.626C182.661 219.165 182.745 222.698 182.675 226.237C182.647 227.529 183.01 228.499 183.813 229.525C187.068 233.665 190.211 237.896 193.396 242.098C196.945 246.783 200.249 251.641 203.406 256.605C203.539 256.814 203.727 256.982 203.965 257.254C204.118 257.003 204.349 256.807 204.349 256.619C204.251 253.484 204.838 250.427 205.362 247.362C205.711 245.316 205.941 243.257 206.284 241.212C206.486 239.976 206.305 238.824 205.844 237.672C202.917 230.363 201.492 222.76 201.66 214.9C201.743 210.934 202.114 206.969 202.379 203.004C202.421 202.404 202.526 201.796 202.686 201.224C202.945 200.323 203.581 199.772 204.503 199.562C205.25 199.388 205.962 199.611 206.277 200.281C206.675 201.14 207.066 202.027 207.248 202.941C207.688 205.14 208.156 207.353 208.33 209.58C208.875 216.464 209.343 223.361 209.748 230.258C210.167 237.393 209.392 244.409 207.345 251.271C206.626 253.687 206.326 256.165 206.221 258.685C206.158 260.144 206.549 261.352 207.338 262.56C211.906 269.59 216.426 276.655 220.945 283.713C221.392 284.411 221.993 285.053 222.097 285.961C221.874 285.982 221.678 286.044 221.636 285.996C215.664 278.603 209.86 271.077 204.405 263.293C202.323 260.319 200.249 257.345 198.111 254.413C197.455 253.512 196.693 252.661 195.855 251.935C191.72 248.381 187.271 245.254 182.675 242.329C182.025 241.917 181.403 241.547 180.544 241.533C179.804 241.519 179.063 241.135 178.33 240.877C175.208 239.767 172.023 239.02 168.677 239.355C168.342 239.39 168.006 239.473 167.678 239.557C167.601 239.578 167.545 239.662 167.413 239.766C168.404 242.866 169.843 245.812 171.212 248.779C172.113 250.741 173.098 252.668 174.181 254.532C174.998 255.942 176.032 257.233 176.975 258.574C177.617 259.495 178.302 260.389 178.896 261.338C181.285 265.143 183.645 268.969 186.006 272.787C187.41 275.056 188.807 277.339 190.197 279.587C189.806 280.18 189.408 279.957 189.129 279.65C188.381 278.812 187.641 277.96 186.984 277.053C184.051 272.99 181.117 268.927 178.246 264.822C176.758 262.692 175.319 260.542 173.496 258.678C172.204 257.352 171.52 255.649 170.626 254.078C168.272 249.945 166.211 245.666 164.43 241.253C164.269 240.863 163.976 240.527 163.669 240.039C163.054 240.088 162.376 240.109 161.713 240.199C157.948 240.709 154.19 241.233 150.432 241.777C149.845 241.861 149.203 241.938 148.714 242.231C146.437 243.592 143.908 244.165 141.359 244.597C138.725 245.044 136.057 245.324 133.396 245.603C132.258 245.721 131.266 245.966 130.309 246.699C129.296 247.474 128.108 248.095 126.907 248.528C120.404 250.866 113.852 250.741 107.314 248.681C102.551 247.173 98.3737 244.59 94.511 241.477C93.3026 240.5 92.178 239.424 91.0046 238.405C90.5016 237.965 90.2991 237.435 90.5156 236.786C90.6903 236.241 91.0605 235.906 91.6402 235.878C91.8917 235.864 92.1571 235.913 92.4085 235.962C93.0023 236.08 93.603 236.178 94.1827 236.353C100.078 238.105 106.113 239.229 112.113 240.52C115.997 241.358 119.852 242.35 123.68 243.425C125.559 243.955 127.361 244.116 129.282 243.767C132.083 243.25 134.905 242.873 137.727 242.461C138.313 242.377 138.914 242.37 139.508 242.329C139.655 242.203 139.794 242.077 139.941 241.945L139.487 242.322C139.41 242.084 139.403 241.735 139.242 241.644C138.956 241.477 138.586 241.456 138.244 241.4C132.565 240.541 127.145 238.782 121.829 236.674C120.858 236.29 119.894 235.99 118.832 235.927C109.277 235.389 101.44 231.159 94.8113 224.513C92.3177 222.014 90.0755 219.249 87.7635 216.575C87.2048 215.926 86.7158 215.172 86.4085 214.39C86.2618 214.02 86.4993 213.385 86.7508 212.987C87.0511 212.526 87.6099 212.421 88.1338 212.701C88.6646 212.987 89.1815 213.301 89.6844 213.636C94.5319 216.792 99.4354 219.87 104.206 223.144C107.189 225.197 109.983 227.522 112.825 229.77C114.25 230.9 115.689 231.941 117.442 232.576C125.112 235.354 132.977 237.344 141.065 238.398C141.722 238.482 142.393 238.454 143.189 238.475C141.387 236.339 139.214 234.963 137.231 234.475C129.715 232.639 122.926 229.414 117.205 224.101C114.16 221.274 111.254 218.328 108.6 215.137C108.16 214.614 107.691 214.048 107.482 213.42C107.349 213.015 107.545 212.394 107.789 211.982C108.104 211.458 108.704 211.549 109.186 211.779C112.295 213.301 115.347 214.942 118.106 217.029C120.788 219.061 123.324 221.28 125.957 223.382C126.963 224.185 128.004 224.96 129.093 225.637C134.877 229.26 140.716 232.792 145.682 237.554C146.29 238.14 146.919 238.677 147.932 238.629C152.758 238.391 157.529 237.735 162.307 237.128C162.167 235.731 161.489 233.365 160.924 232.66C160.623 232.283 160.148 231.99 159.694 231.801C158.5 231.291 157.284 230.845 156.062 230.405C146.779 227.033 138.355 222.216 131.07 215.514C130.288 214.795 129.429 214.306 128.43 213.95C124.832 212.68 121.431 210.969 118.127 209.091C113.217 206.299 109.396 202.355 106.385 197.614C103.459 193.007 101.23 188.036 99.0652 183.038C98.688 182.165 98.4295 181.244 99.0302 180.315C99.4004 179.736 99.9802 179.457 100.553 179.827C101.342 180.343 102.146 180.881 102.809 181.544C104.702 183.436 106.546 185.377 108.369 187.338C112.42 191.715 116.234 196.295 119.789 201.084C122.018 204.093 124.839 206.508 127.661 208.931C132.711 213.266 137.859 217.469 143.489 221.036C145.019 222.007 146.646 222.816 148.246 223.675C148.511 223.822 148.84 223.85 149.112 223.926C149.217 223.717 149.301 223.626 149.28 223.584C147.925 220.98 146.549 218.39 145.193 215.779C144.732 214.893 143.999 214.355 143.161 213.86C138.67 211.2 134.653 207.968 131.189 204.051C129.051 201.636 127.368 198.906 125.88 196.086C124.148 192.812 122.716 189.37 121.137 186.012C120.788 185.272 120.656 184.553 120.935 183.764C121.298 182.752 122.052 182.438 122.947 183.038C123.729 183.569 124.497 184.141 125.196 184.783C128.011 187.359 130.469 190.249 132.628 193.391C133.263 194.319 133.941 195.22 134.507 196.19C135.953 198.669 137.901 200.763 139.655 203.004C143.545 207.995 147.003 213.252 149.398 219.151C150.146 220.987 150.97 222.802 151.752 224.624C151.997 225.197 152.353 225.665 152.954 225.909C154.945 226.719 156.935 227.536 159.142 228.443C159.17 227.885 159.275 227.55 159.184 227.284C156.586 219.479 154.903 211.451 153.443 203.381C153.149 201.775 152.528 200.554 151.291 199.451C144.656 193.531 138.362 187.22 131.37 181.712C126.628 177.977 121.766 174.395 116.94 170.765C116.115 170.144 115.228 169.62 114.39 169.062C109.158 170.011 103.99 169.844 98.8137 169.418C97.8638 169.341 96.9208 169.222 95.9848 169.041C95.1466 168.88 94.2874 168.685 93.6728 167.819C93.7077 166.549 94.2036 165.564 95.6006 165.201C97.6821 164.664 99.7707 164.126 101.866 163.63C102.69 163.435 103.542 163.365 104.639 163.198C104.311 162.828 104.15 162.534 103.899 162.381C98.4574 158.869 93.0023 155.365 87.5471 151.881C86.9044 151.469 86.2059 151.141 85.3538 150.981C86.0942 151.832 86.8834 152.663 87.5749 153.55C88.5808 154.841 89.6355 156.112 90.4597 157.522C92.0872 160.314 91.9964 163.107 90.0965 165.788C88.2874 168.336 85.8707 170.102 83.0138 171.254C80.0383 172.455 77.0906 173.676 74.562 175.701C73.4864 176.56 72.4456 177.467 71.4328 178.403C67.8565 181.712 63.6936 181.244 60.2291 179.024C56.6318 176.72 54.1033 173.488 52.3431 169.627C52.2034 169.313 52.0777 168.992 51.931 168.685C51.896 168.608 51.8192 168.552 51.6376 168.364C51.3233 169.02 51.0089 169.599 50.7575 170.214C49.5421 173.104 47.8797 175.708 45.8192 178.067C42.5083 181.851 38.3732 182.521 33.8051 181.097C32.3452 180.643 30.9762 179.806 29.677 178.975C28.0844 177.949 26.5827 176.776 25.0879 175.603C22.6083 173.669 19.961 172.078 16.8666 171.345C13.8841 170.64 11.8445 168.789 10.3986 166.165C8.21932 162.199 7.54882 158.039 8.88294 153.661C9.35791 152.098 9.93062 150.548 10.5732 149.04C11.8165 146.136 13.7095 143.685 16.1751 141.71C16.9086 141.123 17.5791 140.523 18.089 139.525C16.9575 139.252 15.9586 139.022 14.9668 138.771C10.3707 137.633 6.48005 135.364 3.56734 131.587C2.78503 130.568 2.15639 129.416 1.56267 128.278C0.780364 126.77 0.647702 125.13 1.00393 123.482C1.25539 122.302 1.59066 121.136 1.96086 119.984C2.86192 117.178 3.43468 114.309 3.79091 111.377C4.13317 108.633 4.51036 105.89 5.10407 103.195C5.7397 100.305 6.92016 97.624 9.12739 95.5017C10.706 93.9799 12.5081 93.4771 14.5896 94.1194C15.4906 94.3987 16.3707 94.7896 17.2089 95.2225C20.5128 96.9398 23.691 98.8527 26.429 101.422C26.5967 101.575 26.8412 101.645 27.0367 101.743C27.6654 101.268 27.2602 100.738 27.1764 100.298C26.7224 97.8264 26.436 95.3411 26.5059 92.8279C26.5687 90.4683 27.0157 88.2065 28.0495 86.0563C29.4255 83.194 32.003 81.7699 34.9716 82.1538C35.8307 82.2655 36.6898 82.3633 37.542 82.5099C40.8109 83.0823 44.0659 82.9915 47.3418 82.468C49.2138 82.1678 51.1137 82.084 52.9996 81.8955C53.4257 81.8537 53.8937 81.8955 54.2569 81.721C57.7983 80.0246 61.7098 79.5778 65.3978 78.391C65.9426 78.2165 66.4665 77.9861 67.4095 77.6231C66.4945 77.3508 66.0265 77.1414 65.5376 77.0646C59.9427 76.178 54.662 74.2861 49.5141 71.9893C48.2429 71.4238 47.0136 71.1236 45.5537 71.1864C42.0543 71.3261 38.7015 70.3627 35.4675 69.0851C30.4104 67.0885 26.0518 64.0099 22.259 60.1493C20.387 58.2435 18.6688 56.184 16.9016 54.1735C16.5663 53.7895 16.28 53.3497 16.0355 52.896C15.7002 52.2746 15.9796 51.7091 16.3498 51.2205C16.713 50.7527 17.2788 50.6899 17.7677 50.8924C18.8015 51.3182 19.8702 51.7231 20.8062 52.3235C24.3615 54.6133 27.8749 56.9729 31.4023 59.3116C31.9751 59.6955 32.5478 60.0935 33.0856 60.5194C37.3464 63.8843 42.166 66.181 47.244 67.9682C51.4001 69.4342 55.598 70.7746 59.782 72.1638C60.1592 72.2895 60.5503 72.3454 61.0532 72.4571C60.8157 71.6123 60.1732 71.4727 59.7052 71.1586C55.5561 68.401 52.0916 64.9453 49.109 60.9801C48.1242 59.6676 47.1323 58.3621 46.1544 57.0427C45.7773 56.5401 45.5676 56.0026 45.8261 55.3533C46.0706 54.739 46.6922 54.3481 47.258 54.5854C47.8937 54.8507 48.5083 55.1718 49.0951 55.5418C56.5619 60.2611 63.5957 65.5318 69.8822 71.7659C70.1895 72.0731 70.5458 72.3453 70.7763 72.6944C71.8659 74.3419 73.3606 75.054 75.3443 75.054C77.0696 75.054 78.7879 75.3193 80.5132 75.4449C81.0021 75.4798 81.4911 75.4449 82.0918 75.4449C81.7356 74.6142 81.058 74.3559 80.5412 73.944C78.8648 72.5897 77.1535 71.2632 75.5051 69.874C74.8485 69.3225 74.2757 68.6593 73.7309 67.9961C73.2908 67.4655 73.4095 66.8721 73.7657 66.3136C74.0801 65.818 74.562 65.6016 75.0929 65.7482C75.8333 65.9507 76.5876 66.195 77.2582 66.5649C78.3967 67.1863 79.4654 67.9263 80.583 68.5755C80.7297 68.6593 81.0161 68.5197 81.2327 68.4917C81.6238 69.0502 82.0149 69.6017 82.4131 70.1533C82.6156 70.237 82.8182 70.3278 83.0347 70.3836C83.0906 70.3976 83.1745 70.2929 83.2443 70.244C83.1884 70.1951 83.1256 70.0974 83.0697 70.1044C82.8462 70.1044 82.6297 70.1463 82.4062 70.1533C82.3014 69.3923 82.015 68.778 81.2187 68.5615C80.2129 67.6191 79.242 66.6418 78.2082 65.7342C73.661 61.741 69.3932 57.4686 65.1394 53.1682C64.0567 52.0722 62.9392 51.0041 61.7587 49.8452C60.4386 50.2012 59.1882 50.4805 57.9659 50.8714C51.6306 52.9308 45.1626 53.6429 38.5339 52.9308C35.7539 52.6306 33.0857 51.9884 30.6898 50.4595C27.5396 48.449 26.2544 45.5169 26.4569 41.8657C26.5128 40.9163 26.6455 39.9669 26.7503 39.0245L27.2602 39.0524C26.8481 38.3054 26.401 37.5724 26.0239 36.8114C24.6478 33.9841 24.2358 31.1079 25.3045 28.0362C26.7294 23.9313 31.4791 21.5018 34.9226 22.1651C35.2509 22.2279 35.5862 22.2628 36.0752 22.3326C36.159 21.8718 36.2498 21.474 36.3126 21.0691C36.9902 16.4545 40.0007 13.8366 44.017 12.0844C44.1707 12.0145 44.3662 12.0215 44.5199 11.9517C47.3278 10.6253 49.584 11.477 51.3652 13.7877C52.2592 14.9396 52.9578 16.238 53.768 17.5016C54.3827 17.5016 54.8926 17.4807 55.3955 17.5016C58.3012 17.5924 60.5363 18.863 62.0032 21.3832C63.5818 24.1058 64.6784 27.024 64.9788 30.1515C65.307 33.5862 65.4188 37.0488 65.5516 40.4975C65.5935 41.5237 65.3979 42.5639 65.2721 43.5901C65.0626 45.3005 64.8321 47.0038 64.6225 48.5676C64.8181 48.8748 64.881 49.0424 65.0067 49.1541C69.6517 53.4126 74.2966 57.671 78.9416 61.9225C83.9148 66.4672 88.965 70.9212 93.8335 75.5776C97.4517 79.0332 100.825 82.7402 104.311 86.3355C104.842 86.8801 105.387 87.4106 106.232 88.2483C106.092 87.264 106.036 86.6776 105.917 86.1121C104.43 79.0053 102.502 72.0242 100.12 65.1617C99.7846 64.1914 99.3027 63.5491 98.4365 63.0256C91.5075 58.8369 85.3957 53.6569 80.1639 47.4856C78.271 45.2516 76.6505 42.7803 74.9113 40.4137C74.5341 39.8971 74.3944 39.3386 74.6738 38.7173C75.037 37.9144 75.7774 37.5235 76.5597 37.8586C77.2722 38.1588 77.9707 38.5148 78.6273 38.9267C83.5447 42.0124 88.1477 45.5099 92.1501 49.7405C92.7438 50.3688 93.2537 51.0669 93.8405 51.7022C94.2316 52.1281 94.6717 52.512 95.2235 52.8262C94.2037 49.3635 92.7717 46.0964 91.4306 42.7943C90.0686 39.4503 88.8183 36.0575 87.2816 32.9439C80.8415 32.1551 75.3094 29.6209 70.0987 26.2839C69.0789 25.6277 69.1138 25.5858 68.3874 24.1547C68.8763 23.2262 69.7146 23.1564 70.6016 23.3239C72.6412 23.7149 74.6669 24.1477 76.7065 24.5526C77.363 24.6853 78.0336 24.79 78.9905 24.9575C78.6413 24.413 78.5226 24.0988 78.299 23.8964C73.4934 19.5611 70.42 14.1159 68.1359 8.15399C67.7308 7.10682 67.3047 6.0666 67.0044 4.98453C66.6971 3.86755 67.2 3.19734 68.3106 2.86923C69.512 2.52018 70.5807 2.91114 71.4818 3.58831C72.5784 4.41208 73.654 5.3266 74.5202 6.37377C76.8322 9.16621 79.0324 12.0564 81.2745 14.9047C81.4841 15.1769 81.6797 15.4562 81.8753 15.7145C82.5459 15.6726 82.441 15.17 82.5318 14.786C83.0487 12.6917 83.5726 10.6044 84.1035 8.51003C84.306 7.70022 84.8229 7.15564 85.5703 6.79961C86.2548 6.47847 87.072 6.67391 87.3095 7.37901C87.7426 8.68448 88.1547 10.0179 88.3922 11.3653C89.0837 15.3166 88.8462 19.2889 88.3503 23.2402C88.1547 24.783 87.8754 26.3119 87.6449 27.8547C87.582 28.2875 87.561 28.7273 88.1826 28.9228C88.2664 28.3294 88.3293 27.736 88.4411 27.1496C88.8741 24.9505 89.2583 22.7305 89.7892 20.5594C90.0546 19.4843 90.5506 18.4511 91.0465 17.4458C91.5634 16.3986 92.4155 15.9239 93.7217 16.3847C94.4691 17.6762 94.3504 19.1352 94.1827 20.5873C93.7916 23.9452 93.0651 27.2333 91.9126 30.4167C91.4726 31.6314 91.0185 32.8391 90.5295 34.1725C95.5936 44.2254 99.9872 54.6133 103.612 65.434C103.857 64.3659 104.073 63.2839 104.36 62.2297C105.212 59.151 106.078 56.0724 106.965 53.0007C107.244 52.0443 107.335 50.6271 108.676 50.8016C109.815 50.9552 109.983 52.2746 110.136 53.3008C110.772 57.4965 110.458 61.5735 108.537 65.434C107.726 67.0536 106.895 68.6663 106.05 70.272C105.428 71.4657 105.226 72.6385 105.589 74.0068C106.965 79.1868 107.824 84.4715 108.397 89.7981C108.502 90.7755 108.767 91.6132 109.41 92.3881C111.498 94.9153 113.531 97.4913 115.585 100.053C116.15 99.8718 116.066 99.4251 116.018 99.0132C115.11 92.0949 115.578 85.2115 116.695 78.3631C117.903 70.9421 119.133 63.5282 120.348 56.1073C120.488 55.2556 120.628 54.4108 120.753 53.6499C120.215 52.2606 119.203 51.5486 118.05 50.8714C113.873 48.4141 109.871 45.7123 106.469 42.2008C102.558 38.1727 99.5541 33.5931 97.8009 28.2386C96.6484 24.7201 96.4738 21.1179 97.1303 17.4877C97.5424 15.2328 98.9673 13.8157 101.189 13.2851C101.838 13.1315 102.551 13.1943 103.228 13.2432C103.731 13.2781 104.227 13.4317 104.842 13.5574C104.758 12.7615 104.639 12.0843 104.611 11.4071C104.457 7.37902 106.043 4.20262 109.354 1.90583C110.283 1.26357 111.317 0.851743 112.455 0.656272C115.619 0.111745 118.798 -0.14657 122.004 0.118712C125.838 0.432863 127.354 1.74528 128.283 5.49414C128.423 6.07357 128.555 6.653 128.737 7.40696C129.359 7.17658 129.911 6.99505 130.434 6.77165C132.076 6.08052 133.71 6.23419 135.17 7.11381C137.252 8.37041 139.368 9.48033 141.68 10.2622C143.517 10.8835 144.355 12.3636 144.453 14.2555C144.523 15.6517 144.327 17.013 143.769 18.3115C143.531 18.863 143.294 19.4075 143.007 20.0847C144.341 21.09 145.361 22.3116 145.927 23.9033C147.114 27.2333 146.709 30.4237 144.942 33.3698C143.887 35.129 142.546 36.7486 141.156 38.2636C138.237 41.4539 134.905 44.2044 131.468 46.8293C130.309 47.7159 129.03 48.4839 127.731 49.1471C126.851 49.5939 126.139 50.1384 125.594 50.9552C125.259 51.4508 124.888 51.9604 124.434 52.3374C123.415 53.1682 123.037 54.2642 122.926 55.5069C122.835 56.5401 122.751 57.5733 122.667 58.6065C122.004 66.6278 120.544 74.5304 119.014 82.426C117.75 88.9185 117.533 95.4598 118.162 102.043C118.295 103.46 118.742 104.696 119.496 105.904C121.829 109.638 124.148 113.387 126.348 117.206C127.941 119.971 129.331 122.861 130.812 125.688C131.133 126.295 131.468 126.889 131.796 127.482C132.411 127.245 132.271 126.777 132.285 126.379C132.411 123.531 132.453 120.683 132.691 117.841C132.809 116.424 132.586 115.133 132.237 113.778C130.56 107.181 128.43 100.689 127.571 93.903C127.291 91.69 127.319 89.4281 127.277 87.1872C127.263 86.51 127.438 85.8189 127.592 85.1487C127.738 84.4994 128.199 84.1085 128.87 84.0387C129.568 83.9689 130.036 84.3528 130.274 84.9602C130.651 85.9236 130.979 86.908 131.307 87.8853C132.935 92.7372 133.92 97.7287 134.479 102.804C134.535 103.293 134.646 103.781 134.723 104.235C135.38 104.368 135.352 103.9 135.436 103.642C136.176 101.338 136.874 99.0202 137.615 96.7164C137.894 95.8647 137.817 95.0759 137.636 94.1963C135.568 84.0108 135.149 73.8114 137.496 63.605C137.65 62.9348 137.852 62.2716 138.118 61.6363C138.369 61.029 138.886 60.7357 139.557 60.7218C140.269 60.7078 140.702 61.0918 140.884 61.7341C141.149 62.6416 141.408 63.5631 141.568 64.4916C142.602 70.4116 142.672 76.3455 141.876 82.3004C141.771 83.0683 141.708 83.8432 141.631 84.6111C141.631 84.674 141.694 84.7508 141.729 84.8206C143.412 82.5168 143.901 81.0787 143.901 78.5446C143.901 76.0104 144.467 73.5741 145.193 71.1656C146.122 68.0939 147.373 65.1408 149.021 62.3903C150.928 59.2138 153.017 56.1422 155.063 53.0495C155.433 52.484 155.922 51.9395 156.481 51.5765C156.858 51.3322 157.487 51.2833 157.948 51.388C158.542 51.5276 158.605 52.1629 158.549 52.6725C158.423 53.7825 158.353 54.9275 158.018 55.9816C157.494 57.6222 156.872 59.2487 156.097 60.7846C154.931 63.0883 153.631 65.3293 152.318 67.5633C149.468 72.4221 147.233 77.5672 145.173 82.7961C145.026 83.173 144.795 83.6058 145.319 83.913C145.173 83.934 145.012 83.927 144.907 84.0038C144.851 84.0457 144.893 84.2272 144.893 84.3528C144.956 84.3319 145.061 84.3319 145.082 84.29C145.152 84.1644 145.187 84.0178 145.235 83.8782L145.256 83.8642ZM152.961 60.0726C152.891 60.4146 152.828 60.7567 152.758 61.0988C152.612 61.1895 152.416 61.2454 152.325 61.371C149.978 64.701 148.127 68.2963 146.821 72.1568C146.779 72.2755 146.842 72.4361 146.87 72.7014C147.1 72.478 147.324 72.3523 147.422 72.1568C149.154 68.778 150.872 65.3991 152.57 62.0063C152.702 61.741 152.646 61.392 152.681 61.0778C153.149 60.8404 153.492 60.5752 152.94 60.0796L153.534 59.7863L153.499 59.7165L152.954 60.0656L152.961 60.0726ZM63.1068 36.9441C62.8344 37.3281 62.6598 37.712 63.1068 38.0959C62.8554 38.5008 62.8694 38.8848 63.1976 39.2478C62.9113 39.6248 62.9391 39.9879 63.2185 40.3579C63.1277 40.4626 63.0229 40.5673 62.9461 40.679C62.9321 40.6999 63.023 40.7837 63.0649 40.8395C63.0858 40.665 63.0999 40.4905 63.1068 40.316C63.1138 39.946 63.1278 39.576 63.1068 39.192C63.0859 38.815 63.0649 38.4311 63.016 38.0401C63.03 37.6701 63.044 37.2931 63.023 36.9092C62.8624 36.4694 62.7017 36.0295 62.541 35.5897C62.6877 31.5826 62.0032 27.7011 60.5014 23.9941C59.9845 22.7166 59.2721 21.5228 58.0288 20.7409C57.2465 20.2522 56.4991 20.0148 55.5981 20.4756C55.158 20.699 54.4874 21.0132 54.1731 20.8386C52.6434 19.9939 51.435 20.9434 49.8075 21.2366C55.4234 26.7866 58.1196 33.6769 61.0532 40.9513C61.5631 38.0401 61.0113 35.5758 61.2348 32.8182C61.8006 33.9492 62.2127 34.7729 62.6248 35.5967C62.066 36.2948 62.7366 36.5601 63.0929 36.9301L63.1068 36.9441ZM90.2502 76.9808C90.4039 77.0576 90.5645 77.1344 90.7182 77.2112C90.6902 77.1483 90.6693 77.0296 90.6413 77.0296C90.5016 77.0296 90.3619 77.0576 90.2222 77.0786L89.4818 76.0174L89.2513 76.2547C89.5866 76.4991 89.9149 76.7435 90.2502 76.9878V76.9808ZM62.8833 45.845C63.0789 45.1749 63.0276 44.6443 62.7296 44.2533C62.3175 44.8607 62.4851 45.3773 62.9601 45.859C62.7459 46.343 62.7646 46.7828 63.016 47.1784C63.2745 46.6618 63.3163 46.236 62.8833 45.845ZM54.6341 49.4822C54.3547 48.6933 53.9006 49.2448 53.5095 49.3356C52.825 49.3496 52.1405 49.4193 51.463 49.3705C50.0031 49.2727 48.5432 49.1401 47.0834 48.9796C46.797 48.9446 46.5385 48.7073 46.2661 48.5607C46.7202 48.2535 47.1044 48.2675 47.4816 48.2954C49.8984 48.5049 52.3082 48.6165 54.7249 48.2675C55.0951 48.2116 55.4443 48.0091 56.2406 47.7159C55.1859 47.4786 54.6062 47.346 54.0265 47.2133C50.5759 46.4105 47.0834 45.7543 43.6818 44.7699C39.3162 43.5063 35.2998 41.5307 32.2335 38.0053C32.0658 37.8098 31.9051 37.5445 31.6816 37.4677C31.2276 37.3141 30.7318 37.2652 30.1939 37.1605C29.3697 39.2409 29.0274 41.2654 29.1252 43.3527C29.237 45.7961 30.3615 47.6531 32.6037 48.7003C33.7702 49.2448 34.9855 49.8103 36.2358 50.0267C41.5583 50.9412 46.9018 50.8784 52.2313 49.9848C52.6923 49.908 53.0904 49.4962 53.5165 49.2518C53.8098 50.0198 54.257 49.4263 54.6411 49.3844C55.8495 49.3216 57.023 49.0912 58.385 48.5258C57.0812 48.2 55.8285 48.5188 54.6271 49.4822H54.6341ZM106.923 60.7777C106.106 61.7829 105.994 63.0046 105.889 64.2473C106.183 64.0518 106.371 63.8004 106.455 63.5212C106.707 62.6346 106.923 61.741 107.147 60.8475C107.447 60.4565 107.782 60.0586 107.077 59.542C107.014 60.0097 106.972 60.3937 106.923 60.7777ZM80.8834 72.3873L80.5342 71.8427H80.5202L80.8694 72.3873C81.7565 73.0435 82.6576 73.6927 83.5377 74.3629C84.4667 75.075 85.4306 75.7312 86.8904 76.3944C85.3468 74.705 82.7414 72.7851 81.3444 72.2336C81.2327 72.1917 81.0441 72.3384 80.8834 72.3873ZM114.034 40.5603C113.685 40.7837 113.657 41.0978 113.845 41.4259C115.144 43.6529 116.444 45.8729 117.764 48.086C117.945 48.3861 118.274 48.5956 118.588 48.2675C118.714 48.1348 118.756 47.7788 118.672 47.5973C118.413 47.0598 118.099 46.5431 117.757 46.0474C116.5 44.2044 115.221 42.3685 113.929 40.5324L111.435 36.218C111.463 35.8969 111.589 35.5409 111.505 35.2477C111.072 33.7607 110.576 32.2947 110.129 30.8077C109.005 27.0449 108.516 23.2332 109.151 19.3168C109.179 19.1632 109.068 18.9956 108.984 18.6955C107.286 17.5506 105.414 16.5452 103.305 16.0496C101.775 15.6866 100.127 16.657 99.6799 18.1928C99.5402 18.6815 99.5331 19.212 99.4843 19.7217C99.0582 24.3571 100.385 28.5946 102.551 32.6088C105.163 37.4537 108.788 41.4679 113.014 44.9654C113.349 45.2447 113.796 45.3843 114.46 45.7263C113.503 43.611 112.623 41.8309 111.889 40.0018C111.156 38.1728 110.164 36.3996 110.024 33.9004C110.688 34.9336 111.1 35.5828 111.526 36.232C111.889 37.9494 112.707 39.4014 114.034 40.5533V40.5603ZM137 112.871C137.964 111.907 138.921 110.937 139.892 109.988C141.799 108.131 143.727 106.288 145.634 104.438C145.941 104.137 146.248 103.809 145.941 103.293C143.838 104.347 142.05 105.848 140.311 107.37C138.9 108.605 137.622 110.029 136.777 111.768C136.539 112.249 136.644 112.571 137 112.864C136.847 112.85 136.686 112.801 136.546 112.836C136.476 112.857 136.441 113.024 136.386 113.122C136.448 113.08 136.504 113.017 136.574 112.996C136.714 112.948 136.854 112.913 136.993 112.871H137ZM86.1919 23.5473C86.3107 23.2541 86.5272 22.9679 86.5412 22.6677C86.639 20.9503 86.7438 19.233 86.7368 17.5156C86.7228 15.6307 86.6111 13.7458 86.4853 11.8609C86.4574 11.3932 86.2059 10.9394 85.9195 10.0668C84.7251 12.9919 84.4667 15.5958 84.4807 18.2626C84.4876 20.2383 85.3537 21.8928 86.2618 23.5473C85.8566 24.1477 85.8637 24.7411 86.3177 25.3135C86.5063 24.7062 86.7647 24.0988 86.1919 23.5403V23.5473ZM103.808 123.119L104.227 123.559L104.339 123.349L103.78 123.189C101.964 121.011 99.7566 119.251 97.5215 117.527C95.3212 115.824 93.3375 113.785 90.5087 112.668C90.6134 113.534 90.7252 114.204 90.7811 114.881C90.83 115.531 91.1443 116.005 91.6402 116.396C95.1117 119.112 98.7927 121.485 102.879 123.168C103.137 123.273 103.494 123.133 103.801 123.105L103.808 123.119ZM206.444 231.745C206.591 231.473 206.842 231.201 206.856 230.921C206.933 229.546 206.905 228.164 206.982 226.796C207.317 220.82 206.339 214.963 205.424 209.098C205.403 208.959 205.229 208.847 205.005 208.582C204.908 208.98 204.796 209.266 204.775 209.552C204.223 216.533 204.447 223.48 205.962 230.342C206.067 230.831 206.332 231.284 206.521 231.752C206.5 231.941 206.479 232.136 206.458 232.325L206.682 232.304C206.605 232.122 206.521 231.934 206.444 231.752V231.745ZM170.437 149.452C170.919 148.991 170.563 148.474 170.486 148.007C169.033 139.567 166.505 131.448 163.131 123.587C162.369 121.807 161.608 120.033 160.847 118.253C160.588 118.909 160.525 119.51 160.616 120.089C161.077 122.889 161.454 125.709 162.083 128.481C163.62 135.238 166.365 141.556 169.389 147.762C169.683 148.37 170.137 148.907 170.514 149.473L170.465 150.227L170.807 150.192L170.437 149.459V149.452ZM58.9508 46.7386C58.9717 46.8852 58.9787 47.0388 59.0136 47.1854C59.0276 47.2552 59.0835 47.318 59.1254 47.3809C59.1254 47.2971 59.1533 47.2133 59.1254 47.1435C59.0835 47.0039 59.0206 46.8782 58.9647 46.7386C56.7855 44.9235 54.5992 43.1154 52.4339 41.2863C52.371 41.2375 52.4548 41.014 52.4757 40.8116C53.8308 40.9233 54.8157 42.0752 56.3943 42.3195C55.5002 40.5184 54.2011 39.3595 52.8949 37.6701C54.7878 38.4101 55.605 39.8552 56.9741 40.693C57.0299 40.3649 57.1696 40.0926 57.0928 39.8971C55.584 35.8481 53.747 31.9456 51.5328 28.2456C50.4292 26.3956 49.0182 24.7411 47.3348 23.3588C46.5386 22.7026 45.7144 22.1022 44.7575 21.837C43.5491 22.2349 42.7039 22.9609 41.9355 23.7846C40.2801 25.5648 38.45 27.1146 36.3406 28.3433C35.4465 28.8669 34.5944 29.4603 33.7632 30.0746C32.7713 30.8146 32.4011 31.8269 32.6945 33.0486C33.0437 34.4937 33.6374 35.8131 34.6782 36.9162C35.8656 38.1797 37.2137 39.2408 38.7225 40.1065C40.9018 41.3561 43.2068 42.3056 45.5816 43.1154C49.8215 44.5675 54.3058 45.2656 58.3989 47.1854C58.4897 47.2272 58.7552 46.8852 58.9438 46.7386H58.9508ZM120.411 37.8516V37.8307C120.229 40.3509 120.998 42.7524 121.305 45.2097C121.333 45.4331 121.508 45.6425 121.619 45.8799C122.276 45.2586 121.689 44.2044 122.639 43.4435C122.793 44.5325 122.898 45.3703 123.044 46.2011C123.086 46.4315 123.261 46.6409 123.429 46.955C124.015 46.8643 124.595 46.7805 125.091 46.7037C126.132 44.7769 127.089 42.9479 128.094 41.1398C129.345 38.8779 130.7 36.6718 131.88 34.375C132.823 32.539 133.682 30.6471 134.36 28.6994C134.807 27.4218 135.058 26.0116 135.065 24.6573C135.072 21.7531 133.368 20.0079 130.483 19.7426C129.54 19.6589 128.583 19.596 127.64 19.6589C124.916 19.8404 122.311 19.4913 119.838 18.2836C119.475 18.1021 118.853 17.8856 118.637 18.0532C117.917 18.6117 117.47 18.4581 116.877 17.8716C116.632 17.6343 116.066 17.6343 115.661 17.6693C113.517 17.8577 112.19 19.1562 111.994 21.2994C111.799 23.4635 112.043 25.5997 112.483 27.722C113.706 33.6071 116.046 39.0454 119.161 44.1556C119.342 44.4558 119.398 45.0072 120.118 44.9025C120.048 44.0508 119.971 43.2131 119.915 42.3754C119.831 41.1746 119.754 39.9669 119.692 38.7662C119.664 38.2705 119.936 37.9703 120.404 37.8376L120.411 37.8516ZM130.176 143.204C130.337 143.315 130.344 143.86 130.707 143.385L130.162 143.28C129.778 142.834 129.464 142.303 129.003 141.947C123.296 137.472 117.561 133.039 111.855 128.557C110.737 127.678 109.55 127.112 108.146 126.861C102.607 125.877 97.6123 123.594 93.0302 120.361C92.4714 119.971 91.8846 119.628 91.1442 119.161C90.8788 121.73 90.7321 124.096 91.6052 126.421C92.1501 127.873 92.7159 129.325 93.2118 130.798C94.0291 133.242 93.3445 136.292 90.5925 137.996C87.5261 139.895 84.2711 141.186 80.632 141.291C78.5644 141.354 76.4899 141.27 74.4154 141.256C74.0382 141.256 73.5493 141.012 73.4096 141.807C75.987 143.134 78.6063 144.453 81.1907 145.836C85.0743 147.916 89.0139 149.899 92.7788 152.174C100.092 156.593 107.3 161.194 114.565 165.697C115.012 165.976 115.403 166.66 116.269 166.158C116.025 165.725 115.801 165.285 115.543 164.88C113.161 161.229 111.624 157.201 110.276 153.089C110.115 152.6 109.934 152.098 109.885 151.588C109.801 150.785 109.997 150.045 110.73 149.549C111.414 149.089 112.078 149.277 112.658 149.696C113.915 150.604 115.221 151.469 116.346 152.53C119.594 155.595 121.99 159.302 123.673 163.407C125.042 166.758 126.181 170.207 127.312 173.648C127.654 174.695 128.157 175.463 129.03 176.113C135.254 180.783 141.079 185.921 146.772 191.213C148.267 192.602 149.804 193.942 151.613 195.562C151.571 194.773 151.613 194.347 151.515 193.956C151.061 192.023 150.565 190.103 150.104 188.169C147.121 175.722 143.245 163.568 138.439 151.707C137.049 148.279 135.904 147.483 132.16 147.588C131.301 147.616 130.441 147.741 129.582 147.839C128.381 147.979 127.186 148.167 125.985 148.279C123.91 148.474 121.836 148.446 119.782 148.063C115.689 147.295 111.722 146.115 107.908 144.425C105.687 143.441 103.605 142.219 101.817 140.558C101.594 140.348 101.44 140.062 101.112 139.622C101.754 139.504 102.16 139.385 102.565 139.357C103.941 139.259 105.324 139.183 106.7 139.12C114.411 138.757 121.857 139.951 128.989 142.973C129.352 143.127 129.785 143.134 130.19 143.204H130.176ZM34.8109 124.138C35.2161 124.215 35.6771 124.187 36.0123 124.383C37.5909 125.269 39.1346 126.219 40.6992 127.133C41.1253 127.384 41.5654 127.608 42.0613 127.873C42.6061 127.329 43.0671 126.868 43.6259 126.309C42.8995 125.569 42.3267 124.941 41.7051 124.369C38.7784 121.653 36.2149 118.602 34.0775 115.251C31.8842 111.817 29.3766 108.654 26.7224 105.575C23.4325 101.771 19.3533 99.097 14.876 96.9608C13.025 96.0811 12.1728 96.3325 10.8038 97.9172C9.35791 99.5926 8.46378 101.561 8.03071 103.698C7.53478 106.148 7.10872 108.626 6.82933 111.105C6.45913 114.386 5.82355 117.583 4.69898 120.69C4.37767 121.583 4.09827 122.498 3.90269 123.426C3.37882 125.87 4.04233 128.02 5.59298 129.947C8.29615 133.311 11.8375 135.294 15.9656 136.404C19.7025 137.402 23.4674 137.458 27.2812 137.067C29.7119 136.816 32.0239 136.209 34.2172 135.127C35.0553 134.708 35.9006 134.289 36.8715 134.282C36.9134 134.442 36.9762 134.554 36.9413 134.603C36.7806 134.875 36.6409 135.21 36.4034 135.392C33.2113 137.793 29.6002 139.085 25.6258 139.364C23.7398 139.497 21.8469 139.573 19.9819 139.671C19.0319 140.858 18.2007 142.073 17.1949 143.12C14.5546 145.87 12.997 149.18 11.8306 152.754C10.4755 156.887 10.6641 160.894 12.4382 164.866C13.025 166.179 13.8911 167.247 15.0296 168.029C15.791 168.552 16.7409 168.873 17.649 169.097C20.9808 169.927 23.9144 171.498 26.6176 173.593C27.9796 174.647 29.3557 175.701 30.8155 176.615C32.0518 177.39 33.3511 178.151 34.7341 178.577C37.549 179.457 40.1963 179.059 42.3965 176.881C42.7668 176.518 43.1858 176.21 43.556 175.847C46.1753 173.334 48.6201 170.674 50.3594 167.442C50.8343 166.562 50.953 165.732 50.7575 164.726C50.0241 160.915 49.4094 157.082 48.7248 153.264C48.1311 149.954 47.5025 146.652 46.8529 143.35C46.7621 142.883 46.4617 142.464 46.2661 142.038C46.0217 142.115 45.903 142.115 45.875 142.171C45.7493 142.38 45.5747 142.596 45.5607 142.82C45.3442 147.441 44.0031 151.818 42.641 156.196C42.5292 156.559 42.5082 157.068 41.8098 156.984C42.0822 153.592 43.0391 150.289 43.2067 146.478C42.3965 147.253 42.2708 147.93 41.9775 148.502C41.7051 149.04 41.5513 149.682 40.6782 150.262C40.9925 149.152 41.23 148.419 41.4047 147.672C41.9146 145.487 42.4244 143.301 42.8785 141.102C42.9693 140.649 42.8157 140.139 42.7598 139.525C40.5805 140.711 39.1835 142.54 37.0671 144.209C38.0659 141.291 40.0845 139.741 41.5933 138.149C41.1462 136.09 40.7481 134.261 40.329 132.32C40.3779 132.355 40.315 132.285 40.2382 132.257C37.8563 131.245 35.4605 130.247 33.0786 129.22C31.968 128.746 30.8714 128.236 29.7678 127.74C29.6141 127.671 29.4605 127.58 29.3138 127.489C29.244 127.447 29.1532 127.391 29.1322 127.322C29.1112 127.252 29.1671 127.154 29.223 126.91C33.2393 127.782 37.095 129.255 40.9716 130.365C41.4326 129.863 41.4745 129.465 41.0484 129.144C39.407 127.887 37.7376 126.658 36.0961 125.395C35.6351 125.039 35.237 124.585 34.8109 124.173L34.8248 124.138H34.8109ZM56.7016 135.727C58.2104 136.802 59.8937 137.263 61.5631 137.675C67.6679 139.203 73.8426 139.518 80.0731 138.659C81.0929 138.519 82.1407 138.331 83.0837 137.954C84.9906 137.186 86.9603 136.537 88.497 135.008C89.3282 134.184 89.6984 133.311 89.419 132.236C89.1186 131.071 88.7763 129.898 88.2804 128.816C87.1349 126.337 86.5831 123.775 86.7018 121.032C86.7717 119.398 86.7507 117.744 86.611 116.117C86.1081 110.344 83.6424 105.575 79.193 101.806C76.1825 99.2575 72.8787 98.7759 69.2885 100.193C65.3071 101.771 61.7936 104.075 58.8809 107.251C58.392 107.788 58.0148 108.521 56.8623 108.717C57.4839 106.644 58.3431 104.905 59.5375 103.355C60.7948 101.743 62.1708 100.221 63.5189 98.6293C63.4281 98.2034 63.3722 97.7775 63.2465 97.3656C62.2966 94.28 60.676 91.5364 58.9298 88.8487C57.2744 86.3006 54.9274 85.1278 51.9379 85.1906C50.9041 85.2116 49.8704 85.3442 48.8506 85.4977C44.7994 86.0911 40.7621 86.0493 36.7388 85.2464C36.1451 85.1278 35.5443 85.037 34.9506 84.9533C33.4209 84.7299 32.2334 85.3791 31.3464 86.5449C30.8854 87.1523 30.4803 87.8784 30.3126 88.6114C29.9494 90.2031 29.6001 91.8226 29.5163 93.4423C29.3417 96.8281 29.8586 100.158 30.7597 103.418C31.4931 106.092 32.5548 108.605 34.1823 110.909C35.4186 112.661 36.4384 114.588 37.4303 116.501C39.2743 120.061 42.1032 122.819 44.8133 126.002C45.1276 125.437 45.4769 125.095 45.4699 124.76C45.456 124.082 45.2674 123.398 45.1207 122.721C44.066 117.73 43.4582 112.675 43.2067 107.586C43.1788 107.014 42.9274 106.406 43.3675 105.862C43.5002 105.952 43.7027 106.022 43.7376 106.134C45.5188 112.27 46.3709 118.588 47.1462 124.864C47.9216 125.095 48.5642 125.325 49.1859 124.774C48.9623 120.173 49.4792 115.628 50.045 111.084C50.0939 110.679 49.9472 109.981 50.8623 109.946C50.9321 115.223 51.0089 120.473 51.0788 125.772C51.9239 126.33 52.6993 126.84 53.4676 127.343C56.1289 125.891 58.6434 124.411 61.7307 124.627C59.3698 126.002 56.7785 126.973 54.7528 128.83C55.0043 129.681 55.5492 129.758 56.1987 129.556C59.4398 128.55 62.7855 128.243 66.1453 127.978C66.4805 127.95 66.8368 127.922 66.9206 128.536C63.6516 130.268 60.0055 130.805 56.3314 131.329C56.4571 132.83 56.5689 134.191 56.6946 135.727H56.7016ZM84.5715 78.5655C83.6076 79.487 82.7903 80.3736 81.8683 81.1276C80.4364 82.3004 78.6901 82.8379 76.9299 83.3126C72.5853 84.4855 68.1639 85.2325 63.6796 85.5606C63.016 85.6095 62.3664 85.7491 61.7168 85.8468C62.6388 87.7806 63.6586 89.5049 64.2873 91.3619C64.9368 93.2817 65.1953 95.3272 65.6424 97.3936C66.6831 96.9608 67.6051 96.4651 68.583 96.1859C73.8566 94.678 78.4946 95.8996 82.469 99.6275C85.0674 102.064 87.3654 104.759 88.7065 108.117C89.3491 109.729 90.348 110.811 91.9895 111.509C94.7904 112.703 97.2071 114.546 99.4423 116.606C101.154 118.183 102.858 119.782 104.478 121.457C106.316 123.37 108.593 124.585 110.94 125.66C111.813 126.065 112.602 126.414 113.272 127.175C114.16 128.18 115.592 128.802 116.807 129.032C116.493 128.543 116.234 128.097 115.934 127.678C115.026 126.414 114.062 125.192 113.189 123.908C109.857 119.049 107.175 113.82 104.458 108.612C104.262 108.235 104.094 107.809 104.045 107.398C103.962 106.623 104.395 106.099 105.037 105.722C105.561 105.415 106.036 105.541 106.476 105.876C107.161 106.406 107.866 106.909 108.495 107.495C116.199 114.679 121.396 123.412 124.385 133.472C124.728 134.617 125.203 135.441 126.153 136.174C128.541 138.017 130.833 139.992 133.172 141.898C133.487 142.15 133.857 142.331 134.423 142.68C134.283 142.15 134.255 141.912 134.164 141.703C131.447 135.448 128.751 129.186 125.545 123.147C121.284 115.133 116.877 107.223 111.282 100.025C107.566 95.2504 103.752 90.5661 99.7357 86.0423C97.291 83.2917 94.5878 80.9531 91.0325 79.7593C88.8951 79.0402 86.7508 78.4398 84.5785 78.5376L84.5715 78.5655ZM47.8727 142.743C48.3966 144.439 48.9414 145.884 49.2907 147.371C50.3663 151.902 51.3791 156.44 52.3989 160.985C52.9856 163.602 53.7889 166.144 54.8296 168.615C56.0939 171.631 58.0497 174.123 60.669 176.057C61.5631 176.713 62.576 177.265 63.6167 177.642C65.4398 178.298 67.179 178.074 68.6458 176.643C69.3234 175.98 70.0149 175.331 70.7203 174.702C72.3967 173.209 74.0452 171.673 76.0848 170.674C77.7053 169.872 79.3607 169.125 81.0092 168.385C83.0977 167.442 84.7601 165.99 86.2199 164.238C87.6169 162.562 87.6587 160.831 86.7786 158.939C86.0382 157.34 84.9067 156.035 83.6704 154.834C81.6308 152.852 79.5632 150.89 77.4398 149.005C72.243 144.391 66.5713 140.523 59.8937 138.324C59.3209 138.135 58.7761 137.863 58.2243 137.626C57.6096 137.361 57.009 137.081 56.3524 136.795C55.6888 138.045 55.1021 139.162 54.5503 140.209C55.7028 141.193 56.7925 142.045 57.7843 143.001C58.7762 143.958 59.6772 145.012 60.6132 146.024C61.8099 147.318 62.534 148.44 62.7855 149.389C59.7051 146.596 56.7785 143.944 53.8448 141.305C53.775 141.242 53.5584 141.354 53.3 141.403C53.2301 142.052 53.6841 142.45 54.0403 142.903C54.4105 143.378 54.7528 143.881 55.1161 144.363C55.4793 144.844 55.8494 145.326 56.2266 145.794C56.6038 146.261 57.0159 146.708 57.3862 147.19C57.7564 147.665 58.0986 148.167 58.4549 148.656C58.8041 149.145 59.1464 149.647 59.5096 150.129C59.8728 150.611 60.257 151.078 60.6272 151.553C61.0043 152.028 61.3815 152.496 61.7517 152.977C62.1219 153.459 62.4921 153.934 62.8274 154.436C63.1138 154.876 63.6726 155.211 63.5748 156.14C60.8996 154.206 58.9368 151.937 57.0369 149.633C55.0741 147.253 53.2301 144.774 51.3721 142.387C50.2266 142.513 49.2068 142.624 47.8727 142.771V142.743ZM157.298 205.426C157.801 207.905 158.234 210.006 158.646 212.107C159.708 217.532 161.35 222.788 162.97 228.059C163.445 229.609 164.213 230.663 165.848 230.984C166.016 231.019 166.162 231.117 166.323 231.18C174.831 234.447 182.758 238.74 189.946 244.374C190.323 244.667 190.763 244.891 191.42 245.303C187.983 238.231 164.046 210.201 157.298 205.419V205.426ZM115.389 9.60603C116.164 10.737 116.346 11.8609 116.716 12.8941C117.282 14.4718 117.261 14.4858 119.391 14.5068C119.454 13.6691 119.482 12.8174 119.58 11.9726C119.671 11.2117 119.503 10.353 120.292 9.55021C120.67 11.6096 120.418 13.5224 120.949 15.3235C122.297 15.9309 123.554 16.4336 125.133 16.0985C125.58 14.8349 125.901 13.4735 126.53 12.2728C127.424 10.5624 127.235 8.98472 126.481 7.34415C126.16 6.63906 125.894 5.91298 125.58 5.2009C124.972 3.82562 123.966 3.0926 122.416 2.93204C119.231 2.59694 116.052 2.56204 112.867 2.93204C112.197 3.00883 111.505 3.19735 110.898 3.48357C108.069 4.81697 105.058 9.21507 106.288 13.5154C106.406 13.9273 106.476 14.395 106.728 14.7092C107.58 15.7773 108.502 16.7896 109.361 17.7739C110.304 17.0339 111.17 16.1822 112.19 15.5958C113.272 14.9745 114.502 14.5975 115.633 14.1298C115.773 12.6428 114.893 11.2815 115.375 9.59904L115.389 9.60603ZM135.289 17.8438C138.16 21.0551 138.893 23.5124 138.069 27.9943C137.594 30.5633 136.735 32.9998 135.485 35.2826C134.199 37.6213 132.83 39.918 131.489 42.2288C130.895 43.255 130.288 44.2743 129.68 45.2935C131.748 43.6948 133.661 41.9774 135.408 40.1065C137.636 37.719 140.004 35.4292 141.722 32.6228C142.351 31.6035 143 30.5494 143.363 29.4254C144.544 25.7534 142.665 22.3047 138.963 21.076C138.726 20.9993 138.516 20.8596 138.292 20.7479C138.823 19.5681 140.15 20.0009 141.093 19.2818C141.261 17.4319 141.631 15.4981 141.226 13.4037C138.698 12.3216 136.211 11.1419 134.025 9.42451C133.64 9.12432 133.082 8.9917 132.586 8.9149C131.692 8.77528 130.881 9.04053 130.204 9.66185C128.975 10.7788 127.41 13.9343 127.082 16.1194C128.025 16.1194 128.947 16.1055 129.715 16.0985C131.391 14.1996 132.844 13.0338 134.074 12.601C133.389 13.5434 132.83 14.2694 132.32 15.0304C132.062 15.4143 131.901 15.8611 131.657 16.3568C132.565 16.6291 133.298 16.8524 134.115 17.0968C135.044 16.0775 135.925 15.1001 136.812 14.1228L137.084 14.3253C136.511 15.4632 135.932 16.6011 135.296 17.8577L135.289 17.8438ZM193.948 139.713C193.676 139.839 193.473 139.867 193.396 139.978C190.707 143.986 187.913 147.93 185.378 152.028C180.579 159.798 178.533 168.364 178.609 177.453C178.609 177.809 178.379 178.333 179.091 178.605C179.762 175.338 181.452 172.531 182.94 169.634C184.002 167.561 185.091 165.501 186.153 163.428C189.827 156.223 192.258 148.593 193.892 140.697C193.955 140.397 193.934 140.083 193.955 139.706L193.948 139.713ZM173.329 189.118C172.987 186.724 170.961 181.984 164.87 168.999C162.747 164.475 155.322 152.293 153.331 150.08C152.933 150.666 153.247 151.218 153.373 151.777C154.693 157.906 157.082 163.616 160.057 169.118C163.808 176.057 168.153 182.584 173.336 189.118H173.329ZM174.146 129.835C174.349 129.779 174.467 129.772 174.474 129.737C177.646 117.213 180.81 104.689 183.967 92.1647C183.988 92.088 183.967 91.9763 183.925 91.9134C183.897 91.8785 183.778 91.9064 183.701 91.8995C183.625 91.9344 183.527 91.9414 183.478 91.9972C183.303 92.1857 183.136 92.3811 182.996 92.5906C179.385 97.8962 176.584 103.6 174.614 109.708C172.463 116.368 172.749 123.063 174.146 129.821V129.835ZM238.861 138.547C238.1 139.036 237.653 139.231 237.325 139.546C234.901 141.863 232.533 144.244 230.074 146.534C224.842 151.407 221.692 157.403 220.309 164.37C220.239 164.719 220.316 165.096 220.337 165.948C222.342 163.777 224.095 162.053 225.52 159.986C227.182 157.578 228.915 155.218 230.731 152.928C233.804 149.061 236.43 144.935 238.274 140.341C238.456 139.888 238.582 139.413 238.861 138.554V138.547ZM52.0846 130.812C50.7156 128.683 49.3186 128.083 46.6364 128.145C45.2044 128.18 44.4151 128.83 43.9122 130.058C42.641 133.158 44.0659 137.465 46.9367 139.148C48.201 139.888 49.6189 139.79 50.8063 138.882C53.3558 136.921 53.8867 133.598 52.0916 130.812H52.0846ZM126.076 246.056C125.154 245.987 124.49 245.938 123.827 245.875C122.367 245.735 120.879 245.721 119.454 245.407C118.162 245.121 116.52 245.379 115.878 243.599C115.78 243.334 114.928 243.334 114.425 243.222C108.446 241.854 102.474 240.486 96.4947 239.131C96.3899 239.11 96.2502 239.257 96.1245 239.334C104.737 247.076 117.345 249.659 126.076 246.056ZM125.922 210.886C118.532 202.634 111.366 194.648 104.206 186.654C108.062 197.608 114.662 206.104 125.922 210.886ZM212.968 121.793C209.629 131.454 208.791 141.074 211.005 151.448C211.92 149.04 212.71 147.19 212.849 145.103C213.136 140.886 213.506 136.669 213.827 132.46C214.086 129.088 213.792 125.737 213.422 122.393C213.408 122.253 213.234 122.135 212.968 121.793ZM57.5398 82.6355C58.9857 83.5849 58.9857 83.5989 60.5154 83.5431C66.0474 83.3406 71.4817 82.4191 76.8601 81.1345C77.6145 80.953 78.3549 80.7087 79.0743 80.4294C80.1989 79.9896 80.8904 79.3893 81.5261 78.377C79.1652 78.2723 76.8322 77.8884 74.5481 78.377C69.2466 79.5289 63.9729 80.8065 58.6923 82.0561C58.3151 82.1469 57.9799 82.4051 57.5468 82.6285L57.5398 82.6355ZM127.543 144.935C125.908 144.404 124.274 143.874 122.646 143.336C116.849 141.43 110.905 140.488 104.807 140.488C104.437 140.488 103.92 140.272 103.738 140.879C109.249 144.384 120.306 146.443 127.543 144.935ZM124.462 172.315C123.163 169.18 122.066 166.381 120.851 163.637C119.231 159.993 117.156 156.635 114.181 153.92C113.908 153.668 113.503 153.571 112.916 153.277C114.404 158.946 116.506 164 119.908 168.426C121.04 169.906 122.262 171.365 124.462 172.315ZM143.259 91.704C143.65 91.4945 143.95 91.3898 144.181 91.2013C146.458 89.3513 148.777 87.5432 150.977 85.6025C154.183 82.7891 156.844 79.5219 158.709 75.6544C158.87 75.3263 159.219 74.9284 158.716 74.5654C153.08 78.0839 144.537 86.9847 143.259 91.697V91.704ZM126.041 189.118C126.167 190.054 126.132 190.403 126.264 190.675C128.192 194.738 130.141 198.794 132.949 202.341C135.366 205.398 138.258 208.002 141.303 210.432C141.499 210.585 141.729 210.69 142.036 210.872C142.036 210.369 142.085 210.195 142.022 210.083C141.128 208.603 140.234 207.123 139.312 205.664C139.04 205.231 138.67 204.854 138.348 204.449C135.547 200.938 132.753 197.426 129.952 193.915C128.793 192.462 127.606 191.024 126.048 189.105L126.041 189.118ZM51.6376 17.8926C51.0508 17.2434 50.6667 16.7826 50.2476 16.3568C47.7679 13.8436 47.1463 13.6062 43.9751 15.0792C41.1952 16.3707 38.8621 18.2556 38.0798 21.4669C37.996 21.823 38.0798 22.2139 38.0868 22.6119C38.3453 22.577 38.457 22.5979 38.5059 22.549C39.1625 21.8719 39.8121 21.1947 40.4547 20.5035C41.9984 18.856 44.2545 17.9554 46.7551 19.2609C47.279 19.5331 47.8378 19.7286 48.3896 19.959L51.6376 17.8856V17.8926ZM50.8971 59.6676C51.1137 60.0516 51.2743 60.4146 51.5118 60.7287C55.7167 66.3346 61.0183 70.635 67.2628 73.7835C68.2337 74.2722 68.8135 74.2861 70.4619 73.9929C69.959 73.6299 69.5678 73.3227 69.1487 73.0504C66.3059 71.2493 63.7005 69.148 61.1091 67.0187C58.2523 64.6801 55.3116 62.4392 52.3919 60.1703C52.0147 59.8771 51.6376 59.4791 50.9111 59.6676H50.8971ZM80.0383 42.8989C82.7903 47.3459 86.3037 51.039 90.1244 54.4597C94.7345 58.5786 96.4738 59.8561 98.2759 60.5542C98.4156 59.6467 97.8778 59.1231 97.3329 58.5786C94.6507 55.9118 91.9755 53.2311 89.3003 50.5573C86.7997 48.0581 84.2012 45.6845 81.3025 43.653C80.9044 43.3737 80.4644 43.1503 80.0453 42.8989H80.0383ZM83.2303 25.0692C82.6436 22.193 81.6239 20.4058 76.902 13.6481C73.7868 9.19417 72.732 8.00039 70.6785 6.74379C73.228 13.9483 76.9439 20.0917 83.2303 25.0692ZM42.8296 68.9036C35.9006 64.9314 29.2649 60.5123 22.6642 56.0305C22.5454 55.9537 22.3498 55.9956 22.1892 55.9816C25.2695 61.3641 35.7329 68.0449 42.8296 68.9036ZM94.4202 219.696C98.8556 225.944 108.376 232.401 113.566 232.946C107.475 227.975 101.07 223.71 94.4202 219.696ZM139.291 66.8722C138.621 68.3242 138.467 69.8531 138.292 71.3819C137.776 75.9406 137.762 80.5132 138.055 85.0789C138.202 87.3129 138.467 89.5398 138.698 91.7668C138.712 91.8715 138.935 91.9553 139.166 92.1298C139.326 91.6132 139.578 91.1525 139.606 90.6778C140.018 82.7542 140.018 74.8237 139.284 66.8722H139.291ZM134.542 231.271C133.382 230.565 132.181 229.923 131.077 229.141C129.03 227.703 127.033 226.188 125.028 224.694C121.976 222.432 118.944 220.15 115.885 217.909C115.137 217.357 114.425 216.68 113.21 216.652C119.245 223.263 125.789 228.862 134.548 231.271H134.542ZM35.8866 24.8598C34.287 24.5247 32.932 24.5805 31.7655 25.1878C30.4035 25.9069 28.9925 26.6051 28.1823 28.0432C27.2533 29.6698 26.897 31.4081 27.1066 33.265C27.2602 34.5984 27.358 35.9597 28.3708 36.9999L30.627 35.5619C30.3616 34.787 30.1101 34.1516 29.9215 33.4954C29.3906 31.6105 29.677 29.9001 31.1648 28.5318C31.982 27.7779 32.8481 27.0728 33.7282 26.3817C34.3778 25.8721 35.0763 25.4322 35.8796 24.8737L35.8866 24.8598ZM133.179 110.001C132.425 102.301 131.119 91.4456 129.429 89.4979C129.009 92.9326 131.671 107.488 133.179 110.001ZM121.137 130.952C120.97 130.582 120.837 130.191 120.635 129.842C119.035 127.091 117.47 124.32 115.794 121.618C114.299 119.21 112.679 116.871 111.093 114.518C110.877 114.204 110.639 113.75 109.955 114.092C112.798 120.271 116.52 125.87 121.131 130.952H121.137ZM111.1 167.24C109.354 165.599 109.263 165.515 107.831 165.543C105.163 165.599 102.509 165.857 99.8963 166.472C99.6798 166.521 99.5052 166.744 99.2677 166.912C102.076 167.568 108.313 167.763 111.093 167.24H111.1ZM166.246 236.709C168.244 236.82 169.941 236.918 171.645 237.009C171.729 237.009 171.841 237.03 171.883 236.988C171.925 236.932 171.911 236.827 171.925 236.618C169.836 235.683 167.783 234.552 165.17 234.084C165.59 235.11 165.904 235.878 166.246 236.709ZM83.6844 29.1043C81.3863 27.5755 79.3677 26.9471 76.9789 26.8703C78.8299 27.9943 80.3526 28.5179 83.6844 29.1043ZM90.795 24.3851C90.3549 25.3904 90.1594 26.0116 90.334 27.1984C90.7531 26.0884 90.9626 25.4672 90.795 24.3851ZM89.9149 30.7029L89.852 30.4936C89.7752 30.5704 89.6565 30.6332 89.6355 30.7169C89.6076 30.8216 89.6704 30.9473 89.6914 31.059C89.7612 30.9403 89.8381 30.8216 89.908 30.7029H89.9149ZM84.7321 71.8567L84.6483 71.4937C84.6483 71.4937 84.5505 71.5565 84.5575 71.5704C84.5854 71.6333 84.6204 71.6822 84.7321 71.8567Z" fill="#DCC8C2"/>
</svg>
