<svg width="86" height="85" viewBox="0 0 86 85" fill="none" xmlns="http://www.w3.org/2000/svg">
<ellipse cx="42.7773" cy="42.5" rx="42.6332" ry="42.5" fill="#BC8383"/>
<path d="M57.6657 42.5673C57.6719 44.9279 57.1188 47.2565 56.0515 49.3635C54.786 51.8883 52.8405 54.012 50.4329 55.4966C48.0254 56.9812 45.2509 57.7682 42.4201 57.7693C40.0528 57.7754 37.7175 57.2239 35.6045 56.1596L25.381 59.5577L28.7888 49.3635C27.7215 47.2565 27.1684 44.9279 27.1746 42.5673C27.1757 39.7447 27.9649 36.9781 29.4537 34.5775C30.9426 32.1768 33.0724 30.2369 35.6045 28.975C37.7175 27.9108 40.0528 27.3593 42.4201 27.3654H43.3169C47.0554 27.5711 50.5864 29.1445 53.234 31.7844C55.8815 34.4244 57.4594 37.9453 57.6657 41.6731V42.5673Z" stroke="#F0DDDD" stroke-width="2" stroke-linecap="round" stroke-linejoin="round"/>
</svg>
