<svg width="67" height="58" viewBox="0 0 67 58" fill="none" xmlns="http://www.w3.org/2000/svg">
<path d="M38.4175 0.302944C34.3304 0.643538 23.4739 9.45641 20.2383 12.096C15.172 16.3109 10.4462 20.6534 6.99771 24.2297C9.08385 18.397 11.4254 12.394 13.8522 6.26334C13.9373 6.05047 13.8522 5.8376 13.6393 5.75245C13.3838 5.6673 13.171 5.75245 13.0858 5.96532C10.4036 12.6921 7.80662 19.3336 5.59276 25.7198C4.27296 27.1673 3.2086 28.4445 2.48484 29.4663C2.44226 29.5515 2.39969 29.7218 2.44226 29.8069C2.48484 29.9346 2.56999 30.0198 2.65513 30.0624C2.78286 30.1901 3.25117 30.6584 3.71949 31.2119C2.44226 35.2138 1.33533 39.0881 0.441272 42.8346C0.398698 43.0475 0.483846 43.2178 0.696718 43.3029C0.739292 43.3455 0.781866 43.3455 0.867015 43.3455C0.994738 43.3455 1.12246 43.3029 1.20761 43.1752C1.33533 43.0049 1.59078 42.4089 2.14424 41.2168C2.44226 40.5356 2.91058 39.599 2.99573 39.4287C3.16602 39.2584 3.12345 39.0029 2.91058 38.8752C2.74028 38.7049 2.48484 38.7475 2.35711 38.9604C2.31454 38.9604 2.27197 39.0455 2.27197 39.0881C2.868 36.7465 3.59177 34.3624 4.40068 31.893C7.59375 35.4267 14.1502 42.4089 19.2591 42.4089C19.7274 42.4089 20.1532 42.3663 20.5789 42.2386C20.8343 42.196 20.9621 41.9406 20.8769 41.7277C20.8343 41.5148 20.5789 41.3871 20.366 41.4297C18.2799 42.0257 15.4274 40.8762 11.9363 38.0663C8.9987 35.7247 6.31652 32.7871 4.65612 30.999C5.20959 29.4237 5.76305 27.8059 6.31652 26.1455C9.76503 22.399 15.0442 17.5029 20.7492 12.7772C29.1363 5.79502 35.9482 1.3673 38.5027 1.15443C38.7155 1.11186 38.8858 0.898986 38.8858 0.686112C38.8433 0.473241 38.6304 0.302944 38.4175 0.302944ZM4.01751 30.2752C3.76206 29.9772 3.54919 29.7643 3.42147 29.6366C3.80464 29.0831 4.31553 28.4445 4.869 27.7633C4.57098 28.6148 4.31553 29.4663 4.01751 30.2752ZM31.3319 30.3178C31.1616 30.1901 30.9061 30.2326 30.7784 30.4029C30.1824 31.1267 28.3517 33.3831 26.3081 35.0861C24.222 36.8317 22.3913 37.5554 20.9863 37.2148C19.4537 36.8317 19.4962 35.3416 19.6665 34.4475C19.7091 34.1495 19.7943 33.8515 19.8794 33.5534C19.9646 33.596 20.0497 33.6812 20.1349 33.6812C21.5398 34.0643 23.5408 32.9148 24.6477 31.6376C25.3715 30.7861 25.6695 30.0624 25.4566 29.5089C25.3289 29.2109 25.0735 28.8703 24.3071 28.7851C23.1576 28.6574 21.8804 29.2534 20.7735 30.4881C19.7943 31.5525 19.0705 33 18.8151 34.3198C18.4745 36.2356 19.1982 37.598 20.7735 38.0237C21.0715 38.0663 21.4121 38.1089 21.7101 38.1089C23.2002 38.1089 24.9458 37.3 26.8616 35.7247C28.9477 33.9792 30.821 31.6802 31.417 30.9138C31.5448 30.7435 31.5448 30.4881 31.3319 30.3178ZM24.222 29.594C24.3497 29.594 24.6052 29.6792 24.6903 29.8069C24.7329 29.9772 24.5626 30.4455 24.0517 31.0841C23.0725 32.1485 21.3695 33.1703 20.3477 32.8723H20.22H20.1774C21.0289 31.0416 22.6893 29.4237 24.222 29.594ZM50.8499 30.2752C50.637 30.1901 50.3815 30.2752 50.2964 30.4455C49.1043 32.7871 44.9746 38.194 42.1647 37.2148C40.9726 36.7891 40.3766 34.9584 40.632 32.6168C43.0162 29.5089 45.1023 25.8049 46.337 23.1653C46.9756 21.8455 47.4439 20.696 47.6994 19.8445C48.0825 18.6525 48.04 18.0564 47.6142 17.8435C47.4439 17.7158 47.1885 17.6732 46.8053 17.8435C45.4855 18.4822 43.5697 22.101 43.0162 23.2079C41.4409 26.2732 40.334 29.4663 39.9083 31.8505C39.9083 32.0208 39.8657 32.1485 39.8657 32.3188C39.0142 33.3831 38.1627 34.3198 37.3964 35.0861C36.034 36.3633 34.1182 37.8109 32.6281 37.2148C31.3934 36.7465 30.9251 34.8732 31.3508 32.1485C31.3934 31.7227 31.4786 31.3396 31.5637 30.9138C32.6707 29.594 35.0974 25.6772 37.3112 21.5901C38.8013 18.8227 41.3132 13.9693 41.1855 12.5643C41.1429 12.3515 41.0578 12.1386 40.9301 12.0534C40.7598 11.9257 40.4617 11.7554 39.9934 11.9257C38.631 12.4792 36.3746 16.2683 34.7568 19.6317C32.6281 24.0594 31.0103 28.7 30.5419 32.0208C30.031 35.2138 30.7122 37.3851 32.3301 38.0237C32.6707 38.1515 33.0112 38.194 33.3944 38.194C35.14 38.194 37.3112 36.7039 39.738 33.7237C39.7806 35.895 40.5469 37.5554 41.9093 38.0237C43.4419 38.5346 45.4004 37.7257 47.4865 35.597C49.1895 33.894 50.5518 31.8079 51.0202 30.8287C51.1479 30.6158 51.0627 30.4029 50.8499 30.2752ZM43.9528 23.2079C45.5281 20.1 46.7202 18.8227 47.1459 18.6099C47.1459 19.3336 46.2093 21.8455 44.2934 25.3792C43.2716 27.295 42.1221 29.1257 41.0152 30.7435C41.5687 28.4871 42.5905 25.7624 43.9528 23.2079ZM40.0786 12.8624C40.2063 12.7346 40.2914 12.6921 40.334 12.6921C40.3766 13.2455 39.6528 15.502 36.6726 20.994C35.0974 23.9317 33.3518 26.8693 32.1172 28.7425C33.9905 22.1861 38.1627 14.2247 40.0786 12.8624ZM66.2601 30.4029C66.1324 30.2326 65.8769 30.1901 65.7066 30.3178C58.5967 35.7673 53.6581 49.5188 51.7848 54.9683C51.9551 54.0317 52.3383 52.7544 52.8918 51.0515C53.9135 47.8158 55.4462 43.9416 56.8937 40.195C58.0858 37.0445 59.2353 34.1069 60.0017 31.8079C61.1512 28.5297 61.1512 27.5505 60.8531 27.1247C60.7254 26.9544 60.5551 26.8693 60.3423 26.8693C59.4056 26.8693 58.3413 28.1891 56.5531 30.5732C54.8927 32.7445 52.6363 35.7247 51.3591 35.4267C51.1036 35.3841 50.9333 35.2138 50.8056 34.9584C50.2947 33.8515 50.8056 31.297 51.6145 29.6366C51.6997 29.4237 51.6145 29.1683 51.4442 29.0831C51.2314 28.9554 50.9759 29.0406 50.8482 29.2534C49.9541 31.1267 49.4007 33.9366 50.0819 35.299C50.2947 35.8099 50.6779 36.1505 51.1888 36.2356C51.3165 36.2782 51.4017 36.2782 51.5294 36.2782C53.2324 36.2782 55.2333 33.6386 57.1918 31.0841C57.9155 30.1475 58.5967 29.2534 59.1502 28.6148C59.7036 27.9762 60.0442 27.7633 60.2145 27.7208C60.2145 28.0188 60.1294 28.9128 59.1927 31.6802C58.4264 33.9366 57.3195 36.8317 56.1274 39.897C52.3809 49.4762 50.0393 55.9049 50.9333 57.693C51.0185 57.8208 51.1462 57.9059 51.3165 57.9059C51.6571 57.8633 51.7423 57.6505 51.9126 57.1822C51.9977 56.8841 52.1254 56.501 52.3383 55.9475C53.9561 51.1366 58.9799 36.5336 66.1749 30.999C66.3878 30.8287 66.4304 30.5732 66.2601 30.4029Z" fill="#8C5554"/>
</svg>
