<svg width="133" height="133" viewBox="0 0 133 133" fill="none" xmlns="http://www.w3.org/2000/svg">
<path fill-rule="evenodd" clip-rule="evenodd" d="M101.521 122.68C120.271 110.951 132.741 90.1171 132.741 66.3707C132.741 29.7152 103.026 0 66.3707 0C29.7152 0 0 29.7152 0 66.3707C0 96.4999 20.076 121.94 47.5804 130.044C47.2789 127.79 47.0683 125.522 46.858 123.257C46.7298 121.876 46.6016 120.496 46.4531 119.122C46.1328 116.245 45.6994 113.349 44.9645 110.548C44.6065 109.138 44.1542 107.765 43.6266 106.411C43.3991 105.835 43.1401 105.274 42.8812 104.713C42.5398 103.972 42.1987 103.232 41.9307 102.462C41.9119 102.387 41.9496 102.312 42.0061 102.312C41.9684 102.284 41.9354 102.26 41.9024 102.237C41.8695 102.213 41.8365 102.19 41.7988 102.162C41.5727 102.011 41.8365 101.673 42.0626 101.823C42.0859 101.841 42.1075 101.858 42.1283 101.875C42.1748 101.913 42.2178 101.948 42.2699 101.974C42.251 101.861 42.3641 101.71 42.4772 101.785C46.5285 104.079 50.0899 107.201 53.2179 110.623C56.0255 113.707 58.4563 117.129 60.4537 120.796C62.5103 124.589 63.9586 128.596 65.1471 132.73C65.5541 132.738 65.962 132.741 66.3707 132.741C69.0754 132.741 71.7423 132.58 74.3623 132.265C74.5527 128.97 74.9726 125.697 75.6038 122.431C75.9038 120.891 76.2328 119.355 76.562 117.818C77.2252 114.721 77.8891 111.621 78.3172 108.479C78.6376 106.185 78.8448 103.873 78.8071 101.56C78.7883 100.939 78.7506 100.319 78.6941 99.6983C78.5999 99.6231 78.5245 99.5103 78.4868 99.3599C78.2607 98.5325 77.7896 97.818 77.2055 97.1975C76.9228 96.8779 76.6025 96.6146 76.2445 96.389L75.5096 95.9377C75.4719 95.9753 75.3777 96.0129 75.34 95.9377C75.2834 95.8437 75.2269 95.7496 75.1515 95.6744C74.8877 95.6368 74.6428 95.5992 74.379 95.5428C71.8069 94.9221 69.4297 93.5382 67.1405 92.2054C66.8638 92.0443 66.5883 91.8839 66.314 91.7258C61.1698 88.7737 56.1386 85.4643 51.5597 81.666C48.6013 79.2216 45.8124 76.4388 43.7208 73.2046C43.6455 73.1858 43.5889 73.167 43.5324 73.1106C43.3298 72.9354 43.1563 72.7409 42.9841 72.5479C42.916 72.4716 42.8481 72.3955 42.7787 72.3209C42.5525 72.0764 42.3264 71.832 42.1191 71.5875C42.0815 71.5405 42.0485 71.4982 42.0155 71.4559C41.9825 71.4136 41.9495 71.3713 41.9119 71.3243C41.9119 71.3055 41.8742 71.3055 41.8742 71.3055C38.5766 68.297 35.9385 64.6115 34.1861 60.5124C30.8697 52.8031 30.945 43.834 34.3369 36.1623C35.0529 34.5264 35.9197 32.6837 37.5402 31.7811C39.3115 30.7846 41.1581 31.7059 42.5525 32.9094C43.4193 33.6615 44.2673 34.4888 45.0776 35.3537C45.5675 33.9811 46.1893 32.6461 46.83 31.3487C47.5649 29.8632 48.394 28.4342 49.3927 27.118C51.0132 24.9932 53.1237 23.1693 55.6298 22.1727C58.3056 21.1009 61.1321 21.2325 63.789 22.2855C66.3705 23.3009 68.7825 24.9744 70.761 26.9111C71.7032 27.8137 72.5512 28.8291 73.2484 29.9384C73.7571 30.7282 74.3413 31.7059 74.5674 32.6837C75.7545 29.6188 77.3185 26.6855 79.2405 24.0154C80.8045 21.8154 83.7441 19.1266 86.4764 21.2702C87.495 22.0768 88.139 23.2573 88.7536 24.3839C88.8554 24.5703 88.9563 24.7552 89.0579 24.9368C89.9246 26.4409 90.7536 27.9637 91.5826 29.4866L91.5829 29.4872C94.8617 35.5606 97.7824 41.9349 98.913 48.7793C99.4595 52.1074 99.5537 55.5108 99.0826 58.8578C98.6304 62.1295 97.6694 65.2885 96.4445 68.3534C94.4095 73.3926 91.6583 78.1686 88.6434 82.719C88.1346 84.3737 87.4751 85.972 86.6648 87.495C85.9299 88.8489 85.0631 90.1651 84.0833 91.3685C83.9854 91.801 83.7216 92.2334 83.4765 92.6352C83.3913 92.7749 83.3083 92.911 83.2354 93.042L82.1047 95.1292C81.729 95.804 81.3533 96.4976 80.9776 97.1912L80.9742 97.1975C80.7292 97.6864 80.4654 98.1941 80.145 98.6265C80.1262 99.1154 80.1073 99.6043 80.0508 100.093C80.032 100.319 80.0084 100.545 79.9848 100.77C79.9613 100.996 79.9377 101.221 79.9189 101.447L79.9189 101.448C79.9 101.635 79.8812 101.823 79.8435 102.03C79.9724 107.38 78.8671 112.704 77.7697 117.99C77.2627 120.432 76.7575 122.865 76.3764 125.289C76.0234 127.556 75.8029 129.824 75.6888 132.092C76.816 131.934 77.934 131.747 79.0423 131.533C79.4601 130.275 79.9276 129.033 80.4465 127.809C82.5004 122.92 85.4589 118.596 88.6245 114.384C89.0105 113.869 89.399 113.356 89.788 112.841C92.5141 109.238 95.2618 105.605 97.2737 101.541C98.4231 99.2283 99.1957 96.8402 99.8175 94.3394C100.27 92.4967 100.76 90.5224 101.853 88.9617C101.9 88.66 101.947 88.3631 101.994 88.0661C102.041 87.7708 102.088 87.4754 102.135 87.1754C102.211 86.6113 103.059 86.6677 103.096 87.1754C103.36 86.7993 104.038 86.9121 104.095 87.401C104.208 87.4574 104.302 87.5515 104.359 87.7019C104.981 89.3378 105.301 91.0865 105.546 92.8164C105.81 94.5651 105.942 96.3137 105.998 98.0812L106.036 98.1565C106.13 101.635 105.866 105.095 105.32 108.536C104.534 113.396 103.192 118.092 101.521 122.68ZM99.7242 123.765C101.814 118.18 103.455 112.41 104.208 106.486H104.227C104.604 103.44 104.754 100.356 104.604 97.2915C104.509 95.7496 104.359 94.189 104.114 92.6471C104.026 92.0478 103.904 91.4371 103.783 90.8327C103.748 90.6597 103.714 90.4871 103.68 90.3155C102.738 96.0881 101.74 101.88 100.27 107.558C98.5521 114.194 96.1462 120.593 93.5706 126.93C95.6828 125.98 97.7363 124.922 99.7242 123.765ZM92.3651 127.458C93.047 125.742 93.7193 124.024 94.3717 122.3C96.4822 116.734 98.3854 111.093 99.7421 105.302C100.797 100.808 101.589 96.2385 102.324 91.6694C101.325 96.5958 99.9306 101.466 98.2535 106.204C96.2749 111.77 93.8253 117.148 90.98 122.319C90.3761 123.42 89.7604 124.516 89.1445 125.613C88.4237 126.896 87.7027 128.18 87.0002 129.473C88.8245 128.877 90.6142 128.204 92.3651 127.458ZM86.1002 129.76C86.9125 128.239 87.7549 126.732 88.5972 125.226C89.4589 123.685 90.3204 122.144 91.1496 120.589C93.9195 115.399 96.2184 109.965 98.0651 104.38C99.2334 100.827 100.194 97.2163 100.948 93.5497C100.844 93.9539 100.746 94.3582 100.647 94.7625C100.548 95.1667 100.449 95.571 100.345 95.9753C99.6479 98.6829 98.5738 101.24 97.2171 103.685C95.2591 107.232 92.8317 110.478 90.4062 113.722C89.7971 114.537 89.1882 115.351 88.5869 116.17C85.4777 120.382 82.7266 124.782 80.8422 129.689C80.6398 130.218 80.4469 130.75 80.2631 131.285C82.2429 130.863 84.1901 130.354 86.1002 129.76ZM64.019 132.7C62.8341 128.451 61.3304 124.333 59.2101 120.457C57.2127 116.79 54.7442 113.368 51.9177 110.285V110.303C50.2783 108.536 48.507 106.919 46.6604 105.396C48.8839 107.389 50.8813 109.645 52.6337 112.071C55.1776 115.606 57.1562 119.536 58.4752 123.691C59.3767 126.559 59.8941 129.513 60.386 132.475C61.588 132.583 62.7993 132.658 64.019 132.7ZM59.7869 132.419C59.2639 129.266 58.7056 126.122 57.6649 123.09L57.6838 123.071C54.9892 115.211 49.9015 108.254 43.2874 103.215C45.0399 105.095 46.6792 107.069 48.2244 109.119C49.9391 111.413 51.5408 113.782 52.8787 116.32C54.047 118.539 55.008 120.89 55.6487 123.334C56.3593 126.058 56.6245 128.894 56.8863 131.694L56.8923 131.758C56.9022 131.863 56.9122 131.968 56.9223 132.074C57.8708 132.209 58.8258 132.324 59.7869 132.419ZM56.1921 131.966C56.1836 131.876 56.175 131.787 56.1665 131.698C56.1205 131.216 56.0744 130.735 56.0255 130.254C55.7617 127.508 55.3849 124.763 54.5369 122.112C53.7643 119.667 52.6714 117.355 51.3901 115.136C49.4136 111.726 46.9607 108.673 44.5078 105.62C44.2012 105.238 43.8946 104.857 43.5889 104.474L43.5896 104.476C43.6836 104.663 43.7776 104.851 43.8716 105.057C44.5311 106.035 45.0964 107.069 45.6617 108.103C46.4531 109.57 47.1692 111.074 47.791 112.616C48.997 115.587 49.9391 118.671 50.561 121.83C51.074 124.39 51.3513 126.992 51.6285 129.593C51.6833 130.107 51.7381 130.622 51.7947 131.136C53.2432 131.46 54.7096 131.738 56.1921 131.966ZM51.2358 131.008C51.1875 130.568 51.1402 130.128 51.0929 129.687C50.7506 126.499 50.4082 123.31 49.6753 120.175C49.0158 117.355 48.1113 114.572 46.9619 111.902C46.3966 110.585 45.7747 109.288 45.1152 108.028C45.0964 107.991 45.0728 107.953 45.0493 107.915C45.0257 107.878 45.0022 107.84 44.9833 107.803C45.3414 108.818 45.6805 109.852 45.9443 110.905C46.7546 114.008 47.2069 117.185 47.6026 120.363C47.764 121.643 47.9073 122.93 48.0507 124.217C48.2803 126.279 48.5103 128.344 48.8161 130.395C49.6167 130.614 50.4234 130.818 51.2358 131.008ZM83.7604 89.7926C83.4784 90.1863 83.159 90.5799 82.8396 90.9548C78.3172 85.0318 74.0398 78.9396 70.045 72.6593C65.9748 66.2286 62.1685 59.6099 58.6636 52.8596C57.7026 50.998 56.7604 49.1177 55.8371 47.2562C55.4959 46.5681 55.166 45.8744 54.8364 45.1816C54.3105 44.0759 53.7855 42.9724 53.2179 41.8973C54.1224 41.5776 55.0645 41.352 56.0255 41.2204C59.097 42.781 61.4336 45.3759 63.5817 47.9895C65.9937 50.9604 68.368 53.9501 70.6668 56.9963C75.2269 63.0509 79.3725 69.5756 81.709 76.8336C83.0092 80.9139 83.7441 85.1823 83.6122 89.4694C83.6122 89.61 83.6616 89.7177 83.7604 89.7926ZM86.6648 84.5993C87.7389 81.9857 88.3984 79.2028 88.6245 76.3824L88.6057 76.4011C89.416 66.5483 84.9501 57.1655 77.865 50.4903C74.1717 47.0117 69.7812 44.022 64.995 42.2921C62.3569 41.3332 59.4362 40.8631 56.6474 41.1263C60.0203 42.5742 62.47 45.5075 64.75 48.3092C69.7435 54.439 74.7747 60.6253 78.5245 67.6201C82.0482 74.1448 84.4413 81.4216 84.3848 88.8865C85.0255 87.9275 85.5719 86.931 86.0619 85.9156C86.0053 85.8404 85.9676 85.7087 86.043 85.5959C86.1466 85.4267 86.2503 85.2622 86.3539 85.0976C86.4576 84.9331 86.5612 84.7686 86.6648 84.5993ZM87.8331 62.8628C88.1346 63.6338 88.3984 64.4047 88.6434 65.1945C90.0755 69.9893 90.3393 75.1413 89.3217 80.049C89.531 79.2292 89.7562 78.4126 89.9816 77.5952C90.3042 76.4253 90.6273 75.254 90.9046 74.0696C91.4133 71.9072 91.8091 69.7448 92.1106 67.5636C93.1846 59.7791 93.015 51.863 91.6772 44.1349C90.6973 38.4187 89.0391 32.8153 86.7779 27.4752L86.7785 27.4774C86.9855 28.2476 87.1926 29.0178 87.3809 29.788C88.6999 35.2033 89.4348 40.7691 89.5479 46.3536C89.6044 49.0801 89.4913 51.7878 89.2652 54.4954C89.1522 55.9057 88.9826 57.3159 88.7941 58.7074C88.7676 58.8955 88.7418 59.0848 88.7159 59.2748C88.558 60.4327 88.3965 61.6167 88.0404 62.7312C88.0027 62.8441 87.9274 62.8628 87.8331 62.8628ZM87.5869 24.4512C87.0022 23.3988 86.3407 22.2081 85.2139 21.7214C85.1988 21.7164 85.185 21.7114 85.1723 21.7067C85.1372 21.6939 85.1096 21.6838 85.082 21.6838C87.1359 25.6137 88.8318 29.7316 90.132 33.9811C92.4309 41.5212 93.5615 49.3809 93.4861 57.2783C93.4485 61.2458 93.1281 65.2132 92.4874 69.1243C92.1671 71.0798 91.7525 73.0354 91.2814 74.9533C90.9611 76.2507 90.6219 77.567 90.1886 78.8456C92.5817 74.8969 94.8052 70.8542 96.3503 66.4731C97.4055 63.4645 98.1404 60.3244 98.3854 57.1467C98.6492 53.9501 98.3665 50.716 97.707 47.5758C96.3503 41.0699 93.3731 34.9777 90.2262 29.1863C89.4348 27.7196 88.6245 26.2718 87.7954 24.824C87.7266 24.7027 87.6573 24.578 87.5869 24.4512ZM86.3257 29.1111C85.9488 27.7573 85.5342 26.4222 85.082 25.0872H85.0632C84.9502 24.7491 84.8184 24.4109 84.6866 24.0727L84.6863 24.0718C84.6957 24.1094 84.7098 24.147 84.724 24.1847C84.7381 24.2223 84.7522 24.2599 84.7617 24.2975C85.1385 25.4069 85.4212 26.5351 85.6473 27.6632C86.4387 31.7623 86.2503 36.0495 85.1573 40.0922C84.592 42.1229 83.8195 44.1161 82.8019 45.9776C82.2932 46.8801 81.7656 47.7639 81.1626 48.61C80.8423 49.0612 80.5032 49.4936 80.1641 49.926L80.1639 49.9262C80.1165 49.984 80.0706 50.0417 80.0254 50.0986C79.9087 50.2456 79.7962 50.3872 79.674 50.5092C80.1827 51.0168 80.6727 51.5245 81.1437 52.051C83.8383 55.0783 86.0807 58.5757 87.607 62.3364C87.7036 61.5116 87.8491 60.6929 87.9948 59.8734C88.1049 59.2543 88.215 58.6347 88.3042 58.0116C88.5303 56.4886 88.6999 54.9467 88.7941 53.4048C89.1522 47.9143 88.9072 42.405 88.0404 36.9896C87.6259 34.3384 87.0605 31.7059 86.3257 29.1111ZM83.16 21.7967C82.4628 22.0975 81.8409 22.6052 81.351 23.1129L81.3322 23.1317C80.9553 23.5265 80.6161 23.9402 80.2958 24.3727C80.9176 24.7487 81.3699 25.5385 81.6713 26.1214C82.1047 26.9299 82.3497 27.8325 82.5381 28.735C83.2353 32.1572 83.0092 35.7862 82.1047 39.152C81.6337 40.9007 80.9553 42.5742 80.1073 44.1725C79.3348 45.6015 78.4114 47.0493 77.2243 48.1963C77.8273 48.704 78.4114 49.2305 78.9767 49.7758C79.0941 49.6162 79.2235 49.4686 79.3513 49.3228C79.4493 49.211 79.5463 49.1003 79.6363 48.9861C79.9754 48.5724 80.2958 48.1211 80.6161 47.6699C81.2568 46.7485 81.8221 45.8084 82.3308 44.8118C84.1587 41.2204 85.1574 37.2153 85.2893 33.1726C85.3646 31.1418 85.1951 29.1111 84.7993 27.118C84.5921 26.1214 84.3471 25.1248 84.0268 24.1658C83.8949 23.771 83.7441 23.3761 83.5934 22.9813C83.4426 22.5864 83.2919 22.1915 83.16 21.7967ZM79.9189 24.8992C79.4667 25.5385 79.0333 26.2154 78.6376 26.8735L78.6941 26.8547C78.2795 27.5128 77.8838 28.2085 77.507 28.9043C77.507 28.9121 77.5134 28.9198 77.521 28.929C77.5317 28.9419 77.5446 28.9574 77.5446 28.9795C78.5622 31.9504 78.7883 35.0905 78.3738 38.193C77.9781 41.1264 76.9793 44.1348 75.2081 46.5229C75.3571 46.6419 75.5062 46.7596 75.6549 46.877C76.0702 47.2048 76.4828 47.5306 76.8851 47.8767C77.074 47.604 77.2647 47.3332 77.4553 47.0626C78.3293 45.8213 79.2005 44.5841 79.8812 43.1947C81.3699 40.205 82.199 36.8956 82.2932 33.5487C82.3497 31.894 82.2178 30.2017 81.8409 28.5846C81.6525 27.7949 81.4075 27.0239 81.0118 26.3094C80.8234 25.9521 80.5784 25.6137 80.3146 25.3128C80.1828 25.1625 80.051 25.031 79.9192 24.8995L79.9189 24.8992ZM77.8085 38.1554C78.1665 35.3914 77.8273 32.5709 76.9793 29.9196H76.9605C74.6428 34.6016 73.2672 39.7161 72.9657 44.9246V44.9622C73.625 45.3945 74.2654 45.8643 74.9057 46.3342L74.9066 46.3348C76.3764 43.7776 77.4316 41.0887 77.8085 38.1554ZM69.3101 26.8359C67.3127 25.0684 64.9573 23.4701 62.3946 22.6992C61.4524 22.4172 60.5103 22.2855 59.5681 22.2855C60.8494 22.9624 62.0743 23.8462 63.2049 24.7299C64.6369 25.8205 65.9748 27.0051 67.2185 28.3025C69.6493 30.8222 71.7221 33.7743 73.2484 36.9332C73.531 35.8991 73.8325 34.8649 74.1905 33.8495C74.0963 33.8119 74.021 33.7555 73.9644 33.6803C73.7557 33.3185 73.611 32.9249 73.4669 32.5328C73.3639 32.2523 73.2611 31.9726 73.1353 31.7059C72.8527 31.0854 72.5135 30.5025 72.1366 29.9572C71.3264 28.8102 70.3653 27.7761 69.3101 26.8359ZM60.258 23.3247C59.7559 22.9968 59.2532 22.6685 58.7578 22.3231L58.7767 22.3419H58.7201C59.0778 22.6833 59.4097 23.0502 59.7266 23.4005C59.7937 23.4748 59.8602 23.5482 59.9261 23.6206C60.5668 24.3163 61.1886 25.0308 61.7728 25.7641C65.8806 30.9162 68.8202 36.952 70.3653 43.3639C70.9118 43.6648 71.4582 43.9844 72.0047 44.3229C72.0424 43.6648 72.0989 43.0067 72.1743 42.3485C72.3627 40.7691 72.6642 39.1896 73.0599 37.6477C72.9469 37.6477 72.815 37.5913 72.7585 37.4597C71.1756 34.282 69.1782 31.3675 66.7663 28.7726C65.5603 27.4752 64.2789 26.253 62.8845 25.1624C62.0405 24.4886 61.1502 23.9073 60.258 23.3247ZM57.9402 22.4415C57.8013 22.4586 57.6501 22.4773 57.5142 22.5112C57.3446 25.4445 57.288 28.359 57.6461 31.2923C57.8157 32.7589 58.0983 34.2256 58.4563 35.6546C58.6448 36.3879 58.8332 37.1213 59.0593 37.8546C59.1214 38.0589 59.2038 38.2733 59.2879 38.492C59.4591 38.9374 59.637 39.4001 59.6623 39.8289C62.8091 40.0546 65.9183 41.0699 68.7636 42.499C68.8955 42.5742 69.0275 42.6447 69.1594 42.7152C69.2913 42.7857 69.4231 42.8563 69.5551 42.9315C69.1593 41.352 68.6883 39.7725 68.1041 38.2307C66.9547 35.1845 65.4849 32.2512 63.6948 29.5248C62.7903 28.1521 61.8105 26.8359 60.7741 25.5573C60.2841 24.9368 59.7565 24.3351 59.2289 23.7522C59.0766 23.5858 58.9132 23.4221 58.7483 23.257C58.4846 22.993 58.2171 22.7252 57.9852 22.436C57.9704 22.4378 57.9554 22.4397 57.9402 22.4415ZM57.0808 22.624C56.6285 22.7556 56.1763 22.906 55.724 23.0941L55.7052 23.0565C55.6393 23.1599 55.5686 23.2586 55.4979 23.3573C55.4273 23.456 55.3566 23.5548 55.2907 23.6582C55.0457 24.0154 54.8007 24.3915 54.5746 24.7676C54.1224 25.5009 53.7078 26.253 53.3121 27.0051C52.5772 28.4718 51.9554 29.976 51.4655 31.5367C50.9567 33.1162 50.5986 34.7521 50.3914 36.4067C50.2783 37.2529 50.2029 38.099 50.1653 38.9452C50.1584 39.2449 50.1714 39.5544 50.1844 39.8658C50.2074 40.4141 50.2305 40.968 50.1464 41.4836C50.1276 41.6904 49.9391 41.7469 49.7884 41.6904L49.7886 41.6908C49.8639 41.8035 49.9392 41.9162 49.9957 42.0289C50.8436 41.4836 51.7481 41.0323 52.7091 40.6939C54.7254 39.9606 56.7981 39.6973 58.8709 39.7725C58.6872 39.3929 58.5675 38.9312 58.4544 38.4953C58.4051 38.3052 58.3571 38.1199 58.3056 37.9486L58.3055 37.9484C58.1171 37.2527 57.9287 36.5571 57.778 35.8614C57.4576 34.3948 57.2127 32.8906 57.0431 31.3863C56.7227 28.5094 56.6474 25.5009 57.0808 22.624ZM49.2043 28.9043C48.4317 30.0701 47.791 31.2923 47.188 32.5333L47.1692 32.5521C46.9078 33.0917 46.6637 33.6399 46.4203 34.1864C46.1549 34.7825 45.8903 35.3767 45.6052 35.9555C47.1126 37.6289 48.4505 39.4529 49.5811 41.3708C49.4727 40.7523 49.5171 40.0449 49.5573 39.4052C49.5659 39.267 49.5744 39.1319 49.5811 39.0016C49.6188 38.1366 49.6942 37.2529 49.8072 36.3879C50.0333 34.7144 50.3914 33.0598 50.9001 31.4427C51.4278 29.8068 52.0873 28.1897 52.8787 26.6667C53.2556 25.9145 53.689 25.1812 54.1412 24.4855C54.2456 24.3293 54.35 24.1615 54.4576 23.9886C54.5442 23.8493 54.6329 23.7067 54.7253 23.5642C52.4265 24.8052 50.6175 26.7419 49.2043 28.9043ZM43.5136 35.3537C42.7598 34.5828 41.9872 33.7931 41.1016 33.1726H41.0827C40.5174 32.7589 39.8203 32.4393 39.1042 32.4581C39.5473 33.1682 39.8948 33.9644 40.2352 34.7443C40.3724 35.0589 40.5086 35.3708 40.6494 35.6734C41.2147 36.8768 41.78 38.099 42.3264 39.3024C42.6091 39.9229 42.8964 40.5434 43.1838 41.1639C43.4712 41.7844 43.7585 42.405 44.0412 43.0255C44.1618 43.2791 44.2854 43.5337 44.4094 43.7893C44.828 44.6517 45.252 45.5253 45.5863 46.41C46.6227 45.2442 47.791 44.1913 49.0723 43.2699C48.9593 43.0443 48.9781 42.781 49.2043 42.593C48.149 40.9759 47.0561 39.3777 45.8124 37.8734C45.0776 37.0084 44.3238 36.1623 43.5136 35.3537ZM38.6143 32.5333C38.4635 32.5709 38.3316 32.6273 38.1997 32.7025H38.1809C37.5779 39.4529 38.6331 46.2408 41.8176 52.2578C42.6656 50.3211 43.7774 48.5348 45.1341 46.9177C44.6711 46.1221 44.3047 45.2564 43.9389 44.3923C43.7688 43.9903 43.5988 43.5887 43.4193 43.1947L41.78 39.5657C41.2153 38.3073 40.6507 37.0677 40.086 35.8282L40.0841 35.8238C39.9582 35.5485 39.8248 35.2719 39.6908 34.9937C39.3029 34.1892 38.9088 33.3716 38.6708 32.5333H38.6143ZM35.8255 35.5418C35.3167 36.858 35.0529 38.2494 34.9398 39.6785V39.6973C34.7891 41.9161 35.0152 44.1161 35.3355 46.2972C35.7124 48.7604 36.24 51.2049 36.8807 53.6117C37.8417 57.2219 39.0665 60.7569 40.329 64.2731C39.7826 60.5312 40.1406 56.639 41.4973 53.0852C38.3505 46.9741 36.8053 39.8289 37.7852 32.9658C37.3895 33.2478 37.0314 33.6239 36.7488 34.0187C36.3908 34.4888 36.1081 35.0153 35.8255 35.5418ZM34.318 39.3212C33.0932 43.0631 32.6032 47.0493 32.9047 50.9604L32.8859 50.9416C33.4512 58.1432 36.7488 65.0064 41.9872 70.0081C41.9495 69.9266 41.9097 69.845 41.8699 69.7635C41.7904 69.6006 41.7109 69.4377 41.6481 69.2747C41.5574 69.0487 41.4789 68.8105 41.4028 68.5796C41.3839 68.5225 41.3652 68.4658 41.3466 68.4098C41.1958 68.4474 41.0074 68.4098 40.932 68.2029C39.8956 65.4389 38.9346 62.6372 38.0113 59.8167C36.4285 54.9279 35.0717 49.9263 34.4687 44.8118C34.2615 43.0443 34.1484 41.1639 34.318 39.3212ZM41.4031 56.8458C40.4233 62.2235 41.535 67.8081 44.4746 72.3961L44.4557 72.4149C46.3401 75.3482 48.8085 77.849 51.4843 80.0866C50.6929 79.09 49.9203 78.0746 49.2231 77.0217C46.2835 72.5841 44.1166 67.6389 42.8729 62.468C42.3453 60.2116 41.78 57.5039 41.8742 54.9279C41.6858 55.5484 41.5162 56.1877 41.4031 56.8458ZM54.6311 82.5498L55.3095 83.0575V83.0951C58.9086 85.7652 62.6584 88.2284 66.5401 90.466C66.0879 90.1087 65.6356 89.7514 65.2022 89.3754C61.9047 86.5737 59.0216 83.2455 56.4778 79.7481C53.8586 76.1567 51.5974 72.302 49.7507 68.2594C47.8475 64.1227 46.0951 59.6287 45.624 55.0595C45.3037 51.9946 45.6805 48.4408 47.3388 45.6955C45.3225 47.7639 43.702 50.1895 42.6091 52.8596C42.4018 53.9877 42.3453 55.1723 42.4206 56.3381C42.5714 58.8013 43.099 61.2646 43.7585 63.6338C44.4746 66.1722 45.4167 68.6542 46.5662 71.0234C47.6968 73.3362 49.0158 75.555 50.5233 77.6422C51.277 78.6951 52.0873 79.7105 52.9352 80.7071C53.2085 81.0173 53.4958 81.3229 53.7832 81.6284C54.0705 81.934 54.3579 82.2395 54.6311 82.5498ZM66.7663 89.6762C69.8754 92.1018 73.3426 93.8317 77.2431 94.4898V94.4522C77.4693 94.4334 77.6954 94.4146 77.9215 94.3582C75.2081 91.0112 72.5135 87.6267 69.8942 84.1857C65.0892 77.8678 60.5291 71.3431 56.5155 64.4799C54.5181 61.0389 52.5018 57.5228 51.0509 53.7997C50.3349 51.9946 49.7884 50.1143 49.5434 48.1963C49.355 46.7109 49.3173 45.0938 49.6565 43.6084H49.6C49.5842 43.6202 49.5693 43.6311 49.555 43.6416C49.5009 43.6813 49.4562 43.7142 49.4115 43.7588C47.9041 45.5263 46.8488 47.5006 46.3778 49.8134C45.869 52.333 46.0574 54.9091 46.585 57.4099C47.4895 61.7159 49.2231 65.9278 51.1828 69.8576C53.086 73.6747 55.3849 77.3037 58.0041 80.6695C60.5856 83.96 63.4687 87.1002 66.7663 89.6762ZM58.3056 65.9278C60.3407 69.2559 62.5077 72.5089 64.75 75.7054L64.7689 75.7242C69.2347 82.0421 74.0209 88.1155 78.9202 94.095C80.2392 93.5497 81.3699 92.6095 82.3497 91.5565C79.8247 88.172 77.375 84.7498 75.0008 81.2524C70.761 74.9909 66.7663 68.5602 63.0353 61.9791C61.1509 58.6509 59.342 55.2852 57.6084 51.8818C56.7416 50.1707 55.8748 48.4408 55.0457 46.7109C54.9998 46.616 54.954 46.5211 54.9082 46.4264C54.2007 44.9625 53.4993 43.5112 52.8975 42.0101C52.0684 42.3298 51.2582 42.7246 50.5044 43.2323C50.4479 43.3451 50.3537 43.4015 50.2406 43.458C50.1276 44.3417 50.0522 45.2254 50.0522 46.128C50.0522 47.1998 50.1841 48.2528 50.4102 49.3057C50.8625 51.4869 51.6539 53.5929 52.596 55.6048C54.2543 59.1586 56.2516 62.5808 58.3056 65.9278Z" fill="#BC8383"/>
</svg>
