<svg width="86" height="85" viewBox="0 0 86 85" fill="none" xmlns="http://www.w3.org/2000/svg">
<circle cx="42.9629" cy="42.5" r="42.5" fill="#BC8383"/>
<path d="M43.9963 23.9375V62.9856" stroke="#F0DDDD" stroke-width="2" stroke-linecap="round" stroke-linejoin="round"/>
<path d="M52.871 31.0369H39.5591C37.9115 31.0369 36.3314 31.6914 35.1664 32.8564C34.0014 34.0214 33.3469 35.6015 33.3469 37.2491C33.3469 38.8966 34.0014 40.4767 35.1664 41.6417C36.3314 42.8068 37.9115 43.4613 39.5591 43.4613H48.4337C50.0813 43.4613 51.6614 44.1158 52.8264 45.2808C53.9914 46.4458 54.6459 48.0259 54.6459 49.6734C54.6459 51.321 53.9914 52.9011 52.8264 54.0661C51.6614 55.2311 50.0813 55.8856 48.4337 55.8856H33.3469" stroke="#F0DDDD" stroke-width="2" stroke-linecap="round" stroke-linejoin="round"/>
</svg>
