<svg width="123" height="123" viewBox="0 0 123 123" fill="none" xmlns="http://www.w3.org/2000/svg">
<path fill-rule="evenodd" clip-rule="evenodd" d="M63.3013 122.974C96.4337 122.021 123 94.863 123 61.5C123 27.5345 95.4655 0 61.5 0C27.5345 0 0 27.5345 0 61.5C0 85.9296 14.2441 107.032 34.8801 116.956C34.6482 116.091 34.4204 115.225 34.1966 114.358C33.683 112.395 33.2099 110.432 32.7368 108.455C31.9528 108.509 31.1012 108.279 30.3713 108.035C29.5062 107.751 28.6952 107.331 27.9382 106.817C26.5865 105.91 25.4781 104.705 24.6806 103.296C24.3021 102.619 23.9237 101.848 23.8966 101.062C23.8696 100.345 24.2345 99.6001 25.0185 99.4918C25.8701 99.3699 26.6135 100.047 27.1813 100.575C27.8977 101.238 28.587 101.915 29.2494 102.633C29.9387 103.378 30.6011 104.149 31.2364 104.948C31.5473 105.354 31.8582 105.761 32.1555 106.167C32.1729 106.202 32.1957 106.231 32.2171 106.258C32.229 106.273 32.2404 106.288 32.2501 106.302C31.2093 101.753 30.2496 97.1765 29.4251 92.573C28.1004 85.2616 27.0731 77.8825 26.3162 70.4764C26.2286 69.6244 26.1526 68.7609 26.0775 67.9072L26.0593 67.7008C25.9647 67.7414 25.8431 67.7684 25.7079 67.7278C24.2075 67.3216 22.8423 66.5499 21.7339 65.4532C20.7607 64.4783 19.8145 63.2191 19.6928 61.7975C19.6388 61.2017 19.7469 60.5518 20.1795 60.105C20.7066 59.5634 21.5041 59.604 22.1124 59.9696C22.6993 60.3224 23.1604 60.9147 23.5807 61.4546C23.5959 61.4742 23.6111 61.4937 23.6263 61.5131C24.0723 62.0818 24.4914 62.6911 24.8699 63.3274C25.2619 63.9638 25.5863 64.6272 25.8566 65.3042C25.3835 59.604 25.0726 53.8903 24.978 48.163C24.978 47.9058 25.37 47.8381 25.3835 48.1089C25.424 49.0294 25.4781 49.9498 25.5321 50.8702L25.5322 50.871C25.9918 58.2636 26.573 65.6427 27.4786 72.9948C27.5327 73.4009 27.5868 73.8071 27.6408 74.2268C27.776 73.3467 27.9923 72.4802 28.3032 71.6408C28.6141 70.8149 29.0061 70.016 29.4656 69.2714C29.4798 69.2484 29.4941 69.2253 29.5085 69.2021C29.9179 68.5397 30.3951 67.7678 31.0742 67.3623C31.696 66.9832 32.4394 67.1185 32.8719 67.7143C33.3585 68.3913 33.1963 69.312 33.0341 70.0702C32.6962 71.6679 32.0744 73.1978 31.1823 74.5653C30.4524 75.6891 29.5197 76.7858 28.3843 77.5441C28.3302 77.6794 28.2221 77.7742 28.1004 77.8284C28.8979 83.5556 29.8441 89.2558 30.939 94.9289C30.9593 95.0305 30.9796 95.1355 30.9998 95.2404C31.0201 95.3453 31.0404 95.4502 31.0606 95.5517C31.2499 93.4802 31.5337 91.4222 32.2772 89.4725C32.926 87.7394 33.9533 86.0876 35.3996 84.9096C36.0619 84.368 37.0216 84.0837 37.6299 84.869C38.2156 85.6342 37.9138 86.6397 37.6621 87.4781C37.6466 87.5298 37.6313 87.5808 37.6164 87.6311C36.6026 91.0972 34.6156 94.1842 31.9393 96.5808C31.9344 96.6345 31.9278 96.6864 31.9213 96.7372C31.9098 96.8273 31.8987 96.9139 31.8987 97.0005C31.8717 97.2848 31.6419 97.4067 31.4256 97.4067C32.6151 103.296 33.9803 109.146 35.5078 114.954C36.3388 112.379 37.2368 109.826 38.1351 107.272C38.8001 105.382 39.4653 103.491 40.1035 101.59C42.0635 95.7549 43.8613 89.8516 45.3211 83.8671C45.1724 83.9889 44.9832 84.0295 44.821 83.8941C43.4152 82.6756 42.3068 81.1862 41.4417 79.5344C40.7118 78.1398 39.9819 76.4338 39.9413 74.8361C39.9143 74.0914 40.1441 73.3467 40.7388 72.8729C41.2795 72.4396 41.9824 72.399 42.5636 72.751C43.1584 73.103 43.4828 73.7665 43.7531 74.3758C44.1451 75.2559 44.4966 76.1766 44.7939 77.0973C45.2535 78.5189 45.632 79.9541 45.9023 81.4164C46.416 79.1688 46.8756 76.9212 47.2676 74.6466C47.592 72.8322 47.8488 71.0044 48.0786 69.1766C46.443 68.1882 44.9967 66.8748 43.8613 65.3178C42.861 63.9367 42.05 62.3797 41.5769 60.7414C41.3876 60.0644 41.2795 59.2655 41.6445 58.6156C42.0229 57.9387 42.8069 57.7085 43.5369 57.898C44.3614 58.1147 44.875 58.8188 45.2806 59.5228C45.7672 60.3758 46.2132 61.2423 46.6187 62.1359C46.9702 62.8942 47.2946 63.6659 47.592 64.4377C47.984 65.0605 48.3084 65.7375 48.3084 66.428C48.3151 66.4551 48.3253 66.4856 48.3354 66.516C48.3455 66.5465 48.3557 66.577 48.3624 66.604C48.5517 64.6814 48.7139 62.7588 48.795 60.8226C48.8896 58.5073 48.9031 56.192 48.8355 53.8768C48.8099 53.0049 48.7572 52.135 48.7045 51.2656C48.618 49.8397 48.5316 48.415 48.5652 46.9851C48.5787 46.6737 48.9977 46.7414 49.0653 46.9851C49.7645 49.517 49.8484 52.2231 49.9291 54.8234L49.9304 54.8652C49.9574 55.813 49.9575 56.7607 49.9575 57.7085C50.4441 56.6389 50.9847 55.5828 51.566 54.5538C51.9985 53.7955 52.4581 53.0509 52.9447 52.3197C53.0218 52.2039 53.0998 52.0783 53.1805 51.9486C53.5239 51.3959 53.9138 50.7686 54.4721 50.5054C55.0804 50.2075 55.7698 50.5189 56.0401 51.1282C56.3777 51.8721 55.9599 52.616 55.5952 53.2654L55.594 53.2675C54.729 54.811 53.7828 56.3004 52.7284 57.722C51.8633 58.8864 50.9442 60.0644 49.8764 61.0528C49.8493 61.5673 49.8223 62.0683 49.7952 62.5692C49.5114 67.2404 48.8896 71.8845 48.011 76.488C49.0653 75.0528 50.2548 73.7123 51.5525 72.4802L51.5973 72.4375C52.9558 71.1439 54.6829 69.4993 56.6349 69.2984C57.5135 69.2036 58.4461 69.6504 58.4461 70.6388C58.4461 71.4833 57.7809 72.2095 57.2152 72.827C57.1459 72.9026 57.0782 72.9765 57.0133 73.0489C55.6752 74.5382 54.1477 75.8651 52.4716 76.9619C50.9577 77.9638 49.241 78.8709 47.4568 79.2501C46.6863 82.8922 45.7672 86.5073 44.7399 90.0818C43.9559 92.8303 43.0908 95.5517 42.1987 98.2597C43.0773 96.9192 44.1316 95.7007 45.3481 94.6446C46.9837 93.2365 48.9031 92.1127 50.9577 91.4222C51.8228 91.1243 53.0393 90.7316 53.7692 91.544C54.5667 92.4376 53.9314 93.6968 53.4043 94.5498C52.1472 96.6078 49.9439 98.043 47.9164 99.2481C45.7266 100.561 43.3882 101.536 40.901 102.146C40.8425 102.316 40.782 102.489 40.7209 102.662C40.6268 102.93 40.5317 103.201 40.4415 103.472C38.9816 107.643 37.4947 111.826 35.7916 115.915L35.9944 116.687C36.0766 116.989 36.1593 117.29 36.2424 117.591C37.2477 118.044 38.2675 118.471 39.3008 118.871C39.4074 118.623 39.5216 118.377 39.644 118.136C40.063 117.31 40.5226 116.416 41.1714 115.753C41.7121 115.184 42.5501 114.9 43.2395 115.414C43.9694 115.956 44.064 116.89 43.9424 117.73C43.816 118.586 43.6091 119.439 43.3434 120.276C49.0823 122.047 55.1798 123 61.5 123C61.5198 123 61.5396 123 61.5594 123C60.2634 121.694 59.2694 120.011 58.5678 118.339C57.7973 116.538 57.3242 114.588 57.2296 112.625C57.189 111.677 57.2972 110.662 58.0541 110.012C58.7165 109.443 59.6221 109.47 60.3385 109.944C61.1631 110.499 61.501 111.474 61.7984 112.368C62.1498 113.424 62.4472 114.48 62.677 115.563C63.0149 117.134 63.2176 118.772 63.2176 120.411C64.1774 117.973 65.1446 115.539 66.1118 113.105C68.0462 108.237 69.9807 103.369 71.855 98.4763C71.7469 98.5305 71.5847 98.5305 71.4765 98.4222C70.4222 97.3525 69.6653 96.0121 68.9624 94.6988C68.273 93.4125 67.6918 92.0585 67.2052 90.6775C66.3536 88.2404 65.7453 85.6408 65.5966 83.0547C65.5426 81.9715 65.7994 80.5498 67.07 80.279C68.273 80.0218 68.9083 81.2404 69.3679 82.134C70.6385 84.5711 71.5712 87.1843 72.1794 89.8651C72.4768 91.1785 72.6931 92.5189 72.8147 93.8728C72.8823 94.4821 72.9093 95.105 72.9229 95.7142C73.1997 94.9634 73.4766 94.2159 73.7535 93.4684C74.0308 92.7197 74.3082 91.9711 74.5855 91.2191C77.005 84.5982 79.2353 77.8961 81.1412 71.1127C80.7627 70.9502 80.3843 70.7607 80.0193 70.5305C79.4786 70.192 78.965 69.7994 78.4648 69.3932C77.4781 68.5808 76.5725 67.6601 75.7749 66.6582C74.3557 64.8574 73.2473 62.7994 72.5714 60.606L72.5575 60.5599C72.2088 59.4049 71.794 58.0313 72.2876 56.8555C72.6796 55.9077 73.7204 55.2037 74.7477 55.5828C75.6687 55.9287 76.1975 56.9426 76.6514 57.8128C76.7304 57.9644 76.8072 58.1115 76.8834 58.2501C77.5727 59.4957 78.2215 60.7685 78.8298 62.0547C79.8977 64.3023 80.952 66.6446 81.736 69.0276C82.2496 67.1456 82.7227 65.2501 83.1688 63.3545C82.5605 62.8265 82.0198 62.1495 81.5873 61.5131C81.006 60.6737 80.5059 59.7394 80.1274 58.7917C79.4246 57.0315 79.0731 55.1631 79.1002 53.2675C79.1137 52.4822 79.2083 51.6157 79.7355 50.9929C79.8571 50.8439 80.0058 50.7356 80.168 50.6408C80.2626 50.546 80.4113 50.4919 80.5465 50.5054C80.7762 50.4377 81.006 50.4377 81.2223 50.5054C81.4656 50.4648 81.7495 50.5596 81.8306 50.8168C81.8441 50.8304 81.8441 50.8574 81.8441 50.871C82.3503 51.3659 82.5986 52.13 82.8189 52.808C82.8457 52.8905 82.8721 52.9716 82.8984 53.0509C83.2634 54.107 83.5743 55.1901 83.8176 56.2868C83.9798 57.045 84.115 57.8304 84.2231 58.6021C84.507 57.2075 84.7773 55.813 85.0341 54.4048C85.318 52.7936 85.5883 51.1824 85.8181 49.5576C85.8181 49.5509 85.8113 49.5441 85.8046 49.5373C85.7978 49.5306 85.7911 49.5238 85.7911 49.517C85.768 49.4708 85.7465 49.4262 85.7256 49.3827C85.685 49.2985 85.6464 49.2182 85.6018 49.1379C85.1828 49.0837 84.7638 49.0025 84.3448 48.8806C83.7906 48.7046 83.2499 48.4745 82.7227 48.2172C81.6684 47.7163 80.6952 47.0664 79.803 46.3217C78.2215 44.9948 76.8833 43.2753 76.0453 41.3797C75.6127 40.4049 75.3289 39.1863 75.9507 38.225C76.4643 37.4397 77.4375 37.1283 78.3297 37.2501C79.4245 37.3855 80.2896 38.1302 80.952 38.9561C81.7495 39.9445 82.4389 41.0277 83.0877 42.1108C84.1555 43.8845 85.1693 45.7124 86.102 47.5673C86.6291 43.546 86.9671 39.4977 87.1022 35.4494C87.1293 35.138 87.1293 34.8265 87.1293 34.5151C86.3182 34.5422 85.4667 34.3256 84.7232 34.0412C83.6148 33.608 82.6281 32.9174 81.763 32.0915C81.0196 31.3875 80.3572 30.5886 79.749 29.7627C79.1542 28.9503 78.5865 28.0567 78.4513 27.0413C78.208 25.3488 79.5327 23.5074 81.371 24.0355C82.3577 24.3198 83.1012 25.1186 83.777 25.8498C84.4664 26.5944 85.0882 27.3933 85.6289 28.2463C86.2236 29.1805 86.7373 30.1553 87.1563 31.1573C87.1428 29.3971 87.0887 27.637 86.9941 25.8768C86.9535 25.2134 86.8995 24.5364 86.8454 23.873C86.2101 23.8459 85.5613 23.6293 85.0206 23.3855C84.142 23.0064 83.3445 22.4242 82.6551 21.7608C82.0333 21.1515 81.4656 20.5016 80.979 19.784L80.9692 19.7701C80.4853 19.0835 79.9637 18.3433 79.7355 17.5229C79.5327 16.7512 79.6273 15.8575 80.2221 15.2888C80.7627 14.7608 81.5873 14.6525 82.2902 14.8556C83.0471 15.0722 83.6419 15.6274 84.142 16.2096C84.7097 16.873 85.2098 17.577 85.6829 18.2946C85.9532 18.7008 86.1965 19.1205 86.4398 19.5402L86.4399 19.5403C86.3453 18.5248 86.2506 17.5094 86.1831 16.4939C86.1425 15.8846 86.9806 15.7763 87.1157 16.3585C87.4807 17.8749 87.7511 19.3778 87.9133 20.9213C88.2377 23.9542 88.4134 26.9871 88.4674 30.02C88.4974 29.8598 88.5256 29.6977 88.5539 29.5345C88.6022 29.2563 88.6511 28.9747 88.7108 28.6931C88.9946 27.2714 89.3461 25.8497 89.7921 24.4687C90.5761 22.0586 91.7115 19.5403 93.4417 17.6583C94.1716 16.8594 95.3746 16.196 96.3073 17.0896C97.2941 18.0239 96.8345 19.4455 96.429 20.5422C95.4828 23.1554 94.2663 25.6602 92.874 28.0432C92.1711 29.2347 91.4412 30.3855 90.6437 31.4958C90.5987 31.5595 90.5536 31.6238 90.5081 31.6885C89.8969 32.5579 89.2339 33.5008 88.4539 34.2443C88.4134 36.3159 88.3052 38.3875 88.1565 40.4455C89.4001 38.7801 90.9546 37.3314 92.7253 36.2482C94.5907 35.1109 96.6723 34.2985 98.835 33.96C99.8758 33.7975 101.133 33.8382 101.741 34.8672C102.322 35.8556 101.647 36.8304 100.89 37.4668C99.1189 38.9561 96.9291 39.9581 94.7393 40.6621C92.6172 41.3391 90.4274 41.8265 88.2241 42.0567C88.1566 42.1244 88.089 42.1786 88.0079 42.1786C87.5348 47.6621 86.7237 53.1186 85.6153 58.4938C85.2774 60.1727 84.8989 61.8516 84.507 63.517C86.3182 60.6331 88.6972 58.1147 91.5223 56.2056C94.0365 54.4996 96.848 53.254 99.8082 52.5905C99.8959 52.5708 99.9874 52.5495 100.082 52.5276C101.284 52.2482 102.982 51.8534 103.809 52.9832L103.796 52.8884C104.823 54.3101 103.323 55.7452 102.282 56.5441C99.5649 58.6292 96.6047 60.43 93.4958 61.8516C91.9278 62.5692 90.3193 63.2056 88.6837 63.7336L88.6751 63.7364C87.2178 64.2095 85.6799 64.7087 84.142 64.8168C82.5064 71.5054 80.4924 78.0992 78.2486 84.6117C78.7622 84.0702 79.3299 83.5692 79.9382 83.1359C81.4656 82.0392 83.2499 81.2539 85.1152 80.956C86.0073 80.8206 87.0752 80.8613 87.6294 81.7007C88.1565 82.486 87.9808 83.515 87.4807 84.2597C86.913 85.0856 86.0073 85.7085 85.1963 86.2636C84.3042 86.8729 83.358 87.4144 82.3713 87.8612C80.6005 88.6601 78.573 89.3371 76.5995 89.2964C75.9236 91.1649 75.2343 93.0334 74.5314 94.8883C72.4903 100.264 70.3411 105.598 68.1784 110.933C68.6245 110.391 69.084 109.863 69.5977 109.389C70.9629 108.117 72.7066 106.871 74.5179 106.329C75.3695 106.072 76.4238 106.167 76.9374 107.006C77.4781 107.886 76.9374 108.834 76.3021 109.484C74.8288 110.987 73.0851 112.3 71.3008 113.411C69.7058 114.385 67.9891 115.347 66.1643 115.875C65.204 118.238 64.2467 120.604 63.3013 122.974Z" fill="#E0BABA"/>
</svg>
