<svg width="86" height="85" viewBox="0 0 86 85" fill="none" xmlns="http://www.w3.org/2000/svg">
<circle cx="42.8286" cy="42.5" r="42.5" fill="#BC8383"/>
<path d="M60.4322 30.2115C59.5144 29.3092 58.4248 28.5935 57.2256 28.1052C56.0263 27.6168 54.7409 27.3655 53.4428 27.3655C52.1447 27.3655 50.8592 27.6168 49.66 28.1052C48.4607 28.5935 47.3711 29.3092 46.4534 30.2115L44.5489 32.0832L42.6443 30.2115C40.7906 28.3898 38.2765 27.3664 35.655 27.3664C33.0334 27.3664 30.5193 28.3898 28.6656 30.2115C26.8119 32.0332 25.7705 34.5039 25.7705 37.0802C25.7705 39.6564 26.8119 42.1271 28.6656 43.9488L30.5702 45.8205L44.5489 59.5578L58.5276 45.8205L60.4322 43.9488C61.3503 43.047 62.0786 41.9762 62.5755 40.7976C63.0724 39.6191 63.3282 38.3559 63.3282 37.0802C63.3282 35.8045 63.0724 34.5412 62.5755 33.3627C62.0786 32.1841 61.3503 31.1134 60.4322 30.2115V30.2115Z" stroke="#F0DDDD" stroke-width="2" stroke-linecap="round" stroke-linejoin="round"/>
</svg>
