<svg width="85" height="85" viewBox="0 0 85 85" fill="none" xmlns="http://www.w3.org/2000/svg">
<circle cx="42.5" cy="42.5" r="42.5" fill="#BC8383"/>
<path d="M62.2501 52.2609V57.6263C62.2522 58.1244 62.1452 58.6174 61.936 59.0738C61.7268 59.5302 61.42 59.9398 61.0352 60.2766C60.6504 60.6133 60.1961 60.8697 59.7015 61.0292C59.2068 61.1888 58.6826 61.2481 58.1626 61.2032C52.3929 60.6052 46.8507 58.7247 41.9813 55.7127C37.451 52.9668 33.6101 49.3031 30.7313 44.9819C27.5625 40.3162 25.5905 35.004 24.9751 29.4759C24.9282 28.9814 24.9898 28.4829 25.156 28.0123C25.3222 27.5417 25.5893 27.1092 25.9402 26.7425C26.2912 26.3757 26.7184 26.0827 27.1947 25.882C27.6709 25.6814 28.1857 25.5775 28.7063 25.5771H34.3313C35.2413 25.5685 36.1234 25.8759 36.8134 26.4419C37.5033 27.0078 37.954 27.7938 38.0813 28.6532C38.3187 30.3703 38.759 32.0562 39.3938 33.6788C39.6461 34.3189 39.7007 35.0146 39.5511 35.6835C39.4016 36.3523 39.0542 36.9662 38.5501 37.4525L36.1688 39.7238C38.838 44.2013 42.7247 47.9086 47.4188 50.4546L49.8001 48.1832C50.3098 47.7024 50.9535 47.371 51.6547 47.2284C52.3558 47.0857 53.0852 47.1378 53.7563 47.3784C55.4574 47.9839 57.2249 48.4039 59.0251 48.6304C59.9359 48.7529 60.7677 49.1905 61.3623 49.8599C61.9569 50.5293 62.2729 51.3838 62.2501 52.2609Z" stroke="#F0DDDD" stroke-width="2" stroke-linecap="round" stroke-linejoin="round"/>
</svg>
