<svg width="133" height="133" viewBox="0 0 133 133" fill="none" xmlns="http://www.w3.org/2000/svg">
<path fill-rule="evenodd" clip-rule="evenodd" d="M80.2628 131.285C110.249 124.899 132.741 98.2616 132.741 66.3707C132.741 29.7152 103.026 0 66.3707 0C29.7152 0 0 29.7152 0 66.3707C0 91.935 14.4533 114.124 35.6342 125.211C37.2822 125.658 38.8618 126.303 40.349 127.144C40.8336 127.421 41.3096 127.718 41.7753 128.035C44.4791 129.114 47.2705 130.021 50.1358 130.741C50.1079 130.643 50.08 130.545 50.0523 130.447C47.4895 128.507 45.249 126.15 43.4115 123.52C39.7849 118.357 37.5283 112.407 36.2871 106.25C35.5457 102.61 35.1588 98.9215 34.9493 95.2173C34.8365 93.3572 34.772 91.4971 34.7398 89.6369C34.6914 88.0013 34.6592 86.3657 34.7398 84.7461C34.7146 84.6458 34.6795 84.5552 34.6423 84.4592C34.6319 84.4324 34.6214 84.4052 34.6108 84.3773C34.5302 84.1688 34.6914 83.9924 34.8687 83.9764C35.0299 83.8481 35.3039 83.8962 35.3684 84.1207C38.4309 86.0129 41.0582 88.5946 43.3632 91.3527C47.5701 96.42 50.6165 102.449 52.1155 108.848C52.6313 111.06 52.9537 113.321 53.1148 115.582C53.7757 111.429 54.5172 107.292 55.3876 103.171C55.6454 101.952 55.9195 100.734 56.1935 99.5149C55.5598 98.9667 55.1734 98.2193 54.7927 97.4831C54.7279 97.3579 54.6634 97.233 54.5978 97.1095C54.1142 96.2115 53.6629 95.2975 53.2438 94.3835C50.2619 87.9212 48.7145 80.8976 48.4244 73.8099C48.4082 73.2647 49.1336 72.7836 49.5043 73.3448C50.6487 75.0606 51.6964 76.8566 52.5991 78.7007C54.1948 81.9399 55.3876 85.3715 56.1774 88.8993C56.5803 90.7113 56.8705 92.5233 57.0639 94.3674V94.4476C57.0961 94.5438 57.1243 94.6441 57.1526 94.7443C57.1808 94.8445 57.209 94.9447 57.2412 95.0409C58.2728 90.8075 59.3849 86.6062 60.61 82.437V82.3889C60.5132 82.1804 60.4165 81.9559 60.3198 81.7314C60.1103 81.6673 59.933 81.5069 59.8685 81.2824C59.256 80.8815 58.7402 80.3684 58.2244 79.8392C57.6119 79.1978 57.0317 78.5404 56.4836 77.8669C55.4037 76.5359 54.4527 75.1087 53.5984 73.6174C50.4069 68.0691 48.8273 61.7351 48.4405 55.385C48.2148 51.6487 48.3921 47.8964 48.8112 44.1762C49.0208 42.284 49.2948 40.4078 49.601 38.5477C49.7622 37.5855 49.9234 36.6395 50.1329 35.6934C50.1495 35.6161 50.1658 35.5383 50.1822 35.4602C50.3261 34.7763 50.4755 34.0656 50.7938 33.4323V33.3842C50.8099 33.3522 50.826 33.3161 50.8421 33.28C50.8583 33.2439 50.8744 33.2078 50.8905 33.1758C50.9227 33.1116 51.0194 33.0796 51.0839 33.1116C51.229 33.0475 51.4063 33.0635 51.5836 33.1918C54.1787 35.1481 56.258 37.6818 57.8376 40.52C60.9968 46.2127 61.9639 52.7231 62.0445 59.1373C62.09 62.5481 61.9071 65.9589 61.7241 69.3697C61.7127 69.5829 61.7013 69.7962 61.6899 70.0094C61.5127 73.5992 61.3194 77.173 61.1261 80.7468L61.1257 80.7533C63.2211 73.8099 65.6228 66.9466 68.2823 60.1957C68.2823 59.8669 68.2743 59.5422 68.2662 59.2175C68.2582 58.8928 68.2501 58.5681 68.2501 58.2393C65.381 51.793 64.1238 44.7214 64.3494 37.6818C64.3655 37.1205 65.2198 37.0564 65.4133 37.5374C66.88 41.1615 67.9439 44.9298 68.5564 48.7944C68.911 50.9913 69.1205 53.2042 69.1366 55.4331C69.1527 55.5293 69.1729 55.6216 69.1931 55.7138C69.2132 55.806 69.2333 55.8982 69.2495 55.9944C69.2978 56.2028 69.2333 56.3632 69.1366 56.4915V56.8924L69.3784 57.4696C69.5664 57.0207 69.749 56.5663 69.9324 56.1096C70.0635 55.7833 70.1951 55.4559 70.3294 55.1284C70.547 54.6234 70.7685 54.1184 70.9901 53.6134C71.2118 53.1082 71.4335 52.603 71.6511 52.0977C71.5383 52.0336 71.4416 51.9053 71.4255 51.7289C70.8935 47.8643 70.9097 43.9517 71.5222 40.1031C72.586 33.5125 75.3422 27.2426 79.5653 22.0471C83.4982 17.1883 88.64 13.2757 94.3782 10.7901L94.4104 10.7581C94.5394 10.5817 94.765 10.6458 94.8456 10.8062C95.1035 10.9345 95.2647 11.2391 95.1358 11.5438C95.0139 11.8348 94.9105 12.1257 94.8046 12.4236C94.7704 12.5197 94.736 12.6166 94.7006 12.7144C94.7328 12.8427 94.7167 12.971 94.6522 13.0832C94.628 13.1233 94.5998 13.1634 94.5716 13.2035C94.5434 13.2436 94.5152 13.2837 94.491 13.3238C93.4302 16.5859 93.0265 20.0076 92.6246 23.4138L92.6213 23.4422C92.2183 26.954 91.7992 30.4818 90.7032 33.8653C89.7844 36.7036 88.4143 39.3815 86.6897 41.8189C84.9489 44.2724 82.8373 46.4853 80.4679 48.3454C78.2275 50.0933 75.6324 51.6968 72.8439 52.3864C71.5705 55.3369 70.3294 58.3195 69.1689 61.3342C68.2662 63.6914 67.3958 66.0647 66.5577 68.4379C72.6988 64.6856 79.5331 62.2001 86.6574 61.1738C87.1571 61.0937 87.5117 61.7992 87.0604 62.1039C86.2867 62.617 85.4969 63.1141 84.7071 63.5792C84.6426 63.6433 84.5781 63.6914 84.4976 63.7395C84.417 63.7796 84.3404 63.8157 84.2638 63.8518C84.1873 63.8879 84.1107 63.924 84.0301 63.964C81.7896 65.2469 79.4363 66.3693 77.0186 67.2994C73.5209 68.6304 69.7975 69.7208 66.0419 69.9453H66.0258C64.833 73.3929 63.7208 76.8566 62.657 80.3524L62.6579 80.3517C63.1734 79.9831 63.6889 79.6145 64.2366 79.278C65.4777 78.5243 66.7672 77.8668 68.105 77.3216C70.8613 76.2152 73.7949 75.5417 76.7607 75.3813C77.2926 75.3653 77.6311 75.9907 77.1798 76.3435C72.6666 79.9675 67.3475 82.7096 61.6415 83.8641C59.9974 89.5888 58.5145 95.3777 57.2573 101.215C59.5139 97.9273 61.9155 94.7363 64.4784 91.6735C69.7008 85.4517 75.5357 79.727 81.8541 74.6116C88.2048 69.4803 95.0552 64.9743 102.292 61.1738V61.2059C102.76 60.9494 103.259 61.5106 103.098 61.9596C103.211 64.4932 102.84 67.091 102.341 69.5765C101.841 72.0941 101.132 74.5635 100.197 76.9528C96.8443 85.5479 90.7676 93.0365 82.8373 97.8471C78.8722 100.252 74.5524 102.016 70.0393 103.075C67.7988 103.604 65.5261 103.941 63.2373 104.101C62.0767 104.197 60.9162 104.213 59.7557 104.197C58.8853 104.181 58.0632 104.069 57.2251 103.941C57.1767 103.957 57.1284 103.973 57.08 103.973C56.9994 103.989 56.9349 103.941 56.8866 103.893C56.8748 103.89 56.8634 103.888 56.8522 103.886C56.7868 103.872 56.7297 103.86 56.6609 103.86C56.2418 105.881 55.855 107.885 55.4843 109.906C55.2909 110.964 55.1137 112.022 54.9364 113.08L54.9362 113.081C55.3392 112.632 55.7422 112.183 56.1774 111.766C57.1445 110.836 58.2244 110.018 59.3688 109.329C61.6576 107.95 64.3817 106.971 67.0735 106.827C67.4603 106.811 67.8633 107.26 67.5409 107.613C65.7679 109.569 63.8981 111.365 61.6738 112.84C59.4978 114.284 57.1606 115.374 54.6139 116.015C54.5605 116.015 54.5292 116.004 54.4925 115.992C54.4849 115.989 54.4771 115.986 54.4688 115.983C53.7435 120.634 53.131 125.3 52.6474 129.982C55.8872 123.007 61.3997 117.314 67.7021 112.969C75.2617 107.757 83.9173 104.342 92.5407 101.327C93.0726 101.15 93.7496 101.648 93.4594 102.225C91.3495 106.38 89.6614 110.726 87.9739 115.07C87.7664 115.605 87.5588 116.139 87.3505 116.673C85.6903 120.922 83.9173 125.156 81.6124 129.116C81.1828 129.853 80.7329 130.576 80.2628 131.285ZM78.5452 131.627C79.6785 130.035 80.7082 128.36 81.6285 126.615C83.8776 122.369 85.5852 117.893 87.2932 113.414C87.4947 112.886 87.6962 112.358 87.8986 111.83C86.8347 113.578 85.7548 115.31 84.6265 117.01C81.0327 122.444 77.0787 127.647 72.67 132.446C74.6551 132.259 76.6148 131.985 78.5452 131.627ZM71.3542 132.557C73.5488 130.158 75.6272 127.653 77.5988 125.076L77.5827 125.059C82.1281 119.11 86.0288 112.712 89.5749 106.138C89.2848 106.394 88.9906 106.651 88.6964 106.907C88.4023 107.164 88.1081 107.42 87.818 107.677C87.3851 108.057 86.9513 108.437 86.5173 108.818C85.1572 110.01 83.7946 111.204 82.4505 112.407C76.0837 118.084 69.862 123.937 64.1238 130.255C63.4215 131.03 62.7271 131.811 62.0451 132.603C63.4751 132.695 64.9174 132.741 66.3707 132.741C68.0471 132.741 69.709 132.679 71.3542 132.557ZM60.6698 132.5C61.8018 131.147 62.9761 129.826 64.1721 128.523C67.0896 125.364 70.1038 122.301 73.1824 119.303C76.2933 116.272 79.4686 113.321 82.6923 110.419C84.3041 108.96 85.9321 107.517 87.5601 106.089L87.8204 105.862C88.5426 105.229 89.2763 104.586 90.0101 103.957C90.0905 103.885 90.1749 103.809 90.2593 103.733C90.3441 103.656 90.429 103.58 90.5098 103.508C86.5446 104.967 82.5956 106.474 78.7755 108.27C71.232 111.798 64.0271 116.432 58.7241 122.911L58.7402 122.895C56.5976 125.513 54.8023 128.391 53.4878 131.492C55.8396 131.955 58.236 132.293 60.6698 132.5ZM80.9031 46.5815C85.3841 42.6848 88.7206 37.4412 90.1552 31.6845H90.1713C90.8645 28.9257 91.2007 26.0969 91.5366 23.2708C91.802 21.0373 92.0673 18.8054 92.5084 16.6111C92.3634 16.8837 92.2344 17.1402 92.1055 17.4128C91.4285 18.8721 90.8644 20.3794 90.3808 21.9028C89.9376 23.3139 89.5668 24.7451 89.1961 26.1762C88.8254 27.6074 88.4547 29.0386 88.0114 30.4497C87.0604 33.4965 85.8999 36.4631 84.3525 39.2533C81.7574 43.9196 78.1952 48.3133 73.5047 51.0073C73.4645 51.1035 73.4201 51.1997 73.3758 51.2959C73.3315 51.3922 73.2871 51.4884 73.2468 51.5846C73.4864 51.4546 73.7271 51.3252 73.9682 51.1957C74.9764 50.6538 75.9915 50.1082 76.9541 49.5C78.3403 48.634 79.662 47.6559 80.9031 46.5815ZM90.9772 17.4289C84.562 28.0444 78.7916 39.0127 73.7949 50.3338L73.811 50.3498C76.0998 48.8425 78.163 47.0626 79.9199 44.9619C83.9173 40.1833 86.2383 34.2502 87.8502 28.301C88.1218 27.295 88.3747 26.2848 88.6276 25.275C89.0801 23.468 89.5323 21.6619 90.0907 19.8823C90.3486 19.0485 90.6387 18.2306 90.9772 17.4289ZM86.0449 17.2044C81.2094 21.117 77.3732 26.2003 75.0199 31.941C72.6344 37.7299 71.7317 44.1441 72.457 50.3659C78.2758 37.2488 85.1262 24.5647 93.1854 12.6823C90.6387 13.9171 88.2532 15.4244 86.0449 17.2044ZM55.0652 73.7618C55.855 75.0446 56.7576 76.2793 57.7409 77.4179L57.757 77.4018C58.2244 77.947 58.708 78.4602 59.2077 78.9573C58.3534 76.7604 57.5958 74.5314 56.8866 72.2865C53.2438 60.8692 51.2612 48.9387 50.8421 36.9602C50.7857 37.345 50.7253 37.7259 50.6648 38.1068C50.6044 38.4876 50.5439 38.8684 50.4875 39.2533C50.1813 41.3058 49.9234 43.3744 49.7461 45.443C49.1658 52.1779 49.3754 59.0892 51.3902 65.5836C52.2767 68.438 53.4695 71.2121 55.0652 73.7618ZM55.5649 63.7075C56.3224 66.8665 57.1928 70.0255 58.1599 73.1364L58.176 73.1524C58.6756 74.7717 59.2235 76.3589 59.7715 77.9461L59.7718 77.947C59.71 77.3496 59.6723 76.7521 59.635 76.1599C59.6043 75.6713 59.5737 75.1863 59.53 74.7079L59.4934 74.2965C59.3445 72.6237 59.1966 70.9626 59.0626 69.2878C58.5468 63.1943 57.9988 57.0848 57.0316 51.0554C56.5803 48.2011 55.9517 45.3628 55.0652 42.6047C54.227 40.0229 53.1149 37.5374 51.8576 35.1321C51.9221 38.2911 52.0994 41.4341 52.3895 44.577C53.002 51.0233 54.0658 57.4215 55.5649 63.7075ZM60.4407 70.8353C60.477 70.1898 60.5132 69.5444 60.5455 68.903L60.5584 68.6653C60.9253 61.9257 61.3004 55.0345 59.7073 48.4095C58.4984 43.3904 56.0484 38.5637 52.1316 35.1161C53.7918 37.6337 54.9524 40.4399 55.8711 43.3102C57.6441 48.8746 58.434 54.6634 59.0465 60.4523L59.0466 60.4539C59.3851 63.7246 59.7235 66.9953 60.078 70.266C60.1748 71.0998 60.2553 71.9337 60.3359 72.7675C60.3682 72.1261 60.4044 71.4807 60.4407 70.8353ZM36.0293 96.42C36.5773 103.107 37.7378 109.826 40.4618 115.999V116.031C42.5411 120.73 45.5069 125.043 49.4398 128.379C48.9079 126.503 48.3599 124.627 47.7957 122.75C45.8776 116.272 43.7822 109.842 41.5579 103.476C40.4299 100.241 39.2405 97.0285 38.0521 93.8187C37.2198 91.5705 36.3879 89.3236 35.5779 87.0713C35.5888 87.4323 35.5978 87.7952 35.6068 88.1587C35.6246 88.8768 35.6425 89.5971 35.6746 90.3104C35.7552 92.347 35.8681 94.3835 36.0293 96.42ZM39.5108 94.7683C43.7822 105.833 47.5379 117.122 50.8099 128.523V128.539C50.8421 128.387 50.8743 128.231 50.9066 128.074C50.9388 127.918 50.9711 127.762 51.0033 127.609C50.9872 126.198 50.9066 124.803 50.681 123.392C50.4308 121.752 50.0463 120.139 49.6624 118.529C49.6258 118.375 49.5892 118.222 49.5527 118.068C48.0859 111.926 46.603 105.737 44.1691 99.8997C43.073 97.2538 41.7836 94.6721 40.2845 92.2347C39.1401 90.3746 37.8023 88.6909 36.4161 87.0392C37.496 89.5889 38.5115 92.1706 39.5108 94.7683ZM50.6438 117.958C50.7421 118.358 50.8403 118.758 50.9389 119.158H50.955C51.0154 119.41 51.0775 119.663 51.14 119.919C51.361 120.822 51.5886 121.752 51.777 122.702C51.906 121.259 51.9704 119.8 51.9543 118.357C51.8576 111.606 50.149 104.887 46.9898 98.9055C45.523 96.1474 43.7661 93.5336 41.7513 91.1443C39.8493 88.8993 37.6895 86.8788 35.4973 84.9065C35.5844 85.0797 35.6618 85.2624 35.7371 85.44C35.7594 85.4926 35.7815 85.5447 35.8036 85.596C38.0763 87.6004 39.8977 90.1821 41.5095 92.7318C44.7655 97.8792 46.8286 103.732 48.4727 109.553C49.2628 112.332 49.954 115.148 50.6438 117.958ZM91.0739 69.3359C84.417 73.858 78.1791 79.0214 72.5054 84.7461V84.7622C67.2185 90.102 62.4475 95.9068 58.2083 102.081C58.6088 101.855 59.0093 101.634 59.409 101.414C60.1194 101.022 60.8273 100.631 61.5287 100.22C63.4468 99.0979 65.3327 97.8953 67.1702 96.6284C73.7949 92.0423 79.7748 86.6223 85.3196 80.8014C90.4936 75.3493 95.313 69.5765 100.084 63.7716C97.0055 65.5034 93.9913 67.3475 91.0739 69.3359ZM57.9665 103.155H58.0955L58.0793 103.171C62.0284 101.936 65.9129 100.621 69.6524 98.8093C76.9057 95.2975 83.4337 90.4868 88.9624 84.6499C91.7025 81.7635 94.1364 78.6045 96.2963 75.2531C98.3595 72.0459 100.31 68.6143 100.777 64.8139C98.4239 67.6683 96.0545 70.5065 93.6367 73.3127C88.1726 79.6308 82.4344 85.7564 76.0515 91.1764C73.0212 93.7581 69.862 96.1795 66.5254 98.3603C64.8813 99.4347 63.205 100.461 61.4803 101.407C60.3359 102.032 59.1754 102.642 57.9665 103.155ZM93.3627 86.5902C96.0061 83.0624 98.0854 79.1337 99.52 74.9644H99.5361C100.213 72.96 100.745 70.9074 101.116 68.8228C100.89 69.352 100.664 69.8651 100.423 70.3783C99.3749 72.5591 98.0532 74.6277 96.6832 76.6321C92.0571 83.367 86.0772 89.2361 79.3558 93.9184C76.0031 96.2436 72.457 98.2801 68.7498 99.9799C66.0902 101.199 63.3017 102.321 60.4488 103.139C61.6415 103.123 62.8504 103.059 64.0432 102.93C66.5899 102.674 69.1044 102.177 71.5544 101.471C80.21 98.9536 87.9469 93.7902 93.3627 86.5902Z" fill="#BC8383"/>
</svg>
