<svg width="133" height="133" viewBox="0 0 133 133" fill="none" xmlns="http://www.w3.org/2000/svg">
<path fill-rule="evenodd" clip-rule="evenodd" d="M73.9751 132.31C107.049 128.538 132.741 100.455 132.741 66.3707C132.741 29.7152 103.026 0 66.3707 0C29.7152 0 0 29.7152 0 66.3707C0 99.4136 24.1465 126.817 55.7568 131.897C56.4151 130.671 57.1242 129.47 57.8819 128.298C59.2873 126.128 60.8548 124.066 62.598 122.152C63.125 121.586 63.6655 121.007 64.2195 120.454L64.0979 120.414C63.5168 120.144 63.0304 119.645 62.8412 119.025C62.6385 118.365 62.7331 117.677 63.152 117.111C63.3547 116.842 63.6385 116.613 63.9628 116.451C64.1384 116.276 64.3411 116.141 64.5709 116.047C62.9763 114.807 61.4358 113.486 59.9629 112.111C55.4495 107.892 51.4497 103.134 48.0849 97.9452C44.7337 92.7695 42.004 87.1895 40.0041 81.3399C39.8554 80.9355 40.1527 80.3425 40.6527 80.4638C44.3012 81.3399 47.5309 83.3347 50.2335 85.8956C52.828 88.3621 54.9225 91.2734 56.8549 94.2656C58.8008 97.2712 60.6791 100.344 62.4088 103.485C64.5438 107.326 66.4762 111.397 67.7599 115.629C67.7735 115.656 67.7904 115.679 67.8073 115.703C67.8241 115.726 67.841 115.75 67.8545 115.777C67.8808 115.813 67.9062 115.849 67.9312 115.885C67.9577 115.923 67.9838 115.961 68.0099 115.999C68.0606 116.073 68.1113 116.148 68.1653 116.222C68.3545 116.276 68.4897 116.491 68.4897 116.694C68.5167 116.707 68.5302 116.734 68.5437 116.761C68.5978 106.747 67.9762 96.7321 66.2465 86.866C66.1249 86.8525 66.0033 86.7717 65.9627 86.6234C65.8681 86.3269 65.7735 86.0304 65.6925 85.7338C63.3412 84.3321 61.1385 82.6338 59.0575 80.8681C54.909 77.3368 51.247 73.2529 48.193 68.7511C45.1255 64.2224 42.6662 59.3028 40.923 54.1272C40.7878 53.7093 41.1932 53.1298 41.6662 53.3859C41.7817 53.4435 41.8922 53.5061 42.0006 53.5676L42.0007 53.5677L42.0009 53.5678C42.0701 53.607 42.1384 53.6457 42.2067 53.6824C42.2878 53.615 42.4229 53.6015 42.5175 53.7093C42.5986 53.8037 42.6662 53.8846 42.7337 53.9789C45.1255 55.3402 47.4093 56.8902 49.5308 58.6289C53.8415 62.1602 57.5441 66.3925 60.4629 71.1233C62.2872 74.1021 63.8952 77.2964 65.0573 80.639C64.3817 77.539 63.5979 74.466 62.7736 71.4064C62.3817 71.2177 62.0439 70.8942 61.8412 70.4764C61.5304 69.8429 61.5574 69.0881 61.9088 68.4816V68.4007C59.4359 65.1659 57.2062 61.7424 55.2739 58.1572C51.274 50.7441 48.4633 42.6706 46.9768 34.3949C46.2336 30.2706 45.8282 26.0923 45.7471 21.914C45.7066 19.7979 45.7607 17.6953 45.9093 15.5792C45.9769 14.5279 46.0715 13.4901 46.1931 12.4522C46.2067 12.3362 46.2198 12.22 46.2329 12.1038L46.233 12.1026L46.2331 12.1017C46.337 11.1788 46.4414 10.2525 46.8012 9.37919C46.8417 9.28484 46.9363 9.23091 47.0309 9.23091C47.112 8.94787 47.5849 8.92091 47.6255 9.27134C47.6525 9.4533 47.6795 9.63189 47.7065 9.81049L47.7071 9.81447C47.734 9.99174 47.7608 10.169 47.7876 10.3496C48.9674 11.9097 50.0301 13.5736 51.0778 15.214L51.1389 15.3096L51.1393 15.3104C52.3824 17.251 53.6254 19.1916 54.7739 21.1862C56.8144 24.7175 58.6792 28.3701 60.1521 32.1845C61.652 36.0662 62.7331 40.1098 63.3817 44.2206C63.8412 47.1859 64.0844 50.178 64.1655 53.1702C65.7195 45.865 68.2734 38.7889 72.0301 32.3193C75.5705 26.2271 80.1514 20.7414 85.6242 16.2936L85.6243 16.2935L85.6244 16.2934C85.827 16.0104 86.0297 15.7274 86.2594 15.4714C86.6242 15.067 87.3674 15.404 87.1782 15.9296C87.2188 16.024 87.2458 16.1318 87.2188 16.2531C86.1107 20.4584 84.854 24.6366 83.4351 28.7475C80.9217 35.9989 77.9218 43.0884 74.4354 49.9219C72.6922 53.3589 70.8274 56.7285 68.841 60.0307C68.2059 61.0955 67.5437 62.1333 66.8681 63.1711C67.314 63.1307 67.7329 63.2385 68.0707 63.4946C68.4491 63.589 68.814 63.8316 69.0842 64.1416C69.5842 64.7212 69.6923 65.5029 69.4626 66.2172C69.2734 66.8507 68.7734 67.4033 68.1653 67.6594C67.5843 67.9155 66.9492 67.8481 66.4086 67.565C65.8951 67.3764 65.4627 67.0124 65.1925 66.5137C65.1114 66.352 65.0438 66.1768 65.0033 66.0016C64.8538 66.217 64.7065 66.4369 64.5587 66.6577L64.557 66.6603L64.5566 66.6609L64.5564 66.6612L64.5562 66.6615L64.556 66.6618L64.5558 66.662C64.344 66.9785 64.131 67.2967 63.9087 67.6055H64.0439C64.4763 67.6998 64.8546 67.902 65.1384 68.2525C65.1448 68.262 65.152 68.2723 65.1595 68.2832L65.1596 68.2833L65.1597 68.2836L65.1599 68.2837C65.1841 68.3188 65.2125 68.3597 65.233 68.4007C65.5573 68.805 65.7195 69.3307 65.5979 69.8564C65.4357 70.5438 64.9492 71.1233 64.3006 71.3929C65.8546 77.1212 67.2194 82.8899 68.1653 88.753C68.5437 91.0173 68.841 93.2952 69.0977 95.5865L69.098 95.5854C69.3141 94.7366 69.5303 93.8878 69.7599 93.0391C70.0166 92.109 70.2869 91.179 70.5572 90.2625C70.5031 90.1951 70.4491 90.1143 70.4491 90.0199C70.1383 87.6882 70.1923 85.2755 70.341 82.9303C70.4761 80.6255 70.7734 78.3208 71.2193 76.0564C72.7733 68.1446 76.111 60.6102 80.9893 54.1676C85.4621 48.2641 91.1646 43.331 97.6374 39.7188C97.6644 39.638 97.6914 39.5706 97.732 39.5032C97.9482 39.0854 98.5157 39.1528 98.6508 39.5437C98.8265 39.6919 98.9346 39.921 98.9346 40.1502C98.84 44.4093 98.2995 48.655 97.286 52.7928C95.4888 60.1655 92.3808 67.2281 88.1242 73.5225C86.0161 76.6629 83.6108 79.6012 80.9487 82.2969C79.6515 83.6178 78.2866 84.8982 76.8543 86.0843C76.2195 86.6097 75.5577 87.0946 74.8959 87.5796L74.8958 87.5797L74.8958 87.5797L74.8957 87.5798L74.8956 87.5798L74.8949 87.5804C76.03 88.1734 76.3678 89.5482 76.03 90.7208C75.8678 91.26 75.53 91.7586 75.084 92.1225C75.2192 92.2304 75.3273 92.3786 75.3408 92.5539C75.3813 92.9717 75.3138 93.4299 75.1246 93.8208C75.0165 94.3465 74.6786 94.8451 74.1516 95.0608C73.5976 95.2899 72.9895 95.1956 72.476 94.8856C71.949 94.5756 71.6787 93.996 71.6923 93.403C71.7193 92.9178 71.9895 92.4056 72.3814 92.0956C72.0976 91.9878 71.8544 91.7991 71.6517 91.5699C71.6382 91.5564 71.6213 91.543 71.6044 91.5295C71.5875 91.516 71.5706 91.5025 71.5571 91.4891C71.3004 92.3921 71.0436 93.2952 70.8004 94.1982C70.5301 95.2226 70.2599 96.2469 70.0166 97.2848C69.9491 97.5542 69.8849 97.8271 69.8207 98.1C69.7565 98.373 69.6923 98.646 69.6248 98.9156C69.6045 99.0032 69.5842 99.0942 69.5639 99.1852L69.5332 99.3228C69.5232 99.3673 69.5132 99.4114 69.5031 99.4547C70.341 109.186 70.2869 118.985 69.8139 128.73C69.7734 129.336 69.7329 129.943 69.7058 130.549C69.8221 130.365 69.9381 130.181 70.0541 129.997L70.0572 129.992L70.0576 129.992C70.7896 128.83 71.5199 127.671 72.3003 126.533C73.3138 125.05 74.3678 123.581 75.4354 122.139C75.2732 119.47 75.3408 116.801 75.6246 114.146C76.638 104.617 79.9082 95.3708 85.0567 87.2973L85.2594 86.7716C85.2999 86.6638 85.3945 86.6234 85.4891 86.6234C85.854 86.0708 86.2323 85.5182 86.6107 84.979C86.9215 84.5477 87.5296 84.8847 87.5026 85.3429C87.3674 88.1464 87.0837 90.9499 86.6512 93.7265C85.408 101.84 82.9081 109.725 79.3001 117.098C83.0162 112.407 87.0026 107.933 91.3268 103.795C96.8806 98.4978 103.002 93.8208 109.718 90.1143L109.61 90.1952C110.083 89.9391 110.691 90.5456 110.448 91.0173C108.84 94.1578 107.002 97.1634 104.961 100.034C101.34 105.089 97.0698 109.685 92.2997 113.674C87.5296 117.664 82.2054 121.128 76.5299 123.702C76.2191 123.837 75.9624 123.729 75.8137 123.527C74.7462 124.969 73.7057 126.411 72.6652 127.867C72.3142 128.359 71.9565 128.844 71.5968 129.333C71.4442 129.54 71.2912 129.747 71.1382 129.956C71.3274 129.916 71.5166 129.916 71.7193 129.916C72.3814 129.956 73.003 130.334 73.3949 130.873C73.7483 131.26 73.9477 131.781 73.9751 132.31ZM67.9888 132.722C68.1623 129.889 68.3059 127.053 68.4086 124.214C68.4131 124.084 68.4191 123.954 68.4251 123.823C68.4371 123.563 68.4491 123.302 68.4491 123.042C68.3861 122.656 68.3111 122.281 68.236 121.907L68.2359 121.906L68.1873 121.664L68.1588 121.519C68.1473 121.461 68.136 121.402 68.1248 121.344C67.7059 123.109 67.2329 124.848 66.6654 126.56C65.9772 128.652 65.1751 130.705 64.2655 132.709C64.9646 132.73 65.6663 132.741 66.3707 132.741C66.9116 132.741 67.451 132.735 67.9888 132.722ZM63.0365 132.659C65.0892 128.225 66.6073 123.546 67.5302 118.742C67.4897 118.81 67.3951 118.944 67.3951 118.944V118.971C67.2735 119.295 67.0708 119.578 66.8275 119.82L66.8274 119.821L66.8273 119.821L66.8272 119.821L66.8271 119.821C66.6921 120.023 66.5571 120.225 66.4222 120.44C65.6925 121.613 64.9627 122.799 64.2601 123.985C62.614 126.742 61.0513 129.548 59.5718 132.397C60.7183 132.514 61.8735 132.602 63.0365 132.659ZM58.4426 132.273C58.9839 131.208 59.5361 130.148 60.098 129.094C61.2872 126.87 62.5169 124.686 63.8006 122.516C63.8412 122.422 63.8952 122.341 63.9493 122.26C63.6114 122.637 63.2736 123.028 62.9358 123.419C60.684 126.106 58.7112 129.016 57.0561 132.093C57.5167 132.158 57.9789 132.218 58.4426 132.273ZM93.124 61.729C95.4347 56.1355 96.8941 50.178 97.4482 44.1397L97.4347 44.1532C97.2455 44.6654 97.0698 45.1641 96.8941 45.6763C96.2455 47.5767 95.5564 49.4772 94.8131 51.3506C92.1511 58.1033 88.8944 64.6403 85.1378 70.8538C83.2595 73.9673 81.246 76.9999 79.0974 79.9516C77.084 82.7012 74.9894 85.3969 72.6652 87.9038L72.6382 87.9712C72.9084 87.6612 73.2868 87.4591 73.6922 87.3917C74.6922 86.5425 75.6921 85.6934 76.6786 84.8308C78.2326 83.456 79.719 82.0138 81.1244 80.4907C86.1918 75.0051 90.2727 68.6299 93.124 61.729ZM96.786 42.5897C96.6509 42.6976 96.5158 42.8054 96.3942 42.9132L96.4077 42.8997C96.3052 42.9892 96.2057 43.0787 96.1078 43.1667L96.1075 43.167L96.1065 43.168L96.1045 43.1697C95.9971 43.2663 95.8916 43.3612 95.7861 43.4524C93.624 46.3232 91.5565 49.275 89.5836 52.2806C84.7864 59.5994 80.6649 67.3629 77.2732 75.4229C75.7327 79.089 74.3543 82.809 73.1111 86.5695C75.2057 83.9143 77.3002 81.2455 79.2596 78.4825C83.4216 72.579 87.0837 66.3251 90.1781 59.7881C91.7186 56.5263 93.1375 53.1837 94.3942 49.8006C95.0294 48.0889 95.6239 46.3772 96.1915 44.6385C96.3776 44.0924 96.5282 43.5376 96.6793 42.981L96.6798 42.9795L96.7507 42.7185L96.786 42.5897ZM77.8407 67.8481C75.8137 72.4173 74.2733 77.2425 73.2598 82.1621C75.8273 75.0994 78.9488 68.2525 82.6243 61.6885C85.6107 56.3646 88.9349 51.2698 92.597 46.4176C91.624 47.388 90.6646 48.372 89.7457 49.3963C84.827 54.8685 80.8136 61.1224 77.8407 67.8481ZM72.2328 77.8355C71.895 79.8573 71.6787 81.906 71.5842 83.9547L71.5977 83.9277C71.5571 85.0195 71.5571 86.0977 71.5571 87.1895C71.6247 86.9806 71.6889 86.7717 71.753 86.5629C71.8172 86.3539 71.8814 86.145 71.949 85.936C72.0099 85.7606 72.0707 85.5819 72.1316 85.4032C72.1923 85.2247 72.2531 85.0463 72.3139 84.8712C72.7057 82.1351 73.2598 79.4125 74.003 76.7303C76.0029 69.5733 79.138 62.7398 83.2324 56.5263C85.2594 53.4398 87.5431 50.5015 90.0295 47.7654C91.2862 46.3906 92.597 45.0563 93.9618 43.7893C94.214 43.5557 94.4782 43.3221 94.7425 43.0886L94.7436 43.0876L94.7447 43.0866L94.7458 43.0856L94.7469 43.0846C94.8776 42.9691 95.0083 42.8535 95.1375 42.738C92.7862 44.2745 90.57 45.9728 88.5025 47.8598C82.9351 52.9411 78.4758 59.222 75.5705 66.1768C74.0165 69.9238 72.8949 73.8325 72.2328 77.8355ZM47.0444 23.3158C47.4228 31.551 49.0984 39.7593 51.9767 47.4959H51.9902C54.2739 53.6285 57.3143 59.4511 61.0439 64.8155C59.758 60.4292 58.4008 56.0572 57.0448 51.689L57.0448 51.6889C56.5341 50.0438 56.0236 48.3991 55.5171 46.7545C51.9632 35.2306 48.693 23.5988 47.3687 11.6031C47.3552 11.7424 47.3402 11.8817 47.3252 12.0209C47.2951 12.2995 47.2651 12.578 47.2471 12.8566C47.1525 14.0292 47.0714 15.2018 47.0309 16.3879C46.9363 18.6927 46.9363 21.011 47.0444 23.3158ZM62.4815 63.6506L62.4816 63.6502C62.5289 63.1588 62.576 62.6692 62.6115 62.1737H62.625C62.8007 59.815 62.8952 57.4698 62.8952 55.1111C62.8817 46.8759 61.571 38.6406 58.463 30.9849C56.936 27.2514 55.0847 23.6797 53.0847 20.1753C52.0713 18.3962 51.0308 16.644 49.9632 14.9053C49.7521 14.5655 49.5376 14.2257 49.3226 13.8853L49.3226 13.8852L49.3226 13.8851L49.3225 13.8851L49.3225 13.885C48.9322 13.2668 48.5407 12.6467 48.166 12.0209C48.2606 12.6409 48.3687 13.2744 48.4768 13.8944C50.72 26.6988 54.4766 39.0854 58.3954 51.4585C59.7602 55.7715 61.125 60.0846 62.4088 64.4246C62.432 64.1657 62.4567 63.9083 62.4814 63.6515L62.4815 63.6506ZM78.9082 37.751C81.4217 31.6453 83.5703 25.4049 85.354 19.0566H85.3405C85.0071 19.5779 84.6737 20.1111 84.3403 20.6444L84.3396 20.6454C84.1733 20.9115 84.0069 21.1776 83.8405 21.4423C82.7324 23.2484 81.6514 25.0679 80.6109 26.9144C76.8543 33.5458 73.53 40.4197 70.6653 47.4689C69.2194 51.0002 67.9086 54.572 66.7059 58.1842C66.1114 59.9902 65.5438 61.8098 65.0033 63.6294C64.9222 63.9193 64.8377 64.2125 64.7532 64.5058L64.753 64.5066L64.7527 64.5074L64.7525 64.5082C64.6683 64.8004 64.5841 65.0927 64.5033 65.3816C65.9762 63.0363 67.4221 60.6777 68.814 58.2785C72.6382 51.6741 75.9894 44.8002 78.9082 37.751ZM78.4488 25.1488C73.7598 30.931 70.2193 37.5758 67.814 44.6115H67.8275C65.6384 51.0002 64.4087 57.6585 63.8952 64.3842C64.0574 63.8181 64.2195 63.252 64.3817 62.6994C64.9898 60.6507 65.6249 58.6155 66.3005 56.5802C68.7059 49.3289 71.5842 42.2258 74.9354 35.3519C76.611 31.9014 78.3947 28.5049 80.3001 25.1758C81.2325 23.5314 82.2054 21.9005 83.1919 20.2831C83.2527 20.1821 83.3134 20.0844 83.3742 19.9868L83.3743 19.9866C83.4351 19.8889 83.4959 19.7912 83.5567 19.6901C81.7325 21.3884 80.0163 23.2079 78.4488 25.1488ZM54.8414 75.0725C56.6657 77.0403 58.6251 78.8868 60.7061 80.5851L60.6926 80.5716C61.5845 81.2994 62.5034 81.9868 63.4358 82.6473L62.9088 81.9194C62.4831 81.3466 62.0574 80.7704 61.6318 80.1942L61.6308 80.193L61.6299 80.1917L61.629 80.1904C61.2043 79.6155 60.7795 79.0406 60.3548 78.469C58.8413 76.427 57.3312 74.3851 55.8211 72.3431C54.3111 70.3011 52.801 68.2592 51.2875 66.2172C50.4633 65.1012 49.6337 63.9893 48.8043 62.8776L48.8035 62.8765L48.8027 62.8754L48.8019 62.8743L48.8011 62.8733C47.0069 60.4686 45.2135 58.0648 43.4769 55.6233C43.1933 55.4347 42.8961 55.2595 42.5989 55.0843L42.5986 55.0842C43.4499 57.4294 44.4364 59.7207 45.585 61.9446C48.0579 66.7159 51.1929 71.1368 54.8414 75.0725ZM61.7737 78.6038C62.5304 79.5877 63.2871 80.5716 64.0303 81.5555H64.0168C64.2871 81.906 64.5709 82.2699 64.8546 82.6203C64.3276 81.0299 63.7331 79.4529 63.0304 77.9029C60.7872 72.9429 57.7738 68.3738 54.0847 64.3438C51.3551 61.3516 48.2471 58.7368 44.8688 56.5129L44.871 56.5158L44.8712 56.516L44.8714 56.5162L44.8715 56.5164L44.8717 56.5166C45.8842 57.8227 46.8967 59.1289 47.8957 60.4485C49.4163 62.4375 50.9402 64.4298 52.4642 66.4221L52.4681 66.4273L52.4876 66.4528L52.4903 66.4562L52.524 66.5003C54.0678 68.5187 55.6117 70.537 57.1522 72.552C58.6927 74.5603 60.2332 76.582 61.7737 78.6038ZM65.4222 112.03C62.8142 105.736 59.2332 99.8052 55.4766 94.1308L55.463 94.1173C52.2875 89.3056 48.2606 84.4399 42.7743 82.2969C43.2801 82.8941 43.778 83.507 44.2741 84.1176C44.4274 84.3063 44.5805 84.4948 44.7337 84.6825C45.55 85.6823 46.3584 86.6978 47.1649 87.711L47.1653 87.7114L47.1657 87.7118L47.166 87.7123L47.1664 87.7127L47.1731 87.7211C47.4186 88.0295 47.6639 88.3377 47.9092 88.6451C51.6253 93.3086 55.2468 98.0395 58.8008 102.824C60.598 105.25 62.3547 107.69 64.0979 110.143C64.3209 110.46 64.5405 110.773 64.76 111.087C64.9796 111.4 65.1992 111.713 65.4222 112.03ZM45.2877 90.2625C48.0309 95.6943 51.4632 100.789 55.4495 105.399H55.436C58.8413 109.334 62.6655 112.893 66.814 116.033C66.8055 116.008 66.7917 115.988 66.7793 115.97L66.7712 115.958C66.7669 115.951 66.7631 115.945 66.76 115.939C66.3005 115.265 65.8411 114.604 65.3681 113.93C64.4087 112.542 63.4358 111.154 62.4493 109.779C59.0035 104.927 55.4901 100.102 51.9091 95.3439C50.1389 92.9852 48.3417 90.6534 46.5309 88.3216C46.0715 87.7286 45.6053 87.1356 45.1391 86.5425C44.6729 85.9495 44.2066 85.3564 43.7472 84.7634C43.54 84.4983 43.3312 84.2347 43.1225 83.971C42.7051 83.4439 42.2878 82.9168 41.8824 82.3777C42.8689 85.0734 43.9904 87.7016 45.2877 90.2625ZM85.4351 88.5643C85.2864 89.2382 85.1243 89.9256 84.9486 90.5995V90.586C84.7602 91.285 84.576 91.9881 84.3914 92.6931L84.3913 92.6935L84.3912 92.6939L84.3911 92.6942L84.391 92.6946C84.2446 93.2534 84.098 93.8134 83.9486 94.3734C82.788 98.7885 81.6139 103.204 80.4398 107.619L80.4393 107.621L80.4388 107.623L80.4383 107.625L80.4377 107.627L80.4352 107.636L78.6785 114.267C78.3812 115.346 78.0975 116.41 77.8137 117.489C77.7963 117.552 77.7813 117.614 77.7668 117.674L77.7667 117.674L77.7666 117.674C77.7473 117.753 77.7286 117.83 77.7056 117.907C78.3947 116.572 79.0569 115.211 79.665 113.836C83.4081 105.385 85.7053 96.2873 86.3945 87.0682C86.0702 87.5669 85.7459 88.0656 85.4351 88.5643ZM77.6786 107.569C76.7867 111.585 76.3272 115.683 76.1381 119.78H76.1516C76.2981 119.17 76.4722 118.565 76.6456 117.962L76.6456 117.962L76.6457 117.961L76.6457 117.961L76.6457 117.961L76.6458 117.961L76.6459 117.961C76.7442 117.619 76.8424 117.277 76.9353 116.936C77.1043 116.303 77.2766 115.672 77.4489 115.042C77.6212 114.412 77.7934 113.782 77.9623 113.149C78.5636 110.945 79.1614 108.739 79.7593 106.532L79.7601 106.529L79.761 106.526L79.7619 106.522L79.7627 106.519C80.3596 104.316 80.9565 102.113 81.5568 99.913L81.557 99.9122C82.1515 97.702 82.746 95.4919 83.354 93.2951L83.9486 91.1117C83.5838 91.7721 83.2189 92.4326 82.8811 93.1065C80.5568 97.6891 78.8001 102.555 77.6786 107.569ZM83.273 114.133C81.1109 116.68 79.0299 119.308 77.0164 121.977H77.0299C77.0434 121.97 77.0603 121.96 77.0772 121.95C77.0941 121.94 77.111 121.93 77.1245 121.923C79.165 119.901 81.219 117.893 83.3 115.898C86.1686 113.153 89.0432 110.413 91.9197 107.672L91.9215 107.67L91.9232 107.669L91.925 107.667C93.3964 106.265 94.8682 104.862 96.3401 103.458C98.5427 101.355 100.732 99.2526 102.907 97.1365C103.443 96.6159 103.978 96.0886 104.515 95.5597C105.049 95.0339 105.585 94.5066 106.124 93.9826C106.259 93.8545 106.394 93.7232 106.529 93.5918C106.664 93.4604 106.799 93.3289 106.934 93.2008C104.407 94.7508 101.962 96.4491 99.6103 98.2686C93.597 102.946 88.1917 108.35 83.273 114.133ZM85.1378 117.367C90.2457 114.011 94.9212 109.995 99.0022 105.453V105.439C102.016 102.096 104.718 98.4573 107.042 94.6025L106.434 95.1686C105.684 95.8681 104.929 96.5576 104.175 97.2463C103.68 97.699 103.184 98.1512 102.691 98.6056C98.9912 102.025 95.328 105.483 91.6639 108.942L91.6638 108.943L91.6637 108.943L91.6637 108.943L91.6636 108.943C87.3256 113.038 82.9865 117.135 78.5839 121.168C80.8271 120.009 83.0297 118.769 85.1378 117.367ZM78.5573 92.3913C78.5168 92.27 78.4627 92.1622 78.3952 92.0679C78.3952 92.0641 78.392 92.0604 78.3873 92.0566C78.3817 92.0523 78.3738 92.0479 78.366 92.0436C78.3625 92.0417 78.3591 92.0397 78.3558 92.0378C78.3536 92.0366 78.3515 92.0353 78.3496 92.034C78.3462 92.0318 78.3433 92.0296 78.3411 92.0274C78.3006 91.9735 78.26 91.9331 78.206 91.8926C77.9492 91.4748 77.4492 91.2187 76.9493 91.313C76.206 91.4478 75.7331 92.1891 75.8142 92.917C75.8547 93.2809 76.0574 93.6044 76.3141 93.8605C76.5439 94.0761 76.8817 94.2244 77.1925 94.2244C77.4087 94.2244 77.6114 94.1974 77.8006 94.1165C77.9492 94.0492 78.0844 93.9683 78.1925 93.8605C78.3411 93.7122 78.4627 93.5639 78.5438 93.3752C78.6249 93.173 78.6519 92.9574 78.6384 92.7552C78.6384 92.6474 78.5978 92.5261 78.5573 92.4183V92.3913ZM69.0976 69.5593C69.2597 69.7076 69.3949 69.8693 69.4759 70.085L69.4624 70.0715C69.557 70.3006 69.5705 70.5163 69.557 70.7454C69.5435 70.9746 69.4624 71.1902 69.3408 71.3789C69.2327 71.5676 69.0435 71.7024 68.8543 71.8102C68.6516 71.918 68.4219 71.9315 68.2057 71.9315C67.8138 71.9315 67.422 71.7159 67.1787 71.4193C67.0841 71.298 67.0166 71.1498 66.976 70.988C66.949 70.9476 66.949 70.9207 66.949 70.8802C66.9355 70.8533 66.922 70.8128 66.922 70.7859L66.9191 70.7562L66.9152 70.7174C66.9018 70.5884 66.8876 70.4513 66.922 70.3141C66.9625 70.1254 67.0166 70.0041 67.1112 69.8424C67.1652 69.748 67.2463 69.6672 67.3274 69.5998C67.6111 69.3302 68.0841 69.2089 68.476 69.2763C68.7057 69.3302 68.9219 69.4111 69.0976 69.5593Z" fill="#BC8383"/>
</svg>
