<?xml version="1.0" standalone="no"?>
<!DOCTYPE svg PUBLIC "-//W3C//DTD SVG 20010904//EN"
 "http://www.w3.org/TR/2001/REC-SVG-20010904/DTD/svg10.dtd">
<svg version="1.0" xmlns="http://www.w3.org/2000/svg"
 width="500.000000pt" height="500.000000pt" viewBox="0 0 500.000000 500.000000"
 preserveAspectRatio="xMidYMid meet">

<g transform="translate(0.000000,500.000000) scale(0.100000,-0.100000)"
fill="#000000" stroke="none">
<path d="M2413 3538 c-16 -31 -18 -31 -21 -10 -4 26 -22 20 -22 -8 0 -27 -19
-35 -34 -14 -18 25 -39 8 -31 -25 6 -25 6 -25 -9 -6 -14 18 -15 18 -16 3 0
-10 -7 -18 -16 -18 -9 0 -27 -26 -46 -67 -24 -53 -28 -71 -19 -85 16 -25 14
-41 -4 -34 -20 7 -29 -17 -16 -42 8 -15 8 -21 -1 -24 -9 -3 -5 -24 13 -74 22
-60 29 -69 53 -72 35 -4 54 12 62 54 l6 34 31 -30 c38 -37 83 -40 120 -7 15
12 27 28 27 35 0 18 5 15 43 -23 45 -45 83 -46 126 -6 26 25 31 26 31 11 0
-11 5 -22 10 -25 6 -4 8 -10 5 -15 -8 -13 22 -32 46 -28 29 4 80 135 58 149
-12 7 -12 13 0 41 20 49 19 74 -1 70 -12 -2 -16 4 -15 18 1 11 5 20 9 20 4 0
8 7 8 16 0 21 -101 126 -116 120 -7 -3 -14 5 -17 16 -3 11 -10 17 -16 13 -6
-3 -11 1 -11 9 0 20 -29 21 -36 1 -4 -8 -10 -15 -15 -15 -4 0 -6 7 -3 15 9 23
-21 29 -50 9 -24 -15 -26 -15 -20 0 8 20 -6 21 -32 1 -25 -19 -31 -19 -37 5
-8 29 -24 25 -44 -12z m98 -351 c-15 -15 -30 1 -24 24 6 21 7 21 20 4 8 -12 9
-23 4 -28z m-199 -19 c-13 -13 -26 8 -17 30 6 16 7 16 17 -1 7 -13 7 -22 0
-29z m398 18 c0 -16 -18 -31 -27 -22 -8 8 5 36 17 36 5 0 10 -6 10 -14z m-281
-65 c9 -6 10 -10 2 -16 -16 -9 -44 2 -36 15 8 12 16 12 34 1z m174 -12 c-6 -6
-18 -6 -28 -3 -18 7 -18 8 1 14 23 9 39 1 27 -11z m-328 -29 c-3 -5 -13 -10
-21 -10 -8 0 -14 5 -14 10 0 6 9 10 21 10 11 0 17 -4 14 -10z m490 0 c3 -5 -3
-10 -14 -10 -11 0 -23 5 -26 10 -3 6 3 10 14 10 11 0 23 -4 26 -10z"/>
<path d="M3083 2998 c-6 -7 -21 -45 -34 -85 -22 -70 -23 -72 -58 -75 -44 -4
-50 -31 -8 -36 33 -4 32 -2 5 -82 -35 -104 -127 -187 -177 -160 -12 6 -21 21
-21 34 0 19 7 25 33 30 88 16 119 126 36 126 -30 0 -52 -20 -120 -108 -39 -51
-91 -92 -116 -92 -16 0 -53 36 -53 50 0 6 8 13 18 16 83 26 123 67 104 109
-23 51 -96 25 -132 -45 -27 -53 -26 -102 3 -134 37 -42 89 -39 144 9 l40 34
12 -25 c24 -53 106 -61 156 -14 29 27 35 25 35 -13 0 -18 7 -43 16 -56 14 -19
23 -22 55 -18 21 3 52 15 69 27 30 22 110 130 110 149 0 25 -31 8 -58 -32 -48
-69 -93 -108 -122 -105 -22 3 -25 8 -28 48 -1 27 9 86 25 145 l28 100 68 3
c58 2 68 6 65 20 -2 13 -16 18 -60 20 l-56 3 25 75 c16 48 22 79 16 85 -6 6
-14 5 -20 -3z m-425 -294 c-4 -20 -55 -61 -64 -51 -3 3 4 20 16 36 23 33 54
42 48 15z m212 2 c0 -8 -12 -24 -26 -35 -48 -38 -60 -23 -19 22 28 30 45 35
45 13z"/>
<path d="M2323 2962 c-48 -7 -73 -17 -62 -25 2 -2 47 0 99 5 52 5 158 6 235 2
109 -5 137 -3 128 6 -13 14 -316 23 -400 12z"/>
<path d="M1953 2885 c-54 -38 -51 -113 8 -244 l30 -66 -23 -18 c-53 -41 -82
-73 -94 -104 -20 -48 -17 -69 15 -95 l28 -25 -31 -13 c-17 -7 -34 -15 -37 -17
-4 -2 -9 6 -12 19 -12 45 -35 -4 -81 -177 -47 -173 -53 -209 -37 -220 15 -9
25 18 61 160 30 121 35 133 72 167 23 22 55 40 76 44 31 6 39 3 59 -20 18 -21
23 -39 23 -81 0 -78 -10 -96 -88 -153 -84 -63 -159 -141 -168 -176 -9 -37 3
-74 26 -81 49 -15 146 84 213 217 24 48 47 79 66 91 l30 18 -14 -42 c-18 -51
-19 -69 -2 -69 7 0 27 30 45 68 39 84 69 114 125 121 28 4 42 11 42 21 0 22
-57 25 -95 5 -31 -16 -31 -16 -28 7 2 14 -3 24 -13 26 -11 2 -19 -9 -27 -36
-10 -33 -46 -72 -67 -72 -3 0 -5 20 -5 45 0 56 -20 107 -52 131 l-24 18 36 32
c35 32 35 33 34 112 l-1 79 74 37 c40 20 76 36 78 36 3 0 5 -25 5 -55 0 -43 4
-56 19 -65 27 -14 26 -14 71 26 36 32 40 34 40 16 0 -20 26 -42 49 -42 25 0
81 66 114 132 41 86 48 113 27 113 -8 0 -30 -31 -51 -73 -34 -70 -73 -122 -91
-122 -14 0 -9 55 12 115 19 57 16 86 -9 71 -6 -4 -29 -42 -51 -85 -74 -143
-112 -149 -80 -13 24 100 24 92 4 92 -8 0 -20 -13 -25 -30 -6 -16 -12 -30 -14
-30 -1 0 -45 -20 -98 -44 l-95 -45 -36 90 c-44 108 -45 140 -10 168 42 33 102
21 123 -25 12 -27 41 -33 41 -8 0 9 -15 31 -34 50 -29 29 -41 34 -83 34 -27 0
-58 -7 -70 -15z m57 -416 c0 -40 -5 -55 -25 -74 -28 -29 -47 -31 -69 -9 -28
27 -19 59 29 103 25 23 50 39 55 36 6 -3 10 -29 10 -56z m-71 -486 c-66 -109
-111 -163 -136 -163 -34 0 -8 47 66 121 43 44 82 79 86 79 3 0 -4 -17 -16 -37z"/>
<path d="M2820 2226 c0 -56 -22 -126 -50 -156 -30 -32 -37 -35 -60 -21 -20 13
-16 69 9 127 15 32 18 51 11 58 -7 7 -14 6 -22 -2 -7 -7 -29 -12 -51 -12 -52
0 -70 -11 -157 -96 -81 -79 -117 -96 -144 -69 -24 25 -21 55 7 55 31 0 84 34
92 60 4 12 4 32 1 46 -15 57 -109 12 -141 -68 -45 -113 48 -182 149 -111 l41
29 23 -28 c29 -34 55 -35 97 -4 l32 25 13 -24 c15 -28 42 -39 75 -31 20 5 22
3 18 -15 -5 -17 -2 -20 13 -18 14 3 27 27 49 91 31 90 48 118 71 118 19 0 18
-33 -4 -112 -21 -73 -14 -109 13 -74 8 11 15 27 15 35 0 21 47 121 67 143 21
24 40 23 48 -2 8 -26 -12 -135 -37 -192 -23 -53 -18 -93 7 -67 27 27 58 132
63 215 4 76 3 82 -19 98 -32 22 -42 20 -78 -10 -17 -14 -31 -21 -31 -15 0 6
-9 15 -21 21 -16 9 -26 8 -44 -4 -22 -15 -24 -14 -27 6 -4 31 -28 35 -28 4z
m-397 -22 c11 -11 -5 -35 -35 -50 -40 -21 -44 -13 -13 25 27 31 36 36 48 25z
m250 -20 c10 -10 -28 -76 -61 -108 -38 -35 -62 -29 -62 15 0 55 92 124 123 93z"/>
<path d="M3163 2208 c-30 -14 -43 -58 -36 -118 5 -46 4 -52 -30 -89 -62 -69
-59 -156 5 -149 43 4 68 42 75 112 7 64 10 67 108 88 58 12 67 18 56 37 -7 11
-22 9 -86 -8 -43 -12 -80 -20 -82 -17 -12 12 -15 87 -3 101 18 21 41 19 47 -5
7 -27 37 -22 41 7 2 13 -5 27 -20 37 -26 18 -44 19 -75 4z m-23 -251 c0 -38
-22 -73 -38 -63 -17 10 -15 48 4 74 22 31 34 27 34 -11z"/>
<path d="M1952 1738 c-16 -16 -15 -53 3 -68 18 -15 47 -10 53 10 5 13 3 13
-11 1 -25 -20 -49 -6 -45 26 2 23 8 28 30 28 14 -1 24 3 22 7 -8 12 -38 10
-52 -4z"/>
<path d="M2327 1737 c-3 -8 -2 -29 3 -48 8 -36 8 -36 14 34 1 6 6 15 11 19 6
5 3 8 -6 8 -9 0 -19 -6 -22 -13z"/>
<path d="M2622 1704 c2 -23 9 -39 18 -41 12 -4 13 -3 1 5 -9 6 -11 19 -7 35 3
15 1 29 -5 32 -7 5 -9 -6 -7 -31z"/>
<path d="M2093 1723 c-18 -7 -16 -52 2 -59 18 -7 45 12 45 32 0 16 -30 33 -47
27z m30 -39 c-8 -20 -33 -17 -33 4 0 10 3 22 7 25 10 11 32 -13 26 -29z"/>
<path d="M2218 1722 c-13 -2 -18 -13 -17 -35 1 -30 1 -30 8 -7 4 14 13 25 21
25 8 0 17 -11 21 -25 l7 -25 1 26 c1 30 -16 47 -41 41z"/>
<path d="M2719 1718 c-11 -8 -11 -9 3 -4 10 3 20 1 23 -3 2 -5 -4 -11 -15 -14
-30 -8 -26 -37 5 -35 20 2 25 8 25 29 0 30 -19 43 -41 27z m26 -38 c-3 -5 -10
-10 -16 -10 -5 0 -9 5 -9 10 0 6 7 10 16 10 8 0 12 -4 9 -10z"/>
<path d="M3019 1718 c-11 -8 -11 -9 3 -4 10 3 20 1 23 -3 2 -5 -4 -11 -15 -14
-30 -8 -26 -37 5 -35 20 2 25 8 25 29 0 30 -19 43 -41 27z m26 -38 c-3 -5 -10
-10 -16 -10 -5 0 -9 5 -9 10 0 6 7 10 16 10 8 0 12 -4 9 -10z"/>
<path d="M2422 1693 c2 -18 9 -28 21 -29 12 -1 13 -1 2 3 -22 7 -18 23 5 23
11 0 20 7 20 15 0 8 -5 15 -11 15 -5 0 -7 -4 -4 -10 3 -5 -1 -10 -10 -10 -9 0
-13 5 -10 10 3 6 1 10 -5 10 -6 0 -10 -12 -8 -27z"/>
<path d="M2542 1690 c0 -19 2 -27 5 -17 2 9 2 25 0 35 -3 9 -5 1 -5 -18z"/>
<path d="M2831 1688 c1 -21 3 -26 6 -13 3 11 12 26 21 33 14 11 13 12 -6 12
-18 0 -22 -5 -21 -32z"/>
<path d="M2932 1690 c0 -19 2 -27 5 -17 2 9 2 25 0 35 -3 9 -5 1 -5 -18z"/>
</g>
</svg>
